<?xml version="1.0" encoding="utf-8"?>
<!-- Generator: Adobe Illustrator 17.1.0, SVG Export Plug-In . SVG Version: 6.00 Build 0)  -->
<!DOCTYPE svg PUBLIC "-//W3C//DTD SVG 1.1//EN" "http://www.w3.org/Graphics/SVG/1.1/DTD/svg11.dtd">
<svg version="1.1" xmlns="http://www.w3.org/2000/svg" xmlns:xlink="http://www.w3.org/1999/xlink" x="0px" y="0px"
	 viewBox="0 0 179.339 100.5" enable-background="new 0 0 179.339 100.5" xml:space="preserve">
<g id="Layer_1" display="none">
	<g display="inline" opacity="0.8">
		<path fill="#231F20" d="M78.309,19.169c-1.917,0-3.411-1.54-3.411-3.411c0-1.871,1.511-3.429,3.43-3.429
			c1.917,0,3.411,1.54,3.411,3.411C81.739,17.609,80.227,19.169,78.309,19.169z M78.328,12.592c-1.796,0-3.147,1.427-3.147,3.166
			c0,1.738,1.341,3.146,3.128,3.146c1.794,0,3.146-1.427,3.146-3.164C81.455,14.001,80.113,12.592,78.328,12.592z M78.885,15.928
			l1.153,1.454h-0.529l-1.094-1.387h-1.001v1.387h-0.407v-3.456h1.549c0.735,0,1.276,0.386,1.276,1.001
			C79.83,15.493,79.442,15.824,78.885,15.928z M78.534,14.312h-1.122v1.303h1.074c0.522,0,0.918-0.225,0.918-0.67
			C79.404,14.549,79.075,14.312,78.534,14.312z"/>
	</g>
	<g display="inline" opacity="0.8">
		<path fill="#231F20" d="M166.89,19.169c-1.918,0-3.411-1.54-3.411-3.411c0-1.871,1.512-3.429,3.43-3.429
			c1.917,0,3.411,1.54,3.411,3.411C170.32,17.609,168.808,19.169,166.89,19.169z M166.909,12.592c-1.796,0-3.147,1.427-3.147,3.166
			c0,1.738,1.342,3.146,3.128,3.146c1.794,0,3.147-1.427,3.147-3.164C170.037,14.001,168.694,12.592,166.909,12.592z
			 M167.466,15.928l1.153,1.454h-0.529l-1.095-1.387h-1v1.387h-0.407v-3.456h1.548c0.735,0,1.277,0.386,1.277,1.001
			C168.412,15.493,168.023,15.824,167.466,15.928z M167.115,14.312h-1.121v1.303h1.074c0.521,0,0.916-0.225,0.916-0.67
			C167.985,14.549,167.656,14.312,167.115,14.312z"/>
	</g>
	<g display="inline" opacity="0.8">
		<path fill="#929497" d="M15.639,79.597c0,2.755-1.58,4.187-3.948,4.187c-2.335,0-3.93-1.432-3.93-4.104V74.18h1.067v5.431
			c0,2.04,1.081,3.19,2.891,3.19c1.743,0,2.852-1.057,2.852-3.121V74.18h1.068V79.597z"/>
		<path fill="#929497" d="M24.047,74.18h1.039v9.459h-0.852l-6.105-7.756v7.756h-1.04V74.18h1l5.959,7.579V74.18z"/>
		<path fill="#929497" d="M29.967,83.639h-3.284V74.18h3.284c2.972,0,5.027,2.041,5.027,4.716
			C34.994,81.571,32.939,83.639,29.967,83.639z M29.967,75.167h-2.217v7.484h2.217c2.39,0,3.917-1.623,3.917-3.73
			C33.885,76.816,32.357,75.167,29.967,75.167z"/>
		<path fill="#929497" d="M43.007,75.152h-5.766v3.231h5.16v0.972h-5.16v3.31h5.836v0.973h-6.903V74.18h6.833V75.152z"/>
		<path fill="#929497" d="M50.658,83.639l-2.743-3.677h-2.701v3.677h-1.067V74.18h4.067c2.082,0,3.419,1.121,3.419,2.824
			c0,1.582-1.083,2.5-2.57,2.771l2.907,3.864H50.658z M48.133,75.167h-2.918v3.836h2.905c1.418,0,2.431-0.729,2.431-1.957
			C50.551,75.869,49.661,75.167,48.133,75.167z"/>
		<path fill="#929497" d="M59.057,76.627l-0.784-0.569c0.851-1.271,1.742-2.013,3.404-2.013c1.717,0,2.933,1.135,2.933,2.689
			c0,1.39-0.729,2.242-2.393,3.686l-2.525,2.245h5.011v0.973h-6.605v-0.824l3.43-3.027c1.446-1.297,1.972-2.028,1.972-2.973
			c0-1.109-0.877-1.81-1.904-1.81C60.516,75.006,59.815,75.572,59.057,76.627z"/>
		<path fill="#929497" d="M69.286,83.798c-2.445,0-3.985-2.214-3.985-4.877c0-2.661,1.568-4.903,4.012-4.903
			c2.433,0,3.973,2.216,3.973,4.878C73.287,81.557,71.719,83.798,69.286,83.798z M69.286,74.992c-1.769,0-2.876,1.81-2.876,3.904
			c0,2.094,1.133,3.929,2.904,3.929c1.771,0,2.865-1.821,2.865-3.904C72.179,76.842,71.056,74.992,69.286,74.992z"/>
	</g>
	<path display="inline" opacity="0.8" fill="#231F20" d="M59.658,36.007v-5.587h3.413c6.18,0,10.695-3.091,10.695-8.954v-0.073
		c0-5.507-4.05-8.739-10.341-8.739h-10.66v8.261c-1.709-5.107-6.559-8.761-12.689-8.761c-4.215,0-7.845,1.756-10.267,4.517v-4.016
		H7.991v6.04h7.463v18.833h0.22c-2.824,1.258-5.131,3.176-7.449,5.705l7.693,5.403c3.231-3.121,5.405-4.461,8.164-4.461
		c2.761,0,4.581,1.34,4.581,3.519c0,2.082-1.468,3.718-5.285,6.245L7.991,63.851v7.235h32.533v-6.206
		c3.246,4.18,8.508,6.9,15.289,6.9c11.745,0,19.087-8.226,19.087-18.04V53.64C74.899,44.92,69.139,37.545,59.658,36.007z
		 M59.658,18.445h3.235c2.488,0,3.98,1.135,3.98,3.268v0.072c0,1.953-1.492,3.232-3.945,3.232h-3.269V18.445z M23.554,63.255
		l7.047-4.163c2.602-1.584,4.709-3.016,6.276-4.566c0.111,3.183,0.986,6.165,2.536,8.729H23.554z M39.662,43.955
		c-1.555-4.937-7.115-8.157-14.699-8.157c-0.92,0-1.787,0.039-2.616,0.108V18.694h6.01c-1.091,1.888-1.712,4.068-1.712,6.396v0.071
		c0,6.861,5.252,12.394,12.47,12.821v-6.275l-4.874,0.458l0.906-1.735l-5.286-3.881l1.409-0.787l-1.364-3.708l2.893,0.705
		l1.071-1.491l3.68,3.673l-1.948-7.058l2.306,1.319l2.115-3.802l2.1,3.802l2.35-1.319l-1.978,7.058l3.709-3.673l1.078,1.491
		l2.852-0.705l-1.368,3.708l1.457,0.787L44.89,30.43l0.951,1.735l-4.876-0.458v6.271c5.688-0.365,10.17-3.945,11.799-8.81v6.765
		C46.894,36.738,42.359,39.751,39.662,43.955z M63.448,53.838c0,5.501-2.937,9.417-7.518,9.417c-4.581,0-7.635-3.966-7.635-9.515
		V53.64c0-5.552,2.995-9.416,7.516-9.416c4.521,0,7.636,4.014,7.636,9.515V53.838z"/>
	<line display="inline" opacity="0.8" fill="#929497" x1="85.949" y1="11.785" x2="85.949" y2="83.542"/>
	<g display="inline" opacity="0.8">
		<path fill="#231F20" d="M146.434,13.014c-8.07,0-14.256,3.608-17.702,8.972c-1.696-5.365-7.743-8.864-15.99-8.864
			c-8.686,0-13.416,2.859-18.208,8.086l8.368,5.877c3.515-3.395,5.881-4.852,8.881-4.852c3.005,0,4.984,1.458,4.984,3.828
			c0,2.264-1.597,4.045-5.749,6.793L94.281,43.64v7.871h35.392V44.78c3.532,4.539,9.262,7.486,16.632,7.486
			c12.777,0,20.763-8.949,20.763-19.625v-0.109C167.068,21.858,159.147,13.014,146.434,13.014z M111.21,42.991l7.668-4.529
			c2.821-1.717,5.106-3.27,6.809-4.95c0.123,3.455,1.075,6.695,2.754,9.479H111.21z M154.613,32.748
			c0,5.985-3.195,10.244-8.178,10.244c-4.985,0-8.306-4.314-8.306-10.351v-0.109c0-6.04,3.257-10.243,8.177-10.243
			c4.918,0,8.307,4.366,8.307,10.352V32.748z"/>
		<path fill="#231F20" d="M140.615,52.893c-4.492,0-8.094,2.676-9.428,6.406c-1.239-3.588-4.69-5.939-9.863-5.939h-7.095v16.912
			l-7.204-17.043h-4.915l-7.83,18.526h5.361l1.314-3.285h7.095l1.34,3.285h4.84h0.626h6.364c5.188,0,8.672-2.426,9.942-6.028
			c1.24,3.553,4.537,6.132,8.738,6.381V67.44l-3.626,0.341l0.674-1.291l-3.934-2.887l1.049-0.586l-1.014-2.759l2.151,0.525
			l0.797-1.109l2.738,2.732l-1.449-5.25l1.718,0.98l1.571-2.828l1.562,2.828l1.749-0.98l-1.472,5.25l2.76-2.732l0.802,1.109
			l2.119-0.525l-1.017,2.759l1.086,0.586l-3.969,2.887l0.71,1.291l-3.63-0.341v4.666c5.348-0.344,9.279-4.501,9.279-9.588v-0.054
			C150.554,57.15,146.325,52.893,140.615,52.893z M102.454,64.502l2.075-5.229l2.05,5.229H102.454z M126.475,62.584
			c0,2.969-2.023,4.651-5.071,4.651h-2.076V57.88h2.076c3.047,0,5.071,1.708,5.071,4.65V62.584z"/>
		<path fill="#231F20" d="M159.752,60.298c-2.548-0.579-3.179-0.947-3.179-1.787v-0.054c0-0.656,0.606-1.182,1.84-1.182
			c1.629,0,3.469,0.63,5.15,1.813l2.55-3.6c-1.997-1.603-4.441-2.443-7.568-2.443c-4.416,0-7.121,2.47-7.121,5.886v0.052
			c0,3.785,3.021,4.888,6.937,5.781c2.495,0.577,3.1,0.999,3.1,1.761v0.052c0,0.789-0.736,1.262-2.101,1.262
			c-2.129,0-4.152-0.762-5.966-2.207l-2.838,3.39c2.26,2.023,5.361,3.047,8.619,3.047c4.466,0,7.436-2.233,7.436-5.991v-0.053
			C166.611,62.584,163.984,61.217,159.752,60.298z"/>
	</g>
	<path display="inline" opacity="0.8" fill="#929497" d="M102.669,84.214h-1.094l-1.055-2.379h-4.902l-1.069,2.379h-1.042
		l4.102-9.069h0.954L102.669,84.214z M98.075,76.329l-2.058,4.592h4.104L98.075,76.329z"/>
	<path display="inline" opacity="0.8" fill="#929497" d="M109.931,75.209h1.095l-3.873,9.069h-0.901l-3.872-9.069h1.133l3.202,7.757
		L109.931,75.209z"/>
	<path display="inline" opacity="0.8" fill="#929497" d="M119.307,76.136h-5.495v3.075h4.916v0.926h-4.916v3.151h5.558v0.926h-6.572
		v-9.005h6.509V76.136z"/>
	<path display="inline" opacity="0.8" fill="#929497" d="M125.531,84.369c-2.598,0-4.515-2.046-4.515-4.644
		c0-2.573,1.904-4.67,4.553-4.67c1.636,0,2.613,0.578,3.513,1.428l-0.696,0.747c-0.758-0.721-1.608-1.235-2.83-1.235
		c-1.994,0-3.487,1.608-3.487,3.705c0,2.096,1.505,3.73,3.487,3.73c1.235,0,2.045-0.476,2.908-1.299l0.669,0.656
		C128.194,83.74,127.165,84.369,125.531,84.369z"/>
	<path display="inline" opacity="0.8" fill="#929497" d="M141.531,77.461c0,1.184-0.721,1.788-1.429,2.097
		c1.067,0.322,1.931,0.938,1.931,2.187c0,1.556-1.301,2.47-3.269,2.47h-4v-9.005h3.833
		C140.373,75.209,141.531,76.084,141.531,77.461z M140.502,77.602c0-0.9-0.709-1.48-1.994-1.48h-2.74v3.101h2.663
		C139.652,79.223,140.502,78.67,140.502,77.602z M141.002,81.68c0-0.99-0.822-1.556-2.392-1.556h-2.843v3.177h3.023
		C140.154,83.301,141.002,82.697,141.002,81.68z"/>
	<path display="inline" opacity="0.8" fill="#929497" d="M150.249,84.214l-2.61-3.499h-2.573v3.499h-1.017v-9.005h3.872
		c1.982,0,3.256,1.068,3.256,2.689c0,1.505-1.03,2.38-2.445,2.637l2.765,3.679H150.249z M147.844,76.149h-2.779v3.654h2.765
		c1.351,0,2.316-0.696,2.316-1.866C150.146,76.818,149.298,76.149,147.844,76.149z"/>
	<path display="inline" opacity="0.8" fill="#929497" d="M154.454,75.209v9.005h-1.016v-9.005H154.454z"/>
	<path display="inline" opacity="0.8" fill="#929497" d="M161.27,84.369c-2.74,0-4.581-2.149-4.581-4.644
		c0-2.495,1.866-4.67,4.606-4.67c2.74,0,4.58,2.147,4.58,4.645C165.875,82.195,164.011,84.369,161.27,84.369z M161.27,75.995
		c-2.057,0-3.524,1.647-3.524,3.705c0,2.058,1.491,3.73,3.55,3.73c2.058,0,3.525-1.646,3.525-3.705
		C164.82,77.667,163.328,75.995,161.27,75.995z"/>
</g>
<g id="Layer_2">
	<g opacity="0.8">
		<g>
			<path fill="#222222" d="M48.924,55.234c-1.98-0.107-3.131-0.133-5.114-0.133c-2.112,0.025-3.345,0.08-5.433,0.212l-0.027-1.469
				l4.926-0.193l-2.623-5.804c-1.714-0.027-2.624,0-4.445,0c-2.007-0.027-2.461,0.055-3.988,0.105l-2.382,5.783l5.754,0.108
				l-0.027,1.469c-1.979-0.107-3.132-0.107-5.139-0.133c-1.685,0-2.702,0.053-4.389,0.133v-1.336l1.632-0.189
				c1.927-3.587,3.08-5.671,4.74-9.394c2.058-4.63,1.419-2.864,3.853-8.942l1.98-0.158c1.447,3.773,2.089,5.299,4.123,9.554
				c1.633,3.485,2.703,5.487,4.578,8.836l1.98,0.184V55.234 M37.842,42.065c-0.509-0.964-1.016-1.82-1.366-2.463
				c-0.722,1.149-1.124,1.846-1.74,3.049c-0.722,1.448-1.149,2.33-1.767,3.858c1.339,0.133,2.115,0.213,3.427,0.161
				c1.418-0.056,2.22-0.056,3.587-0.215C39.209,44.739,38.697,43.804,37.842,42.065z"/>
			<path fill="#222222" d="M65.179,55.181c-0.965,0-1.501,0-2.543,0.053c-0.829,0.054-1.339,0.054-2.196,0.08l0.214-3.613
				l-0.774,1.741c-0.268,0.64-0.483,1.016-1.312,1.659c-0.402,0.32-3.828,0.722-5.996,0.212c-3.024-0.75-3.401-4.711-3.401-7.121
				c-0.027-1.845,0.829-4.361,1.742-5.273c1.845-1.9,6.744-1.739,8.11-0.831c0.562,0.404,0.964,1.259,1.312,2.171l0.32,0.881
				c0.055-1.981,0.055-3.157-0.027-5.111c-0.027-1.313-0.08-2.061-0.187-3.347l-2.97-0.214v-1.018
				c1.176,0.027,1.926,0.084,3.076,0.027c1.124-0.051,1.768-0.051,2.865-0.104c-0.402,4.041-0.561,6.423-0.588,10.518
				c0,3.106,0.054,4.897,0.213,7.975l2.195,0.215L65.179,55.181 M58.191,43.053c-0.883-0.667-3.774-0.667-4.951,0.215
				c-1.044,0.777-1.312,3.104-1.285,5.165c0.026,1.981,0.269,3.561,0.964,4.901c0.697,1.364,3.962,1.228,5.033,0.585
				c1.633-0.962,2.034-3.533,2.061-5.673C60.012,46.132,59.314,43.884,58.191,43.053z"/>
			<path fill="#222222" d="M80.008,42.708c-0.938,1.901-1.472,3.051-2.33,5.007c-1.23,2.888-1.927,4.631-2.943,7.599h-2.57
				c-0.964-2.705-1.608-4.28-2.784-6.905c-0.991-2.193-1.632-3.481-2.757-5.623l-1.069-0.157l-0.081-1.126
				c1.42,0.08,2.223,0.108,3.641,0.108c1.365,0,2.168-0.027,3.559-0.108v1.126l-2.702,0.157c0.695,2.091,1.177,3.347,2.009,5.407
				c0.748,1.9,1.232,2.996,2.113,4.873c1.044-2.356,1.632-3.776,2.543-6.185c0.59-1.551,0.936-2.487,1.472-4.068l-3.238-0.213
				l-0.054-1.097c1.285,0.027,2.033,0.054,3.319,0.054c1.204,0,1.9-0.027,3.079-0.054l0.052,1.097L80.008,42.708"/>
			<path fill="#222222" d="M91.279,55.314c-1.821,0.402-5.861,0.269-7.039-0.295c-2.222-1.067-2.651-4.068-2.705-6.369
				c-0.051-1.846,0.562-4.151,1.66-5.381c1.098-1.233,3.106-1.739,5.275-1.766c2.383-0.053,4.736,0.295,5.835,2.007
				c0.589,0.938,0.697,2.303,0.697,3.186l0.025,1.792c-2.195,0-3.479,0.028-5.702,0.028c-1.82-0.028-2.865,0.05-4.656,0.108
				c-0.054,0.614-0.027,1.177,0.16,2.219c0.16,0.939,0.508,2.036,1.205,2.679c1.152,1.042,2.785,1.018,4.014,0.67
				c0.966-0.294,2.571-1.072,4.821-3.026l0.721,0.779C94.571,53.252,92.459,55.047,91.279,55.314 M92.029,46.24
				c0-1.313-0.133-2.436-1.175-3.212c-1.341-0.992-4.07-0.509-4.741,0.082c-1.149,0.989-1.284,3.345-1.312,3.694l-0.078,0.585
				c1.232,0.054,2.139,0.028,3.507,0.028c1.469,0,2.327-0.133,3.799-0.322V46.24z"/>
			<path fill="#222222" d="M109.777,55.206c-1.311-0.025-2.061,0.028-3.318,0.107l-0.055-1.178l2.702-0.184
				c0.107-1.741,0.136-2.763,0.107-4.47c-0.054-2.197,0.135-4.792-0.561-5.704c-0.829-1.126-4.175-1.259-4.979-0.509
				c-0.855,0.803-0.991,1.634-1.365,2.784c-0.265,0.828-0.481,2.463-0.481,4.04v3.827l2.435,0.215l0.028,1.178
				c-1.526-0.054-2.409-0.08-3.935-0.08c-1.314,0-2.115,0.026-3.428,0.08l-0.023-1.178l2.22-0.184
				c0.107-2.197,0.215-2.035,0.025-5.653c-0.08-2.004-0.187-3.181-0.428-5.189l-1.978-0.268l-0.107-0.938
				c0.99-0.027,1.58,0,2.57-0.081c0.855-0.026,1.39-0.026,2.248-0.054c-0.028,0.778-0.057,1.231-0.079,2.008
				c-0.029,0.536-0.082,0.885-0.082,1.393l-0.026,0.668l0.32-1.231c0.162-0.697,0.51-1.631,1.071-2.06
				c0.855-0.67,2.275-1.045,3.827-1.045c2.194-0.053,4.792,0.533,5.356,1.98c0.374,0.858-0.082,3.322-0.082,5.407
				c0.026,1.953,0.053,3.105,0.159,5.062l2.143,0.131l0.028,1.232C112.426,55.206,111.438,55.206,109.777,55.206"/>
			<path fill="#222222" d="M124.259,53.252c-0.323,0.4-0.857,1.366-1.82,1.741c-1.099,0.428-2.624,0.481-3.264,0.536
				c-0.804,0.027-2.143-0.323-2.171-1.552c-0.026-0.829,0.161-4.045,0.136-6.613c0-1.741-0.054-2.756-0.108-4.468h-2.144v-0.941
				h2.172v-2.701c0.504,0,0.855-0.027,1.39-0.081c0.617-0.027,0.991-0.08,1.605-0.134l-0.268,2.915h4.204v0.911h-4.068
				c-0.455,2.409-0.269,3.481-0.294,6.292c-0.026,2.008,0.509,4.793,1.044,4.924c0.509,0.164,1.767-0.693,2.57-1.388l0.748-0.673
				l0.724,0.618L124.259,53.252"/>
			<path fill="#222222" d="M139.036,55.288c-0.778,0-1.259,0.053-2.01,0.107c0.08-0.937,0.162-1.475,0.215-2.408
				c0.026-0.723,0.054-1.15,0.08-1.875l-0.428,1.367c-0.348,1.173-0.936,2.084-1.954,2.568c-1.205,0.561-4.042,0.668-5.596,0.348
				c-1.311-0.268-2.621-1.149-2.568-2.569c0.055-2.543,0.187-2.461,0.187-5.246c0-1.767-0.107-2.784-0.269-4.526l-1.953-0.157
				l-0.053-0.964c0.882,0,1.392,0.023,2.302,0c1.151-0.054,1.794-0.027,2.918-0.081c-0.32,2.06-0.349,3.077-0.401,5.378
				c-0.08,2.01,0.028,5.087,0.427,5.812c0.885,1.633,3.776,1.553,4.765,0.56c1.5-1.501,1.661-3.159,1.876-5.325
				c0.159-1.766,0.105-3.802-0.189-5.248l-2.355-0.186v-0.964c1.152,0,1.846,0,3.023-0.027c0.965-0.027,1.554-0.053,2.517-0.106
				c-0.187,2.49-0.292,3.72-0.187,6.449c0.108,2.222,0.133,3.536,0.402,5.727l1.875,0.19v1.179
				C140.642,55.26,140.05,55.26,139.036,55.288"/>
			<path fill="#222222" d="M153.409,46.535c-1.15,0.323-1.096-3.266-2.516-3.507c-0.642-0.108-2.381,2.357-2.865,4.738
				c-0.159,0.991-0.348,1.578-0.348,2.598v3.556l4.363,0.08l0.081,1.313c-1.925-0.08-3.078-0.107-4.98-0.107
				c-1.792,0-2.809,0.028-4.55,0.107v-1.232l2.41-0.184c0.082-2.223,0.082-3.564,0-5.781c-0.08-1.984-0.187-3.136-0.4-5.116
				l-2.01-0.158v-0.938c1.017-0.054,1.634-0.081,2.679-0.107c0.855-0.027,1.365-0.053,2.222-0.053
				c-0.082,0.855-0.108,1.39-0.161,2.248c-0.082,1.125-0.136,1.792-0.161,2.889l0.268-0.963c0.402-1.336,0.693-2.783,1.526-3.289
				c1.175-0.724,3.185-1.314,3.879-1.152c1.42,0.294,2.117,2.864,1.874,3.775C154.562,45.866,154.027,46.401,153.409,46.535"/>
			<path fill="#222222" d="M165.616,55.314c-1.82,0.402-5.863,0.269-7.04-0.295c-2.223-1.067-2.65-4.068-2.704-6.369
				c-0.053-1.846,0.563-4.151,1.66-5.381c1.097-1.233,3.105-1.739,5.274-1.766c2.381-0.053,4.74,0.295,5.834,2.007
				c0.589,0.938,0.697,2.303,0.697,3.186l0.028,1.792c-2.197,0-3.482,0.028-5.701,0.028c-1.82-0.028-2.865,0.05-4.66,0.108
				c-0.054,0.614-0.026,1.177,0.161,2.219c0.161,0.939,0.51,2.036,1.206,2.679c1.15,1.042,2.783,1.018,4.014,0.67
				c0.963-0.294,2.57-1.072,4.818-3.026l0.722,0.779C168.909,53.252,166.794,55.047,165.616,55.314 M166.366,46.24
				c0-1.313-0.135-2.436-1.18-3.212c-1.336-0.992-4.068-0.509-4.737,0.082c-1.149,0.989-1.285,3.345-1.311,3.694l-0.082,0.585
				c1.232,0.054,2.143,0.028,3.508,0.028c1.471,0,2.33-0.133,3.801-0.322V46.24z"/>
		</g>
		<g>
			<path fill="#222222" d="M57.6,82.577c-2.521,1.002-4.134,1.421-6.882,1.516c-3.908,0.097-7.592-0.421-9.145-1.455
				c-3.134-2.129-3.554-6.008-3.681-10.175c-0.129-3.944,0.871-7.981,2.713-9.791c2.327-2.327,5.397-2.652,7.949-2.908
				c3.555-0.325,6.334-0.162,9.177,0.163l1.13,0.093c-0.193,1.554-0.292,2.458-0.418,4.009c-0.131,1.874-0.228,2.972-0.291,4.848
				l-1.423,0.061l-0.194-0.903c-0.485-2.23-1.034-5.428-1.422-5.717c-1.066-0.809-4.619-1.487-6.816-1.295
				c-3.136,0.227-3.846,1.035-4.654,2.036c-1.485,1.843-2.002,6.656-1.68,10.243c0.225,2.264,0.321,4.913,1.487,6.915
				c1.033,1.808,3.745,2.683,6.365,2.458c1.679-0.164,3.813-0.584,4.556-0.97c1.003-0.487,2.876-3.554,4.361-6.045l0.388-0.678
				l1.26,0.617L57.6,82.577"/>
			<path fill="#222222" d="M73.983,83.867c-2.196,0.486-7.076,0.323-8.497-0.356c-2.682-1.29-3.199-4.908-3.264-7.688
				c-0.065-2.23,0.679-5.008,2.002-6.495c1.326-1.484,3.749-2.101,6.367-2.133c2.875-0.066,5.718,0.356,7.043,2.425
				c0.712,1.129,0.842,2.778,0.842,3.843l0.032,2.166c-2.649,0-4.202,0.03-6.882,0.03c-2.198-0.03-3.458,0.064-5.622,0.133
				c-0.067,0.743-0.035,1.419,0.192,2.678c0.195,1.134,0.616,2.458,1.454,3.234c1.392,1.259,3.36,1.228,4.848,0.806
				c1.164-0.353,3.101-1.293,5.815-3.653l0.874,0.939C77.958,81.381,75.407,83.547,73.983,83.867 M74.888,72.912
				c0-1.582-0.161-2.939-1.423-3.874c-1.614-1.195-4.909-0.614-5.719,0.092c-1.389,1.196-1.551,4.042-1.582,4.463l-0.097,0.712
				c1.487,0.064,2.586,0.03,4.232,0.03c1.779,0,2.813-0.162,4.589-0.389V72.912z"/>
			<path fill="#222222" d="M95.342,83.739c-1.585-0.03-2.489,0.033-4.007,0.128l-0.064-1.422l3.264-0.225
				c0.128-2.101,0.161-3.328,0.128-5.394c-0.064-2.653,0.161-5.786-0.678-6.885c-1.001-1.359-5.041-1.518-6.012-0.615
				c-1.034,0.971-1.196,1.969-1.646,3.359c-0.324,1.004-0.583,2.972-0.583,4.883v4.618l2.941,0.258l0.033,1.422
				c-1.843-0.064-2.908-0.095-4.751-0.095c-1.584,0-2.554,0.031-4.137,0.095l-0.031-1.422l2.681-0.225
				c0.131-2.652,0.261-2.455,0.035-6.817c-0.098-2.423-0.227-3.846-0.519-6.273l-2.391-0.32l-0.128-1.129
				c1.195-0.036,1.906,0,3.101-0.1c1.033-0.032,1.681-0.032,2.714-0.064c-0.033,0.94-0.064,1.485-0.097,2.425
				c-0.032,0.645-0.096,1.065-0.096,1.682l-0.032,0.807l0.387-1.487c0.194-0.842,0.614-1.971,1.293-2.486
				c1.032-0.812,2.747-1.263,4.619-1.263c2.65-0.066,5.786,0.649,6.464,2.389c0.451,1.037-0.098,4.009-0.098,6.528
				c0.033,2.358,0.064,3.75,0.192,6.108l2.585,0.165l0.033,1.482C98.542,83.739,97.344,83.739,95.342,83.739"/>
			<path fill="#222222" d="M112.856,81.381c-0.387,0.481-1.034,1.647-2.197,2.099c-1.326,0.517-3.167,0.581-3.945,0.648
				c-0.968,0.032-2.584-0.39-2.614-1.877c-0.034-1.002,0.191-4.877,0.158-7.98c0-2.101-0.062-3.328-0.128-5.395h-2.586v-1.134h2.619
				v-3.262c0.612,0,1.035-0.03,1.68-0.097c0.742-0.034,1.195-0.095,1.94-0.162l-0.326,3.52h5.075v1.098h-4.913
				c-0.55,2.909-0.322,4.203-0.355,7.596c-0.031,2.42,0.616,5.783,1.259,5.948c0.617,0.191,2.135-0.843,3.103-1.686l0.906-0.807
				l0.87,0.743L112.856,81.381"/>
			<path fill="#222222" d="M127.073,73.271c-1.39,0.386-1.324-3.943-3.039-4.232c-0.774-0.133-2.874,2.842-3.456,5.72
				c-0.192,1.193-0.42,1.905-0.42,3.132v4.297l5.266,0.098l0.097,1.582c-2.324-0.095-3.714-0.128-6.011-0.128
				c-2.164,0-3.389,0.033-5.492,0.128v-1.482l2.909-0.229c0.097-2.684,0.097-4.298,0-6.981c-0.097-2.391-0.228-3.78-0.484-6.173
				l-2.425-0.192v-1.129c1.229-0.067,1.972-0.1,3.232-0.131c1.037-0.033,1.649-0.063,2.682-0.063
				c-0.097,1.031-0.128,1.679-0.195,2.711c-0.098,1.359-0.161,2.166-0.194,3.493l0.325-1.165c0.484-1.616,0.84-3.359,1.84-3.973
				c1.421-0.87,3.846-1.582,4.686-1.39c1.712,0.355,2.552,3.459,2.26,4.553C128.464,72.462,127.815,73.11,127.073,73.271"/>
			<path fill="#222222" d="M148.657,82.123c-0.839,0.935-1.454,1.485-2.68,1.744c-1.585,0.356-3.554,0.225-4.041-0.159
				c-0.937-0.809-0.386-1.91-0.386-3.072l0.031-1.196L141.03,80.7c-1.033,2.358-2.616,3.039-4.846,3.362
				c-1.872,0.258-3.587,0-4.749-1.004c-1.001-0.871-1.293-2.291-1.357-3.91c-0.034-1.579,0.712-3.164,2.261-3.456
				c1.974-0.356,3.298,0,5.3-0.517c1.357-0.387,2.166-0.679,3.426-1.324l-0.034-0.678c-0.03-1.231,0.292-3.425-0.84-4.332
				c-0.806-0.645-1.971-0.609-2.649-0.517c-2.164,0.258-3.068,2.747-4.202,4.106c-0.806,1.002-3.036,0.162-2.647-1.262
				c0.548-2.231,4.49-4.168,7.301-4.071c2.325,0.064,5.008,0.225,6.042,2.294c0.581,1.195,0.195,2.522,0.164,4.101
				c-0.033,1.911-0.196,2.972-0.033,4.882c0.128,1.711,0.322,4.201,0.612,4.299c0.389,0.128,1.037-0.289,1.585-0.584
				c0.84-0.386,1.293-0.647,1.969-1.228l0.778,0.809L148.657,82.123 M140.58,75.823c-0.937,0.289-1.519,0.354-2.489,0.45
				c-1.487,0.13-3.684,0.229-4.232,1.746c-0.581,1.518-0.13,4.718,1.615,4.846c1.098,0.066,2.067-0.517,3.067-1.229
				c1.263-1,2.36-2.453,2.425-4.393l0.097-1.552L140.58,75.823z"/>
			<path fill="#222222" d="M158.351,83.803c-1.905-0.064-3.037-0.064-5.006-0.064c-1.551,0-2.457,0.064-4.04,0.128l0.031-1.482
				l2.747-0.134c0.195-5.072,0.322-6.075,0.195-13.051c-0.066-3.039-0.097-4.815-0.261-7.853l-2.712-0.164v-1.129
				c1.418-0.035,2.228-0.128,3.651-0.128c1.098,0,1.713-0.066,2.811-0.13c-0.259,3.876-0.323,6.17-0.357,10.079
				c-0.033,4.752,0.034,7.529,0.29,12.248l2.683,0.289L158.351,83.803"/>
		</g>
		<g>
			<path fill="#222222" d="M66.55,92.433c-0.086,0.827-0.15,1.309-0.157,2.14c-0.006,1.173-0.042,1.751,0.008,2.858
				c-0.214-0.021-0.344-0.028-0.556-0.028c-0.209,0-0.329,0.007-0.538,0.028c-0.505-1.102-0.856-1.693-1.47-2.763
				c-0.485-0.859-0.827-1.322-1.406-2.12c-0.045,0.855-0.045,1.362-0.022,2.227c0.028,0.863,0.063,1.37,0.156,2.228l1.302,0.057
				l0.028,0.371c-0.564-0.028-0.886-0.037-1.458-0.037c-0.499,0-0.791,0.009-1.291,0.037v-0.344l0.784-0.076
				c0.066-0.871,0.089-1.385,0.1-2.259c0.008-0.886,0-1.398-0.041-2.287l-0.616-0.033l-0.006-0.373
				c0.407,0.028,0.641,0.043,1.048,0.039c0.357,0,0.572-0.011,0.922-0.039c0.436,0.921,0.713,1.46,1.207,2.342
				c0.535,0.951,0.871,1.493,1.47,2.399c-0.006-0.716-0.006-1.033-0.014-1.861c-0.007-0.957-0.059-1.513-0.095-2.474l-1.17-0.063
				l-0.007-0.333c0.513,0.033,0.82,0.033,1.349,0.042c0.421,0.008,0.672-0.013,1.092-0.042l0.008,0.326L66.55,92.433"/>
			<path fill="#222222" d="M69.563,97.403c-0.817-0.009-1.302,0.02-2.093,0.028l0.013-0.357l0.793-0.063
				c0.064-0.858,0.078-1.358,0.078-2.215c0-0.886-0.028-1.457-0.093-2.291l-0.621-0.051v-0.343c0.786,0.008,0.822,0.023,2.028,0.013
				c1.115,0,1.622-0.026,2.656-0.047l-0.013,1.905l-0.251,0.013c-0.064-0.279-0.1-0.437-0.193-0.72
				c-0.086-0.286-0.136-0.44-0.235-0.721c-0.463-0.036-1.036-0.049-1.199-0.049c-0.308,0-0.906,0.005-1.199,0.044l-0.093,0.005
				c-0.023,0.33-0.028,0.522-0.036,0.85c-0.014,0.387-0.014,0.617-0.006,0.998c0.327,0.043,0.749,0.088,1.14,0.08
				c0.33-0.008,0.959-0.028,1.558-0.136v0.491c-0.599-0.04-0.949-0.061-1.548-0.04c-0.365,0.008-0.359-0.021-0.951,0.035
				l-0.199,0.021c0,0.363-0.008,0.575,0.006,0.944c0.013,0.464,0.022,0.724,0.05,1.19c0.266,0.016,0.607,0.029,1,0.024
				c0.321,0,0.914-0.024,1.483-0.09c0.131-0.313,0.201-0.5,0.293-0.817c0.073-0.261,0.114-0.409,0.165-0.666l0.278,0.028
				l0.008,1.943C71.29,97.41,70.425,97.415,69.563,97.403"/>
			<path fill="#222222" d="M80.634,92.42c-0.309,0.927-0.457,1.463-0.701,2.427c-0.249,0.99-0.371,1.574-0.55,2.584h-0.948
				c-0.315-1.014-0.472-1.621-0.822-2.622c-0.256-0.75-0.386-1.182-0.621-1.92c-0.27,0.686-0.413,1.088-0.65,1.784
				c-0.357,1.057-0.542,1.677-0.82,2.758h-0.906c-0.201-1.181-0.344-1.849-0.631-3.004c-0.171-0.724-0.298-1.132-0.491-1.854
				l-0.035-0.114l-0.422-0.049l-0.014-0.351c0.579,0.043,0.928,0.064,1.513,0.051c0.507-0.008,0.799-0.013,1.315-0.051v0.335
				l-1.391,0.051c0.092,0.63,0.157,1.003,0.27,1.626c0.186,1.016,0.313,1.611,0.556,2.616c0.322-0.85,0.494-1.349,0.764-2.214
				c0.287-0.922,0.445-1.462,0.681-2.391h0.919c0.222,0.757,0.321,1.208,0.572,1.958c0.342,1.04,0.541,1.648,0.884,2.691
				c0.248-0.843,0.372-1.308,0.563-2.191c0.171-0.83,0.249-1.288,0.365-2.102l-1.471-0.044l-0.008-0.335
				c0.564,0.028,0.9,0.023,1.472,0.028c0.37,0.011,0.593-0.004,0.97-0.028l0.006,0.335L80.634,92.42"/>
			<path fill="#222222" d="M85.994,94.141l-0.27,0.021c-0.05-0.284-0.101-0.438-0.165-0.735c-0.072-0.33-0.144-0.53-0.244-0.857
				c-0.392-0.052-0.862-0.064-1.02-0.072c-0.315-0.021-0.899,0-1.193,0.051l-0.092,0.021c-0.028,0.315-0.036,0.498-0.045,0.812
				c-0.005,0.394-0.005,0.622,0,1.009c0.33,0.038,0.744,0.069,1.136,0.064c0.336-0.009,0.777-0.021,1.256-0.095v0.469
				c-0.479-0.044-0.735-0.075-1.249-0.052c-0.363,0.008-0.356-0.023-0.942,0.033l-0.201,0.023c0,0.364,0.009,0.571,0.023,0.935
				c0.014,0.47,0.03,0.762,0.064,1.244l1.243,0.049l-0.016,0.355c-0.562,0-0.591-0.005-1.462-0.005
				c-0.813,0-0.699,0.013-1.493,0.021l0.006-0.357l0.816-0.063c0.036-0.858,0.05-1.365,0.036-2.228
				c-0.007-0.879-0.036-1.429-0.099-2.258l-0.615-0.066v-0.335c0.806,0.009,0.878,0.03,2.078,0.025c1.121,0,1.55-0.03,2.527-0.051
				L85.994,94.141"/>
			<path fill="#222222" d="M91.532,96.96c-0.991,0.827-3.32,0.553-3.976,0.177c-0.763-0.43-0.827-1.326-0.834-2.264
				c-0.015-1.077,0.243-2.153,1.054-2.568c0.487-0.245,2.579-0.532,3.515,0.185c0.676,0.515,0.714,1.32,0.784,2.269
				C92.139,95.639,91.968,96.603,91.532,96.96 M90.419,92.574c-0.571-0.256-1.884-0.32-2.279,0.195
				c-0.404,0.535-0.535,1.607-0.512,2.063c0.028,0.528,0.148,1.785,0.584,2.069c0.501,0.331,2.015,0.38,2.422-0.027
				c0.415-0.412,0.555-1.298,0.527-2.156C91.133,93.905,90.956,92.818,90.419,92.574z"/>
			<path fill="#222222" d="M98.202,92.439L97.6,92.477l-0.012,0.22c-0.032,0.684-0.032,1.086-0.016,1.772
				c0.043,1.585,0.1,2.263-0.441,2.668c-0.737,0.543-2.586,0.358-3.052,0.182c-0.663-0.258-0.755-0.445-0.799-0.687
				c-0.023-0.171-0.028-0.964,0.008-1.602c0.028-0.418-0.021-1.439-0.021-2.355v-0.169l-0.57-0.045l-0.023-0.357
				c0.45,0.031,0.715,0.04,1.165,0.046c0.535,0,0.84-0.006,1.37-0.046l-0.008,0.336l-0.991,0.051
				c-0.131,0.757-0.166,1.213-0.159,1.979c0.015,0.899,0.072,2.105,0.294,2.288c0.556,0.466,1.976,0.594,2.507-0.069
				c0.372-0.458,0.279-1.221,0.3-2.045c0.02-0.86-0.044-1.847-0.087-2.177l-1.093-0.012l-0.005-0.351
				c0.436,0.021,0.699,0.031,1.137,0.031c0.433,0,0.681-0.009,1.12-0.031L98.202,92.439"/>
			<path fill="#222222" d="M103.99,92.433c-0.084,0.827-0.151,1.309-0.159,2.14c-0.008,1.173-0.041,1.751,0.008,2.858
				c-0.212-0.021-0.341-0.028-0.556-0.028c-0.207,0-0.327,0.007-0.537,0.028c-0.505-1.102-0.856-1.693-1.469-2.763
				c-0.487-0.859-0.83-1.322-1.406-2.12c-0.044,0.855-0.044,1.362-0.023,2.227c0.028,0.863,0.066,1.37,0.157,2.228l1.3,0.057
				l0.028,0.371c-0.563-0.028-0.886-0.037-1.456-0.037c-0.5,0-0.791,0.009-1.291,0.037v-0.344l0.783-0.076
				c0.067-0.871,0.087-1.385,0.103-2.259c0.005-0.886,0-1.398-0.044-2.287l-0.615-0.033l-0.007-0.373
				c0.407,0.028,0.642,0.043,1.05,0.039c0.358,0,0.573-0.011,0.922-0.039c0.435,0.921,0.714,1.46,1.206,2.342
				c0.537,0.951,0.87,1.493,1.472,2.399c-0.009-0.716-0.009-1.033-0.015-1.861c-0.008-0.957-0.057-1.513-0.095-2.474l-1.168-0.063
				l-0.008-0.333c0.512,0.033,0.82,0.033,1.347,0.042c0.425,0.008,0.673-0.013,1.096-0.042l0.005,0.326L103.99,92.433"/>
			<path fill="#222222" d="M109.636,97.201c-0.52,0.337-1.721,0.202-2.583,0.186c-0.829-0.015-1.285,0.044-2.092,0.044l0.006-0.357
				l0.793-0.063c0.064-0.853,0.087-1.352,0.087-2.207c0.004-0.894-0.016-1.414-0.08-2.299l-0.602-0.051v-0.343
				c0.778,0.008,0.886,0.059,1.984,0.013c0.857-0.026,1.552-0.09,2.206,0.078c0.95,0.257,1.281,0.961,1.265,2.394
				C110.598,96.422,110.15,96.873,109.636,97.201 M108.793,92.51c-0.315-0.064-1.313-0.071-1.979-0.013l-0.125,0.008
				c-0.059,0.899-0.082,1.421-0.075,2.322c0,0.84,0.023,1.331,0.075,2.166c0.232,0.039,0.598,0.051,0.978,0.059
				c0.327,0.012,1.126-0.008,1.421-0.272c0.347-0.32,0.627-0.74,0.627-2.069C109.715,93.048,109.157,92.59,108.793,92.51z"/>
			<path fill="#222222" d="M115.954,96.066c-0.008,0.528-0.016,0.834,0,1.366c-1.401-0.008-1.664-0.021-2.929-0.016
				c-0.328,0-1.085,0.008-1.777,0.016v-0.344l0.786-0.071c0.037-0.735,0.044-1.157,0.044-1.9c0-1.027-0.023-1.597-0.087-2.607
				l-0.594-0.051l0.015-0.341c0.394,0.024,0.63,0.04,1.019,0.035c0.473,0,1.057,0,1.731-0.035v0.328l-1.244,0.059
				c-0.049,1.001-0.056,1.585-0.041,2.576c0.012,0.737,0.036,1.17,0.08,1.907c0.412,0.024,0.748,0.029,1.226,0.016
				c0.392-0.016,0.627-0.035,1.014-0.071c0.107-0.346,0.164-0.551,0.251-0.899c0.071-0.311,0.115-0.494,0.163-0.807l0.372,0.013
				C115.966,95.559,115.954,95.754,115.954,96.066"/>
			<path fill="#222222" d="M122.421,97.41c-0.527-0.03-0.835-0.038-1.364-0.038c-0.563,0.008-0.891,0.022-1.449,0.059l-0.008-0.395
				l1.314-0.049l-0.7-1.549c-0.456-0.01-0.699,0-1.182,0c-0.538-0.01-0.658,0.016-1.067,0.028l-0.633,1.544l1.533,0.025
				l-0.005,0.395c-0.53-0.028-0.837-0.028-1.372-0.037c-0.451,0-0.72,0.016-1.17,0.037v-0.357l0.435-0.051
				c0.512-0.958,0.819-1.51,1.263-2.506c0.551-1.235,0.379-0.764,1.029-2.384l0.527-0.046c0.385,1.009,0.559,1.419,1.101,2.55
				c0.436,0.929,0.719,1.467,1.222,2.355l0.527,0.051V97.41 M119.464,93.894c-0.136-0.255-0.271-0.485-0.363-0.654
				c-0.192,0.307-0.299,0.494-0.464,0.811c-0.192,0.388-0.307,0.622-0.471,1.03c0.356,0.036,0.563,0.059,0.912,0.044
				c0.379-0.013,0.593-0.013,0.959-0.056C119.827,94.612,119.695,94.359,119.464,93.894z"/>
			<path fill="#222222" d="M128.261,92.433c-0.087,0.827-0.151,1.309-0.159,2.14c-0.008,1.173-0.044,1.751,0.008,2.858
				c-0.213-0.021-0.343-0.028-0.555-0.028c-0.207,0-0.331,0.007-0.538,0.028c-0.503-1.102-0.855-1.693-1.469-2.763
				c-0.486-0.859-0.83-1.322-1.405-2.12c-0.043,0.855-0.043,1.362-0.023,2.227c0.028,0.863,0.064,1.37,0.159,2.228l1.298,0.057
				l0.028,0.371c-0.563-0.028-0.886-0.037-1.457-0.037c-0.499,0-0.793,0.009-1.29,0.037v-0.344l0.784-0.076
				c0.064-0.871,0.087-1.385,0.1-2.259c0.008-0.886,0-1.398-0.044-2.287l-0.612-0.033l-0.008-0.373
				c0.408,0.028,0.643,0.043,1.05,0.039c0.355,0,0.57-0.011,0.919-0.039c0.438,0.921,0.714,1.46,1.208,2.342
				c0.535,0.951,0.871,1.493,1.472,2.399c-0.007-0.716-0.007-1.033-0.015-1.861c-0.008-0.957-0.057-1.513-0.093-2.474l-1.173-0.063
				l-0.008-0.333c0.516,0.033,0.822,0.033,1.349,0.042c0.422,0.008,0.673-0.013,1.093-0.042l0.008,0.326L128.261,92.433"/>
			<path fill="#222222" d="M133.908,97.201c-0.524,0.337-1.723,0.202-2.589,0.186c-0.826-0.015-1.285,0.044-2.091,0.044l0.007-0.357
				l0.794-0.063c0.064-0.853,0.085-1.352,0.085-2.207c0.007-0.894-0.013-1.414-0.08-2.299l-0.599-0.051v-0.343
				c0.778,0.008,0.886,0.059,1.984,0.013c0.858-0.026,1.551-0.09,2.207,0.078c0.95,0.257,1.278,0.961,1.265,2.394
				C134.868,96.422,134.418,96.873,133.908,97.201 M133.064,92.51c-0.315-0.064-1.313-0.071-1.977-0.013l-0.128,0.008
				c-0.059,0.899-0.079,1.421-0.074,2.322c0,0.84,0.023,1.331,0.074,2.166c0.236,0.039,0.599,0.051,0.975,0.059
				c0.328,0.012,1.13-0.008,1.421-0.272c0.351-0.32,0.63-0.74,0.63-2.069C133.985,93.048,133.427,92.59,133.064,92.51z"/>
		</g>
		<g>
			<path fill="#424242" d="M9.626,40.621c0,0,26.968-21.241,37.219-25.301c-3.168,13.258,11.832,23.588,34.07-1.111
				c-7.04,20.446,5.582,25.886,36.662,7.778c9.376-5.463,22.035-8.335,29.009-3.585c-7.59-7.247-17.16-6.6-27.724-1.195
				C94.241,29.802,79.174,30.167,84.34,15.213c1.617-4.68,7.453-8.774,12.051-5.647c-1.329-4.678-10.474-10.219-21.98,2.551
				c-21.685,24.069-27.232,1.786-15.751-8.775C24.733,16.383,9.626,40.621,9.626,40.621"/>
			<path fill="#B2B2B2" d="M8.917,27.047L7.62,20.09c0,0,27.462-5.329,38.592,9.908C31.908,21.13,8.917,27.047,8.917,27.047"/>
		</g>
	</g>
</g>
</svg>
