<?xml version="1.0" encoding="utf-8"?>
<!-- Generator: Adobe Illustrator 17.1.0, SVG Export Plug-In . SVG Version: 6.00 Build 0)  -->
<!DOCTYPE svg PUBLIC "-//W3C//DTD SVG 1.1//EN" "http://www.w3.org/Graphics/SVG/1.1/DTD/svg11.dtd">
<svg version="1.1" xmlns="http://www.w3.org/2000/svg" xmlns:xlink="http://www.w3.org/1999/xlink" x="0px" y="0px"
	 viewBox="0 0 179.339 100.5" enable-background="new 0 0 179.339 100.5" xml:space="preserve">
<g id="Layer_1" display="none">
	<g display="inline" opacity="0.8">
		<path fill="#231F20" d="M78.309,19.169c-1.917,0-3.411-1.54-3.411-3.411c0-1.871,1.511-3.429,3.43-3.429
			c1.917,0,3.411,1.54,3.411,3.411C81.739,17.609,80.227,19.169,78.309,19.169z M78.328,12.592c-1.796,0-3.147,1.427-3.147,3.166
			c0,1.738,1.341,3.146,3.128,3.146c1.794,0,3.146-1.427,3.146-3.164C81.455,14.001,80.113,12.592,78.328,12.592z M78.885,15.928
			l1.153,1.454h-0.529l-1.094-1.387h-1.001v1.387h-0.407v-3.456h1.549c0.735,0,1.276,0.386,1.276,1.001
			C79.83,15.493,79.442,15.824,78.885,15.928z M78.534,14.312h-1.122v1.303h1.074c0.522,0,0.918-0.225,0.918-0.67
			C79.404,14.549,79.075,14.312,78.534,14.312z"/>
	</g>
	<g display="inline" opacity="0.8">
		<path fill="#231F20" d="M166.89,19.169c-1.918,0-3.411-1.54-3.411-3.411c0-1.871,1.512-3.429,3.43-3.429
			c1.917,0,3.411,1.54,3.411,3.411C170.32,17.609,168.808,19.169,166.89,19.169z M166.909,12.592c-1.796,0-3.147,1.427-3.147,3.166
			c0,1.738,1.342,3.146,3.128,3.146c1.794,0,3.147-1.427,3.147-3.164C170.037,14.001,168.694,12.592,166.909,12.592z
			 M167.466,15.928l1.153,1.454h-0.529l-1.095-1.387h-1v1.387h-0.407v-3.456h1.548c0.735,0,1.277,0.386,1.277,1.001
			C168.412,15.493,168.023,15.824,167.466,15.928z M167.115,14.312h-1.121v1.303h1.074c0.521,0,0.916-0.225,0.916-0.67
			C167.985,14.549,167.656,14.312,167.115,14.312z"/>
	</g>
	<g display="inline" opacity="0.8">
		<path fill="#929497" d="M15.639,79.597c0,2.755-1.58,4.187-3.948,4.187c-2.335,0-3.93-1.432-3.93-4.104V74.18h1.067v5.431
			c0,2.04,1.081,3.19,2.891,3.19c1.743,0,2.852-1.057,2.852-3.121V74.18h1.068V79.597z"/>
		<path fill="#929497" d="M24.047,74.18h1.039v9.459h-0.852l-6.105-7.756v7.756h-1.04V74.18h1l5.959,7.579V74.18z"/>
		<path fill="#929497" d="M29.967,83.639h-3.284V74.18h3.284c2.972,0,5.027,2.041,5.027,4.716
			C34.994,81.571,32.939,83.639,29.967,83.639z M29.967,75.167h-2.217v7.484h2.217c2.39,0,3.917-1.623,3.917-3.73
			C33.885,76.816,32.357,75.167,29.967,75.167z"/>
		<path fill="#929497" d="M43.007,75.152h-5.766v3.231h5.16v0.972h-5.16v3.31h5.836v0.973h-6.903V74.18h6.833V75.152z"/>
		<path fill="#929497" d="M50.658,83.639l-2.743-3.677h-2.701v3.677h-1.067V74.18h4.067c2.082,0,3.419,1.121,3.419,2.824
			c0,1.582-1.083,2.5-2.57,2.771l2.907,3.864H50.658z M48.133,75.167h-2.918v3.836h2.905c1.418,0,2.431-0.729,2.431-1.957
			C50.551,75.869,49.661,75.167,48.133,75.167z"/>
		<path fill="#929497" d="M59.057,76.627l-0.784-0.569c0.851-1.271,1.742-2.013,3.404-2.013c1.717,0,2.933,1.135,2.933,2.689
			c0,1.39-0.729,2.242-2.393,3.686l-2.525,2.245h5.011v0.973h-6.605v-0.824l3.43-3.027c1.446-1.297,1.972-2.028,1.972-2.973
			c0-1.109-0.877-1.81-1.904-1.81C60.516,75.006,59.815,75.572,59.057,76.627z"/>
		<path fill="#929497" d="M69.286,83.798c-2.445,0-3.985-2.214-3.985-4.877c0-2.661,1.568-4.903,4.012-4.903
			c2.433,0,3.973,2.216,3.973,4.878C73.287,81.557,71.719,83.798,69.286,83.798z M69.286,74.992c-1.769,0-2.876,1.81-2.876,3.904
			c0,2.094,1.133,3.929,2.904,3.929c1.771,0,2.865-1.821,2.865-3.904C72.179,76.842,71.056,74.992,69.286,74.992z"/>
	</g>
	<path display="inline" opacity="0.8" fill="#231F20" d="M59.658,36.007v-5.587h3.413c6.18,0,10.695-3.091,10.695-8.954v-0.073
		c0-5.507-4.05-8.739-10.341-8.739h-10.66v8.261c-1.709-5.107-6.559-8.761-12.689-8.761c-4.215,0-7.845,1.756-10.267,4.517v-4.016
		H7.991v6.04h7.463v18.833h0.22c-2.824,1.258-5.131,3.176-7.449,5.705l7.693,5.403c3.231-3.121,5.405-4.461,8.164-4.461
		c2.761,0,4.581,1.34,4.581,3.519c0,2.082-1.468,3.718-5.285,6.245L7.991,63.851v7.235h32.533v-6.206
		c3.246,4.18,8.508,6.9,15.289,6.9c11.745,0,19.087-8.226,19.087-18.04V53.64C74.899,44.92,69.139,37.545,59.658,36.007z
		 M59.658,18.445h3.235c2.488,0,3.98,1.135,3.98,3.268v0.072c0,1.953-1.492,3.232-3.945,3.232h-3.269V18.445z M23.554,63.255
		l7.047-4.163c2.602-1.584,4.709-3.016,6.276-4.566c0.111,3.183,0.986,6.165,2.536,8.729H23.554z M39.662,43.955
		c-1.555-4.937-7.115-8.157-14.699-8.157c-0.92,0-1.787,0.039-2.616,0.108V18.694h6.01c-1.091,1.888-1.712,4.068-1.712,6.396v0.071
		c0,6.861,5.252,12.394,12.47,12.821v-6.275l-4.874,0.458l0.906-1.735l-5.286-3.881l1.409-0.787l-1.364-3.708l2.893,0.705
		l1.071-1.491l3.68,3.673l-1.948-7.058l2.306,1.319l2.115-3.802l2.1,3.802l2.35-1.319l-1.978,7.058l3.709-3.673l1.078,1.491
		l2.852-0.705l-1.368,3.708l1.457,0.787L44.89,30.43l0.951,1.735l-4.876-0.458v6.271c5.688-0.365,10.17-3.945,11.799-8.81v6.765
		C46.894,36.738,42.359,39.751,39.662,43.955z M63.448,53.838c0,5.501-2.937,9.417-7.518,9.417c-4.581,0-7.635-3.966-7.635-9.515
		V53.64c0-5.552,2.995-9.416,7.516-9.416c4.521,0,7.636,4.014,7.636,9.515V53.838z"/>
	<line display="inline" opacity="0.8" fill="#929497" x1="85.949" y1="11.785" x2="85.949" y2="83.542"/>
	<g display="inline" opacity="0.8">
		<path fill="#231F20" d="M146.434,13.014c-8.07,0-14.256,3.608-17.702,8.972c-1.696-5.365-7.743-8.864-15.99-8.864
			c-8.686,0-13.416,2.859-18.208,8.086l8.368,5.877c3.515-3.395,5.881-4.852,8.881-4.852c3.005,0,4.984,1.458,4.984,3.828
			c0,2.264-1.597,4.045-5.749,6.793L94.281,43.64v7.871h35.392V44.78c3.532,4.539,9.262,7.486,16.632,7.486
			c12.777,0,20.763-8.949,20.763-19.625v-0.109C167.068,21.858,159.147,13.014,146.434,13.014z M111.21,42.991l7.668-4.529
			c2.821-1.717,5.106-3.27,6.809-4.95c0.123,3.455,1.075,6.695,2.754,9.479H111.21z M154.613,32.748
			c0,5.985-3.195,10.244-8.178,10.244c-4.985,0-8.306-4.314-8.306-10.351v-0.109c0-6.04,3.257-10.243,8.177-10.243
			c4.918,0,8.307,4.366,8.307,10.352V32.748z"/>
		<path fill="#231F20" d="M140.615,52.893c-4.492,0-8.094,2.676-9.428,6.406c-1.239-3.588-4.69-5.939-9.863-5.939h-7.095v16.912
			l-7.204-17.043h-4.915l-7.83,18.526h5.361l1.314-3.285h7.095l1.34,3.285h4.84h0.626h6.364c5.188,0,8.672-2.426,9.942-6.028
			c1.24,3.553,4.537,6.132,8.738,6.381V67.44l-3.626,0.341l0.674-1.291l-3.934-2.887l1.049-0.586l-1.014-2.759l2.151,0.525
			l0.797-1.109l2.738,2.732l-1.449-5.25l1.718,0.98l1.571-2.828l1.562,2.828l1.749-0.98l-1.472,5.25l2.76-2.732l0.802,1.109
			l2.119-0.525l-1.017,2.759l1.086,0.586l-3.969,2.887l0.71,1.291l-3.63-0.341v4.666c5.348-0.344,9.279-4.501,9.279-9.588v-0.054
			C150.554,57.15,146.325,52.893,140.615,52.893z M102.454,64.502l2.075-5.229l2.05,5.229H102.454z M126.475,62.584
			c0,2.969-2.023,4.651-5.071,4.651h-2.076V57.88h2.076c3.047,0,5.071,1.708,5.071,4.65V62.584z"/>
		<path fill="#231F20" d="M159.752,60.298c-2.548-0.579-3.179-0.947-3.179-1.787v-0.054c0-0.656,0.606-1.182,1.84-1.182
			c1.629,0,3.469,0.63,5.15,1.813l2.55-3.6c-1.997-1.603-4.441-2.443-7.568-2.443c-4.416,0-7.121,2.47-7.121,5.886v0.052
			c0,3.785,3.021,4.888,6.937,5.781c2.495,0.577,3.1,0.999,3.1,1.761v0.052c0,0.789-0.736,1.262-2.101,1.262
			c-2.129,0-4.152-0.762-5.966-2.207l-2.838,3.39c2.26,2.023,5.361,3.047,8.619,3.047c4.466,0,7.436-2.233,7.436-5.991v-0.053
			C166.611,62.584,163.984,61.217,159.752,60.298z"/>
	</g>
	<path display="inline" opacity="0.8" fill="#929497" d="M102.669,84.214h-1.094l-1.055-2.379h-4.902l-1.069,2.379h-1.042
		l4.102-9.069h0.954L102.669,84.214z M98.075,76.329l-2.058,4.592h4.104L98.075,76.329z"/>
	<path display="inline" opacity="0.8" fill="#929497" d="M109.931,75.209h1.095l-3.873,9.069h-0.901l-3.872-9.069h1.133l3.202,7.757
		L109.931,75.209z"/>
	<path display="inline" opacity="0.8" fill="#929497" d="M119.307,76.136h-5.495v3.075h4.916v0.926h-4.916v3.151h5.558v0.926h-6.572
		v-9.005h6.509V76.136z"/>
	<path display="inline" opacity="0.8" fill="#929497" d="M125.531,84.369c-2.598,0-4.515-2.046-4.515-4.644
		c0-2.573,1.904-4.67,4.553-4.67c1.636,0,2.613,0.578,3.513,1.428l-0.696,0.747c-0.758-0.721-1.608-1.235-2.83-1.235
		c-1.994,0-3.487,1.608-3.487,3.705c0,2.096,1.505,3.73,3.487,3.73c1.235,0,2.045-0.476,2.908-1.299l0.669,0.656
		C128.194,83.74,127.165,84.369,125.531,84.369z"/>
	<path display="inline" opacity="0.8" fill="#929497" d="M141.531,77.461c0,1.184-0.721,1.788-1.429,2.097
		c1.067,0.322,1.931,0.938,1.931,2.187c0,1.556-1.301,2.47-3.269,2.47h-4v-9.005h3.833
		C140.373,75.209,141.531,76.084,141.531,77.461z M140.502,77.602c0-0.9-0.709-1.48-1.994-1.48h-2.74v3.101h2.663
		C139.652,79.223,140.502,78.67,140.502,77.602z M141.002,81.68c0-0.99-0.822-1.556-2.392-1.556h-2.843v3.177h3.023
		C140.154,83.301,141.002,82.697,141.002,81.68z"/>
	<path display="inline" opacity="0.8" fill="#929497" d="M150.249,84.214l-2.61-3.499h-2.573v3.499h-1.017v-9.005h3.872
		c1.982,0,3.256,1.068,3.256,2.689c0,1.505-1.03,2.38-2.445,2.637l2.765,3.679H150.249z M147.844,76.149h-2.779v3.654h2.765
		c1.351,0,2.316-0.696,2.316-1.866C150.146,76.818,149.298,76.149,147.844,76.149z"/>
	<path display="inline" opacity="0.8" fill="#929497" d="M154.454,75.209v9.005h-1.016v-9.005H154.454z"/>
	<path display="inline" opacity="0.8" fill="#929497" d="M161.27,84.369c-2.74,0-4.581-2.149-4.581-4.644
		c0-2.495,1.866-4.67,4.606-4.67c2.74,0,4.58,2.147,4.58,4.645C165.875,82.195,164.011,84.369,161.27,84.369z M161.27,75.995
		c-2.057,0-3.524,1.647-3.524,3.705c0,2.058,1.491,3.73,3.55,3.73c2.058,0,3.525-1.646,3.525-3.705
		C164.82,77.667,163.328,75.995,161.27,75.995z"/>
</g>
<g id="Layer_2" display="none">
	<g display="inline" opacity="0.8">
		<g>
			<path fill="#222222" d="M48.924,55.234c-1.98-0.107-3.131-0.133-5.114-0.133c-2.112,0.025-3.345,0.08-5.433,0.212l-0.027-1.469
				l4.926-0.193l-2.623-5.804c-1.714-0.027-2.624,0-4.445,0c-2.007-0.027-2.461,0.055-3.988,0.105l-2.382,5.783l5.754,0.108
				l-0.027,1.469c-1.979-0.107-3.132-0.107-5.139-0.133c-1.685,0-2.702,0.053-4.389,0.133v-1.336l1.632-0.189
				c1.927-3.587,3.08-5.671,4.74-9.394c2.058-4.63,1.419-2.864,3.853-8.942l1.98-0.158c1.447,3.773,2.089,5.299,4.123,9.554
				c1.633,3.485,2.703,5.487,4.578,8.836l1.98,0.184V55.234 M37.842,42.065c-0.509-0.964-1.016-1.82-1.366-2.463
				c-0.722,1.149-1.124,1.846-1.74,3.049c-0.722,1.448-1.149,2.33-1.767,3.858c1.339,0.133,2.115,0.213,3.427,0.161
				c1.418-0.056,2.22-0.056,3.587-0.215C39.209,44.739,38.697,43.804,37.842,42.065z"/>
			<path fill="#222222" d="M65.179,55.181c-0.965,0-1.501,0-2.543,0.053c-0.829,0.054-1.339,0.054-2.196,0.08l0.214-3.613
				l-0.774,1.741c-0.268,0.64-0.483,1.016-1.312,1.659c-0.402,0.32-3.828,0.722-5.996,0.212c-3.024-0.75-3.401-4.711-3.401-7.121
				c-0.027-1.845,0.829-4.361,1.742-5.273c1.845-1.9,6.744-1.739,8.11-0.831c0.562,0.404,0.964,1.259,1.312,2.171l0.32,0.881
				c0.055-1.981,0.055-3.157-0.027-5.111c-0.027-1.313-0.08-2.061-0.187-3.347l-2.97-0.214v-1.018
				c1.176,0.027,1.926,0.084,3.076,0.027c1.124-0.051,1.768-0.051,2.865-0.104c-0.402,4.041-0.561,6.423-0.588,10.518
				c0,3.106,0.054,4.897,0.213,7.975l2.195,0.215L65.179,55.181 M58.191,43.053c-0.883-0.667-3.774-0.667-4.951,0.215
				c-1.044,0.777-1.312,3.104-1.285,5.165c0.026,1.981,0.269,3.561,0.964,4.901c0.697,1.364,3.962,1.228,5.033,0.585
				c1.633-0.962,2.034-3.533,2.061-5.673C60.012,46.132,59.314,43.884,58.191,43.053z"/>
			<path fill="#222222" d="M80.008,42.708c-0.938,1.901-1.472,3.051-2.33,5.007c-1.23,2.888-1.927,4.631-2.943,7.599h-2.57
				c-0.964-2.705-1.608-4.28-2.784-6.905c-0.991-2.193-1.632-3.481-2.757-5.623l-1.069-0.157l-0.081-1.126
				c1.42,0.08,2.223,0.108,3.641,0.108c1.365,0,2.168-0.027,3.559-0.108v1.126l-2.702,0.157c0.695,2.091,1.177,3.347,2.009,5.407
				c0.748,1.9,1.232,2.996,2.113,4.873c1.044-2.356,1.632-3.776,2.543-6.185c0.59-1.551,0.936-2.487,1.472-4.068l-3.238-0.213
				l-0.054-1.097c1.285,0.027,2.033,0.054,3.319,0.054c1.204,0,1.9-0.027,3.079-0.054l0.052,1.097L80.008,42.708"/>
			<path fill="#222222" d="M91.279,55.314c-1.821,0.402-5.861,0.269-7.039-0.295c-2.222-1.067-2.651-4.068-2.705-6.369
				c-0.051-1.846,0.562-4.151,1.66-5.381c1.098-1.233,3.106-1.739,5.275-1.766c2.383-0.053,4.736,0.295,5.835,2.007
				c0.589,0.938,0.697,2.303,0.697,3.186l0.025,1.792c-2.195,0-3.479,0.028-5.702,0.028c-1.82-0.028-2.865,0.05-4.656,0.108
				c-0.054,0.614-0.027,1.177,0.16,2.219c0.16,0.939,0.508,2.036,1.205,2.679c1.152,1.042,2.785,1.018,4.014,0.67
				c0.966-0.294,2.571-1.072,4.821-3.026l0.721,0.779C94.571,53.252,92.459,55.047,91.279,55.314 M92.029,46.24
				c0-1.313-0.133-2.436-1.175-3.212c-1.341-0.992-4.07-0.509-4.741,0.082c-1.149,0.989-1.284,3.345-1.312,3.694l-0.078,0.585
				c1.232,0.054,2.139,0.028,3.507,0.028c1.469,0,2.327-0.133,3.799-0.322V46.24z"/>
			<path fill="#222222" d="M109.777,55.206c-1.311-0.025-2.061,0.028-3.318,0.107l-0.055-1.178l2.702-0.184
				c0.107-1.741,0.136-2.763,0.107-4.47c-0.054-2.197,0.135-4.792-0.561-5.704c-0.829-1.126-4.175-1.259-4.979-0.509
				c-0.855,0.803-0.991,1.634-1.365,2.784c-0.265,0.828-0.481,2.463-0.481,4.04v3.827l2.435,0.215l0.028,1.178
				c-1.526-0.054-2.409-0.08-3.935-0.08c-1.314,0-2.115,0.026-3.428,0.08l-0.023-1.178l2.22-0.184
				c0.107-2.197,0.215-2.035,0.025-5.653c-0.08-2.004-0.187-3.181-0.428-5.189l-1.978-0.268l-0.107-0.938
				c0.99-0.027,1.58,0,2.57-0.081c0.855-0.026,1.39-0.026,2.248-0.054c-0.028,0.778-0.057,1.231-0.079,2.008
				c-0.029,0.536-0.082,0.885-0.082,1.393l-0.026,0.668l0.32-1.231c0.162-0.697,0.51-1.631,1.071-2.06
				c0.855-0.67,2.275-1.045,3.827-1.045c2.194-0.053,4.792,0.533,5.356,1.98c0.374,0.858-0.082,3.322-0.082,5.407
				c0.026,1.953,0.053,3.105,0.159,5.062l2.143,0.131l0.028,1.232C112.426,55.206,111.438,55.206,109.777,55.206"/>
			<path fill="#222222" d="M124.259,53.252c-0.323,0.4-0.857,1.366-1.82,1.741c-1.099,0.428-2.624,0.481-3.264,0.536
				c-0.804,0.027-2.143-0.323-2.171-1.552c-0.026-0.829,0.161-4.045,0.136-6.613c0-1.741-0.054-2.756-0.108-4.468h-2.144v-0.941
				h2.172v-2.701c0.504,0,0.855-0.027,1.39-0.081c0.617-0.027,0.991-0.08,1.605-0.134l-0.268,2.915h4.204v0.911h-4.068
				c-0.455,2.409-0.269,3.481-0.294,6.292c-0.026,2.008,0.509,4.793,1.044,4.924c0.509,0.164,1.767-0.693,2.57-1.388l0.748-0.673
				l0.724,0.618L124.259,53.252"/>
			<path fill="#222222" d="M139.036,55.288c-0.778,0-1.259,0.053-2.01,0.107c0.08-0.937,0.162-1.475,0.215-2.408
				c0.026-0.723,0.054-1.15,0.08-1.875l-0.428,1.367c-0.348,1.173-0.936,2.084-1.954,2.568c-1.205,0.561-4.042,0.668-5.596,0.348
				c-1.311-0.268-2.621-1.149-2.568-2.569c0.055-2.543,0.187-2.461,0.187-5.246c0-1.767-0.107-2.784-0.269-4.526l-1.953-0.157
				l-0.053-0.964c0.882,0,1.392,0.023,2.302,0c1.151-0.054,1.794-0.027,2.918-0.081c-0.32,2.06-0.349,3.077-0.401,5.378
				c-0.08,2.01,0.028,5.087,0.427,5.812c0.885,1.633,3.776,1.553,4.765,0.56c1.5-1.501,1.661-3.159,1.876-5.325
				c0.159-1.766,0.105-3.802-0.189-5.248l-2.355-0.186v-0.964c1.152,0,1.846,0,3.023-0.027c0.965-0.027,1.554-0.053,2.517-0.106
				c-0.187,2.49-0.292,3.72-0.187,6.449c0.108,2.222,0.133,3.536,0.402,5.727l1.875,0.19v1.179
				C140.642,55.26,140.05,55.26,139.036,55.288"/>
			<path fill="#222222" d="M153.409,46.535c-1.15,0.323-1.096-3.266-2.516-3.507c-0.642-0.108-2.381,2.357-2.865,4.738
				c-0.159,0.991-0.348,1.578-0.348,2.598v3.556l4.363,0.08l0.081,1.313c-1.925-0.08-3.078-0.107-4.98-0.107
				c-1.792,0-2.809,0.028-4.55,0.107v-1.232l2.41-0.184c0.082-2.223,0.082-3.564,0-5.781c-0.08-1.984-0.187-3.136-0.4-5.116
				l-2.01-0.158v-0.938c1.017-0.054,1.634-0.081,2.679-0.107c0.855-0.027,1.365-0.053,2.222-0.053
				c-0.082,0.855-0.108,1.39-0.161,2.248c-0.082,1.125-0.136,1.792-0.161,2.889l0.268-0.963c0.402-1.336,0.693-2.783,1.526-3.289
				c1.175-0.724,3.185-1.314,3.879-1.152c1.42,0.294,2.117,2.864,1.874,3.775C154.562,45.866,154.027,46.401,153.409,46.535"/>
			<path fill="#222222" d="M165.616,55.314c-1.82,0.402-5.863,0.269-7.04-0.295c-2.223-1.067-2.65-4.068-2.704-6.369
				c-0.053-1.846,0.563-4.151,1.66-5.381c1.097-1.233,3.105-1.739,5.274-1.766c2.381-0.053,4.74,0.295,5.834,2.007
				c0.589,0.938,0.697,2.303,0.697,3.186l0.028,1.792c-2.197,0-3.482,0.028-5.701,0.028c-1.82-0.028-2.865,0.05-4.66,0.108
				c-0.054,0.614-0.026,1.177,0.161,2.219c0.161,0.939,0.51,2.036,1.206,2.679c1.15,1.042,2.783,1.018,4.014,0.67
				c0.963-0.294,2.57-1.072,4.818-3.026l0.722,0.779C168.909,53.252,166.794,55.047,165.616,55.314 M166.366,46.24
				c0-1.313-0.135-2.436-1.18-3.212c-1.336-0.992-4.068-0.509-4.737,0.082c-1.149,0.989-1.285,3.345-1.311,3.694l-0.082,0.585
				c1.232,0.054,2.143,0.028,3.508,0.028c1.471,0,2.33-0.133,3.801-0.322V46.24z"/>
		</g>
		<g>
			<path fill="#222222" d="M57.6,82.577c-2.521,1.002-4.134,1.421-6.882,1.516c-3.908,0.097-7.592-0.421-9.145-1.455
				c-3.134-2.129-3.554-6.008-3.681-10.175c-0.129-3.944,0.871-7.981,2.713-9.791c2.327-2.327,5.397-2.652,7.949-2.908
				c3.555-0.325,6.334-0.162,9.177,0.163l1.13,0.093c-0.193,1.554-0.292,2.458-0.418,4.009c-0.131,1.874-0.228,2.972-0.291,4.848
				l-1.423,0.061l-0.194-0.903c-0.485-2.23-1.034-5.428-1.422-5.717c-1.066-0.809-4.619-1.487-6.816-1.295
				c-3.136,0.227-3.846,1.035-4.654,2.036c-1.485,1.843-2.002,6.656-1.68,10.243c0.225,2.264,0.321,4.913,1.487,6.915
				c1.033,1.808,3.745,2.683,6.365,2.458c1.679-0.164,3.813-0.584,4.556-0.97c1.003-0.487,2.876-3.554,4.361-6.045l0.388-0.678
				l1.26,0.617L57.6,82.577"/>
			<path fill="#222222" d="M73.983,83.867c-2.196,0.486-7.076,0.323-8.497-0.356c-2.682-1.29-3.199-4.908-3.264-7.688
				c-0.065-2.23,0.679-5.008,2.002-6.495c1.326-1.484,3.749-2.101,6.367-2.133c2.875-0.066,5.718,0.356,7.043,2.425
				c0.712,1.129,0.842,2.778,0.842,3.843l0.032,2.166c-2.649,0-4.202,0.03-6.882,0.03c-2.198-0.03-3.458,0.064-5.622,0.133
				c-0.067,0.743-0.035,1.419,0.192,2.678c0.195,1.134,0.616,2.458,1.454,3.234c1.392,1.259,3.36,1.228,4.848,0.806
				c1.164-0.353,3.101-1.293,5.815-3.653l0.874,0.939C77.958,81.381,75.407,83.547,73.983,83.867 M74.888,72.912
				c0-1.582-0.161-2.939-1.423-3.874c-1.614-1.195-4.909-0.614-5.719,0.092c-1.389,1.196-1.551,4.042-1.582,4.463l-0.097,0.712
				c1.487,0.064,2.586,0.03,4.232,0.03c1.779,0,2.813-0.162,4.589-0.389V72.912z"/>
			<path fill="#222222" d="M95.342,83.739c-1.585-0.03-2.489,0.033-4.007,0.128l-0.064-1.422l3.264-0.225
				c0.128-2.101,0.161-3.328,0.128-5.394c-0.064-2.653,0.161-5.786-0.678-6.885c-1.001-1.359-5.041-1.518-6.012-0.615
				c-1.034,0.971-1.196,1.969-1.646,3.359c-0.324,1.004-0.583,2.972-0.583,4.883v4.618l2.941,0.258l0.033,1.422
				c-1.843-0.064-2.908-0.095-4.751-0.095c-1.584,0-2.554,0.031-4.137,0.095l-0.031-1.422l2.681-0.225
				c0.131-2.652,0.261-2.455,0.035-6.817c-0.098-2.423-0.227-3.846-0.519-6.273l-2.391-0.32l-0.128-1.129
				c1.195-0.036,1.906,0,3.101-0.1c1.033-0.032,1.681-0.032,2.714-0.064c-0.033,0.94-0.064,1.485-0.097,2.425
				c-0.032,0.645-0.096,1.065-0.096,1.682l-0.032,0.807l0.387-1.487c0.194-0.842,0.614-1.971,1.293-2.486
				c1.032-0.812,2.747-1.263,4.619-1.263c2.65-0.066,5.786,0.649,6.464,2.389c0.451,1.037-0.098,4.009-0.098,6.528
				c0.033,2.358,0.064,3.75,0.192,6.108l2.585,0.165l0.033,1.482C98.542,83.739,97.344,83.739,95.342,83.739"/>
			<path fill="#222222" d="M112.856,81.381c-0.387,0.481-1.034,1.647-2.197,2.099c-1.326,0.517-3.167,0.581-3.945,0.648
				c-0.968,0.032-2.584-0.39-2.614-1.877c-0.034-1.002,0.191-4.877,0.158-7.98c0-2.101-0.062-3.328-0.128-5.395h-2.586v-1.134h2.619
				v-3.262c0.612,0,1.035-0.03,1.68-0.097c0.742-0.034,1.195-0.095,1.94-0.162l-0.326,3.52h5.075v1.098h-4.913
				c-0.55,2.909-0.322,4.203-0.355,7.596c-0.031,2.42,0.616,5.783,1.259,5.948c0.617,0.191,2.135-0.843,3.103-1.686l0.906-0.807
				l0.87,0.743L112.856,81.381"/>
			<path fill="#222222" d="M127.073,73.271c-1.39,0.386-1.324-3.943-3.039-4.232c-0.774-0.133-2.874,2.842-3.456,5.72
				c-0.192,1.193-0.42,1.905-0.42,3.132v4.297l5.266,0.098l0.097,1.582c-2.324-0.095-3.714-0.128-6.011-0.128
				c-2.164,0-3.389,0.033-5.492,0.128v-1.482l2.909-0.229c0.097-2.684,0.097-4.298,0-6.981c-0.097-2.391-0.228-3.78-0.484-6.173
				l-2.425-0.192v-1.129c1.229-0.067,1.972-0.1,3.232-0.131c1.037-0.033,1.649-0.063,2.682-0.063
				c-0.097,1.031-0.128,1.679-0.195,2.711c-0.098,1.359-0.161,2.166-0.194,3.493l0.325-1.165c0.484-1.616,0.84-3.359,1.84-3.973
				c1.421-0.87,3.846-1.582,4.686-1.39c1.712,0.355,2.552,3.459,2.26,4.553C128.464,72.462,127.815,73.11,127.073,73.271"/>
			<path fill="#222222" d="M148.657,82.123c-0.839,0.935-1.454,1.485-2.68,1.744c-1.585,0.356-3.554,0.225-4.041-0.159
				c-0.937-0.809-0.386-1.91-0.386-3.072l0.031-1.196L141.03,80.7c-1.033,2.358-2.616,3.039-4.846,3.362
				c-1.872,0.258-3.587,0-4.749-1.004c-1.001-0.871-1.293-2.291-1.357-3.91c-0.034-1.579,0.712-3.164,2.261-3.456
				c1.974-0.356,3.298,0,5.3-0.517c1.357-0.387,2.166-0.679,3.426-1.324l-0.034-0.678c-0.03-1.231,0.292-3.425-0.84-4.332
				c-0.806-0.645-1.971-0.609-2.649-0.517c-2.164,0.258-3.068,2.747-4.202,4.106c-0.806,1.002-3.036,0.162-2.647-1.262
				c0.548-2.231,4.49-4.168,7.301-4.071c2.325,0.064,5.008,0.225,6.042,2.294c0.581,1.195,0.195,2.522,0.164,4.101
				c-0.033,1.911-0.196,2.972-0.033,4.882c0.128,1.711,0.322,4.201,0.612,4.299c0.389,0.128,1.037-0.289,1.585-0.584
				c0.84-0.386,1.293-0.647,1.969-1.228l0.778,0.809L148.657,82.123 M140.58,75.823c-0.937,0.289-1.519,0.354-2.489,0.45
				c-1.487,0.13-3.684,0.229-4.232,1.746c-0.581,1.518-0.13,4.718,1.615,4.846c1.098,0.066,2.067-0.517,3.067-1.229
				c1.263-1,2.36-2.453,2.425-4.393l0.097-1.552L140.58,75.823z"/>
			<path fill="#222222" d="M158.351,83.803c-1.905-0.064-3.037-0.064-5.006-0.064c-1.551,0-2.457,0.064-4.04,0.128l0.031-1.482
				l2.747-0.134c0.195-5.072,0.322-6.075,0.195-13.051c-0.066-3.039-0.097-4.815-0.261-7.853l-2.712-0.164v-1.129
				c1.418-0.035,2.228-0.128,3.651-0.128c1.098,0,1.713-0.066,2.811-0.13c-0.259,3.876-0.323,6.17-0.357,10.079
				c-0.033,4.752,0.034,7.529,0.29,12.248l2.683,0.289L158.351,83.803"/>
		</g>
		<g>
			<path fill="#222222" d="M66.55,92.433c-0.086,0.827-0.15,1.309-0.157,2.14c-0.006,1.173-0.042,1.751,0.008,2.858
				c-0.214-0.021-0.344-0.028-0.556-0.028c-0.209,0-0.329,0.007-0.538,0.028c-0.505-1.102-0.856-1.693-1.47-2.763
				c-0.485-0.859-0.827-1.322-1.406-2.12c-0.045,0.855-0.045,1.362-0.022,2.227c0.028,0.863,0.063,1.37,0.156,2.228l1.302,0.057
				l0.028,0.371c-0.564-0.028-0.886-0.037-1.458-0.037c-0.499,0-0.791,0.009-1.291,0.037v-0.344l0.784-0.076
				c0.066-0.871,0.089-1.385,0.1-2.259c0.008-0.886,0-1.398-0.041-2.287l-0.616-0.033l-0.006-0.373
				c0.407,0.028,0.641,0.043,1.048,0.039c0.357,0,0.572-0.011,0.922-0.039c0.436,0.921,0.713,1.46,1.207,2.342
				c0.535,0.951,0.871,1.493,1.47,2.399c-0.006-0.716-0.006-1.033-0.014-1.861c-0.007-0.957-0.059-1.513-0.095-2.474l-1.17-0.063
				l-0.007-0.333c0.513,0.033,0.82,0.033,1.349,0.042c0.421,0.008,0.672-0.013,1.092-0.042l0.008,0.326L66.55,92.433"/>
			<path fill="#222222" d="M69.563,97.403c-0.817-0.009-1.302,0.02-2.093,0.028l0.013-0.357l0.793-0.063
				c0.064-0.858,0.078-1.358,0.078-2.215c0-0.886-0.028-1.457-0.093-2.291l-0.621-0.051v-0.343c0.786,0.008,0.822,0.023,2.028,0.013
				c1.115,0,1.622-0.026,2.656-0.047l-0.013,1.905l-0.251,0.013c-0.064-0.279-0.1-0.437-0.193-0.72
				c-0.086-0.286-0.136-0.44-0.235-0.721c-0.463-0.036-1.036-0.049-1.199-0.049c-0.308,0-0.906,0.005-1.199,0.044l-0.093,0.005
				c-0.023,0.33-0.028,0.522-0.036,0.85c-0.014,0.387-0.014,0.617-0.006,0.998c0.327,0.043,0.749,0.088,1.14,0.08
				c0.33-0.008,0.959-0.028,1.558-0.136v0.491c-0.599-0.04-0.949-0.061-1.548-0.04c-0.365,0.008-0.359-0.021-0.951,0.035
				l-0.199,0.021c0,0.363-0.008,0.575,0.006,0.944c0.013,0.464,0.022,0.724,0.05,1.19c0.266,0.016,0.607,0.029,1,0.024
				c0.321,0,0.914-0.024,1.483-0.09c0.131-0.313,0.201-0.5,0.293-0.817c0.073-0.261,0.114-0.409,0.165-0.666l0.278,0.028
				l0.008,1.943C71.29,97.41,70.425,97.415,69.563,97.403"/>
			<path fill="#222222" d="M80.634,92.42c-0.309,0.927-0.457,1.463-0.701,2.427c-0.249,0.99-0.371,1.574-0.55,2.584h-0.948
				c-0.315-1.014-0.472-1.621-0.822-2.622c-0.256-0.75-0.386-1.182-0.621-1.92c-0.27,0.686-0.413,1.088-0.65,1.784
				c-0.357,1.057-0.542,1.677-0.82,2.758h-0.906c-0.201-1.181-0.344-1.849-0.631-3.004c-0.171-0.724-0.298-1.132-0.491-1.854
				l-0.035-0.114l-0.422-0.049l-0.014-0.351c0.579,0.043,0.928,0.064,1.513,0.051c0.507-0.008,0.799-0.013,1.315-0.051v0.335
				l-1.391,0.051c0.092,0.63,0.157,1.003,0.27,1.626c0.186,1.016,0.313,1.611,0.556,2.616c0.322-0.85,0.494-1.349,0.764-2.214
				c0.287-0.922,0.445-1.462,0.681-2.391h0.919c0.222,0.757,0.321,1.208,0.572,1.958c0.342,1.04,0.541,1.648,0.884,2.691
				c0.248-0.843,0.372-1.308,0.563-2.191c0.171-0.83,0.249-1.288,0.365-2.102l-1.471-0.044l-0.008-0.335
				c0.564,0.028,0.9,0.023,1.472,0.028c0.37,0.011,0.593-0.004,0.97-0.028l0.006,0.335L80.634,92.42"/>
			<path fill="#222222" d="M85.994,94.141l-0.27,0.021c-0.05-0.284-0.101-0.438-0.165-0.735c-0.072-0.33-0.144-0.53-0.244-0.857
				c-0.392-0.052-0.862-0.064-1.02-0.072c-0.315-0.021-0.899,0-1.193,0.051l-0.092,0.021c-0.028,0.315-0.036,0.498-0.045,0.812
				c-0.005,0.394-0.005,0.622,0,1.009c0.33,0.038,0.744,0.069,1.136,0.064c0.336-0.009,0.777-0.021,1.256-0.095v0.469
				c-0.479-0.044-0.735-0.075-1.249-0.052c-0.363,0.008-0.356-0.023-0.942,0.033l-0.201,0.023c0,0.364,0.009,0.571,0.023,0.935
				c0.014,0.47,0.03,0.762,0.064,1.244l1.243,0.049l-0.016,0.355c-0.562,0-0.591-0.005-1.462-0.005
				c-0.813,0-0.699,0.013-1.493,0.021l0.006-0.357l0.816-0.063c0.036-0.858,0.05-1.365,0.036-2.228
				c-0.007-0.879-0.036-1.429-0.099-2.258l-0.615-0.066v-0.335c0.806,0.009,0.878,0.03,2.078,0.025c1.121,0,1.55-0.03,2.527-0.051
				L85.994,94.141"/>
			<path fill="#222222" d="M91.532,96.96c-0.991,0.827-3.32,0.553-3.976,0.177c-0.763-0.43-0.827-1.326-0.834-2.264
				c-0.015-1.077,0.243-2.153,1.054-2.568c0.487-0.245,2.579-0.532,3.515,0.185c0.676,0.515,0.714,1.32,0.784,2.269
				C92.139,95.639,91.968,96.603,91.532,96.96 M90.419,92.574c-0.571-0.256-1.884-0.32-2.279,0.195
				c-0.404,0.535-0.535,1.607-0.512,2.063c0.028,0.528,0.148,1.785,0.584,2.069c0.501,0.331,2.015,0.38,2.422-0.027
				c0.415-0.412,0.555-1.298,0.527-2.156C91.133,93.905,90.956,92.818,90.419,92.574z"/>
			<path fill="#222222" d="M98.202,92.439L97.6,92.477l-0.012,0.22c-0.032,0.684-0.032,1.086-0.016,1.772
				c0.043,1.585,0.1,2.263-0.441,2.668c-0.737,0.543-2.586,0.358-3.052,0.182c-0.663-0.258-0.755-0.445-0.799-0.687
				c-0.023-0.171-0.028-0.964,0.008-1.602c0.028-0.418-0.021-1.439-0.021-2.355v-0.169l-0.57-0.045l-0.023-0.357
				c0.45,0.031,0.715,0.04,1.165,0.046c0.535,0,0.84-0.006,1.37-0.046l-0.008,0.336l-0.991,0.051
				c-0.131,0.757-0.166,1.213-0.159,1.979c0.015,0.899,0.072,2.105,0.294,2.288c0.556,0.466,1.976,0.594,2.507-0.069
				c0.372-0.458,0.279-1.221,0.3-2.045c0.02-0.86-0.044-1.847-0.087-2.177l-1.093-0.012l-0.005-0.351
				c0.436,0.021,0.699,0.031,1.137,0.031c0.433,0,0.681-0.009,1.12-0.031L98.202,92.439"/>
			<path fill="#222222" d="M103.99,92.433c-0.084,0.827-0.151,1.309-0.159,2.14c-0.008,1.173-0.041,1.751,0.008,2.858
				c-0.212-0.021-0.341-0.028-0.556-0.028c-0.207,0-0.327,0.007-0.537,0.028c-0.505-1.102-0.856-1.693-1.469-2.763
				c-0.487-0.859-0.83-1.322-1.406-2.12c-0.044,0.855-0.044,1.362-0.023,2.227c0.028,0.863,0.066,1.37,0.157,2.228l1.3,0.057
				l0.028,0.371c-0.563-0.028-0.886-0.037-1.456-0.037c-0.5,0-0.791,0.009-1.291,0.037v-0.344l0.783-0.076
				c0.067-0.871,0.087-1.385,0.103-2.259c0.005-0.886,0-1.398-0.044-2.287l-0.615-0.033l-0.007-0.373
				c0.407,0.028,0.642,0.043,1.05,0.039c0.358,0,0.573-0.011,0.922-0.039c0.435,0.921,0.714,1.46,1.206,2.342
				c0.537,0.951,0.87,1.493,1.472,2.399c-0.009-0.716-0.009-1.033-0.015-1.861c-0.008-0.957-0.057-1.513-0.095-2.474l-1.168-0.063
				l-0.008-0.333c0.512,0.033,0.82,0.033,1.347,0.042c0.425,0.008,0.673-0.013,1.096-0.042l0.005,0.326L103.99,92.433"/>
			<path fill="#222222" d="M109.636,97.201c-0.52,0.337-1.721,0.202-2.583,0.186c-0.829-0.015-1.285,0.044-2.092,0.044l0.006-0.357
				l0.793-0.063c0.064-0.853,0.087-1.352,0.087-2.207c0.004-0.894-0.016-1.414-0.08-2.299l-0.602-0.051v-0.343
				c0.778,0.008,0.886,0.059,1.984,0.013c0.857-0.026,1.552-0.09,2.206,0.078c0.95,0.257,1.281,0.961,1.265,2.394
				C110.598,96.422,110.15,96.873,109.636,97.201 M108.793,92.51c-0.315-0.064-1.313-0.071-1.979-0.013l-0.125,0.008
				c-0.059,0.899-0.082,1.421-0.075,2.322c0,0.84,0.023,1.331,0.075,2.166c0.232,0.039,0.598,0.051,0.978,0.059
				c0.327,0.012,1.126-0.008,1.421-0.272c0.347-0.32,0.627-0.74,0.627-2.069C109.715,93.048,109.157,92.59,108.793,92.51z"/>
			<path fill="#222222" d="M115.954,96.066c-0.008,0.528-0.016,0.834,0,1.366c-1.401-0.008-1.664-0.021-2.929-0.016
				c-0.328,0-1.085,0.008-1.777,0.016v-0.344l0.786-0.071c0.037-0.735,0.044-1.157,0.044-1.9c0-1.027-0.023-1.597-0.087-2.607
				l-0.594-0.051l0.015-0.341c0.394,0.024,0.63,0.04,1.019,0.035c0.473,0,1.057,0,1.731-0.035v0.328l-1.244,0.059
				c-0.049,1.001-0.056,1.585-0.041,2.576c0.012,0.737,0.036,1.17,0.08,1.907c0.412,0.024,0.748,0.029,1.226,0.016
				c0.392-0.016,0.627-0.035,1.014-0.071c0.107-0.346,0.164-0.551,0.251-0.899c0.071-0.311,0.115-0.494,0.163-0.807l0.372,0.013
				C115.966,95.559,115.954,95.754,115.954,96.066"/>
			<path fill="#222222" d="M122.421,97.41c-0.527-0.03-0.835-0.038-1.364-0.038c-0.563,0.008-0.891,0.022-1.449,0.059l-0.008-0.395
				l1.314-0.049l-0.7-1.549c-0.456-0.01-0.699,0-1.182,0c-0.538-0.01-0.658,0.016-1.067,0.028l-0.633,1.544l1.533,0.025
				l-0.005,0.395c-0.53-0.028-0.837-0.028-1.372-0.037c-0.451,0-0.72,0.016-1.17,0.037v-0.357l0.435-0.051
				c0.512-0.958,0.819-1.51,1.263-2.506c0.551-1.235,0.379-0.764,1.029-2.384l0.527-0.046c0.385,1.009,0.559,1.419,1.101,2.55
				c0.436,0.929,0.719,1.467,1.222,2.355l0.527,0.051V97.41 M119.464,93.894c-0.136-0.255-0.271-0.485-0.363-0.654
				c-0.192,0.307-0.299,0.494-0.464,0.811c-0.192,0.388-0.307,0.622-0.471,1.03c0.356,0.036,0.563,0.059,0.912,0.044
				c0.379-0.013,0.593-0.013,0.959-0.056C119.827,94.612,119.695,94.359,119.464,93.894z"/>
			<path fill="#222222" d="M128.261,92.433c-0.087,0.827-0.151,1.309-0.159,2.14c-0.008,1.173-0.044,1.751,0.008,2.858
				c-0.213-0.021-0.343-0.028-0.555-0.028c-0.207,0-0.331,0.007-0.538,0.028c-0.503-1.102-0.855-1.693-1.469-2.763
				c-0.486-0.859-0.83-1.322-1.405-2.12c-0.043,0.855-0.043,1.362-0.023,2.227c0.028,0.863,0.064,1.37,0.159,2.228l1.298,0.057
				l0.028,0.371c-0.563-0.028-0.886-0.037-1.457-0.037c-0.499,0-0.793,0.009-1.29,0.037v-0.344l0.784-0.076
				c0.064-0.871,0.087-1.385,0.1-2.259c0.008-0.886,0-1.398-0.044-2.287l-0.612-0.033l-0.008-0.373
				c0.408,0.028,0.643,0.043,1.05,0.039c0.355,0,0.57-0.011,0.919-0.039c0.438,0.921,0.714,1.46,1.208,2.342
				c0.535,0.951,0.871,1.493,1.472,2.399c-0.007-0.716-0.007-1.033-0.015-1.861c-0.008-0.957-0.057-1.513-0.093-2.474l-1.173-0.063
				l-0.008-0.333c0.516,0.033,0.822,0.033,1.349,0.042c0.422,0.008,0.673-0.013,1.093-0.042l0.008,0.326L128.261,92.433"/>
			<path fill="#222222" d="M133.908,97.201c-0.524,0.337-1.723,0.202-2.589,0.186c-0.826-0.015-1.285,0.044-2.091,0.044l0.007-0.357
				l0.794-0.063c0.064-0.853,0.085-1.352,0.085-2.207c0.007-0.894-0.013-1.414-0.08-2.299l-0.599-0.051v-0.343
				c0.778,0.008,0.886,0.059,1.984,0.013c0.858-0.026,1.551-0.09,2.207,0.078c0.95,0.257,1.278,0.961,1.265,2.394
				C134.868,96.422,134.418,96.873,133.908,97.201 M133.064,92.51c-0.315-0.064-1.313-0.071-1.977-0.013l-0.128,0.008
				c-0.059,0.899-0.079,1.421-0.074,2.322c0,0.84,0.023,1.331,0.074,2.166c0.236,0.039,0.599,0.051,0.975,0.059
				c0.328,0.012,1.13-0.008,1.421-0.272c0.351-0.32,0.63-0.74,0.63-2.069C133.985,93.048,133.427,92.59,133.064,92.51z"/>
		</g>
		<g>
			<path fill="#424242" d="M9.626,40.621c0,0,26.968-21.241,37.219-25.301c-3.168,13.258,11.832,23.588,34.07-1.111
				c-7.04,20.446,5.582,25.886,36.662,7.778c9.376-5.463,22.035-8.335,29.009-3.585c-7.59-7.247-17.16-6.6-27.724-1.195
				C94.241,29.802,79.174,30.167,84.34,15.213c1.617-4.68,7.453-8.774,12.051-5.647c-1.329-4.678-10.474-10.219-21.98,2.551
				c-21.685,24.069-27.232,1.786-15.751-8.775C24.733,16.383,9.626,40.621,9.626,40.621"/>
			<path fill="#B2B2B2" d="M8.917,27.047L7.62,20.09c0,0,27.462-5.329,38.592,9.908C31.908,21.13,8.917,27.047,8.917,27.047"/>
		</g>
	</g>
</g>
<g id="Layer_3">
	<g opacity="0.8">
		<path fill="#FEFEFE" d="M115.817,95.434c-8.607,0-17.213,0-25.82,0c0.112-0.627,0.67-0.6,1.095-0.688
			c1.311-0.273,2.478-0.817,3.535-1.639c0.796-0.619,1.066-0.584,1.501,0.326c0.461,0.965,1.158,1.219,2.178,1.267
			c3.271,0.153,6.537-0.067,9.805-0.024c0.494,0.007,1-0.041,1.485,0.217c-1.582-0.522-1.722-1.856-1.744-3.194
			c-0.046-2.842-0.013-5.684-0.015-8.526c-0.002-2.113,0.013-4.227-0.006-6.34c-0.011-1.122-0.181-1.25-1.316-1.108
			c-0.904,0.113-1.806,0.237-2.711,0.337c-0.345,0.038-0.694,0.016-1.019,0.034c0.995,0.182,1.509,0.856,1.711,1.812
			c0.174,0.821,0.272,1.65,0.269,2.494c-0.01,3.389-0.007,6.778-0.002,10.166c0.001,0.732-0.066,1.454-0.204,2.172
			c-0.269,1.401-0.787,1.962-1.968,2.119c-1.471,0.196-2.538-0.317-3.108-1.497c-0.309-0.638-0.396-1.319-0.397-2.02
			c-0.004-1.968,0.017-3.936-0.007-5.903c-0.039-3.198-1.352-4.487-4.544-4.566c-2.781-0.069-5.539,0.013-8.217,0.879
			c-0.138,0.045,0.019-0.036-0.103,0.032c-0.6,0.331-1.497-0.288-1.892,0.468c-0.295,0.565-0.183,1.287-0.325,1.928
			c-0.032,0.142-0.048,0.287-0.076,0.428c-0.051,0.275-0.16,0.531-0.289,0.78c-0.032,0.062-0.064,0.124-0.106,0.18
			c0.241,0.062,0.071-0.183,0.171-0.23c1.747-2.586,4.415-3.283,7.286-3.534c0.986-0.086,1.962,0.024,2.899,0.393
			c0.765,0.301,1.266,0.833,1.513,1.612c0.427,1.346,0.049,1.987-1.34,2.244c-2.435,0.451-4.882,0.845-7.23,1.67
			c-1.037,0.364-2.036,0.814-2.898,1.5c-0.991,0.788-1.655,1.799-1.438,3.114c0.207,1.255,1.178,1.829,2.282,2.271
			c0.523,0.21,1.288,0.046,1.507,0.826c-2.553,0-5.106,0-7.658,0c-0.077-0.086-0.131-0.184-0.163-0.294
			c0.086-1.39,1.026-2.477,1.321-3.895c-1.843,2.224-4.234,3.121-6.992,2.921c-2.927-0.212-5.332-1.434-6.783-4.12
			c-0.698-1.292-0.472-1.748,0.96-2.046c3.817-0.794,7.625-1.63,11.438-2.445c1.389-0.297,1.443-0.497,0.552-1.657
			c-1.348-1.753-3.229-2.651-5.328-2.933c-2.578-0.347-5.174-0.299-7.604,0.873c-2.141,1.033-3.701,2.573-4.191,4.989
			c-0.489,2.414,0.485,4.267,2.318,5.742c1.421,1.144,3.109,1.723,4.844,2.197c0.408,0.112,0.99,0.025,1.095,0.668
			c-11.416,0-22.832,0.003-34.247-0.016c-0.265,0-0.868,0.351-0.762-0.422c0.171-0.142,0.36-0.263,0.586-0.269
			c2.581-0.07,5.163-0.186,7.75,0.107c-1.054-0.094-1.582-0.776-1.863-1.717c-0.157-0.528-0.234-1.067-0.237-1.617
			c-0.012-2.478-0.021-4.957,0.003-7.435c0.013-1.396,0.263-1.639,1.688-1.65c2.806-0.021,5.613-0.021,8.419,0
			c1.441,0.011,1.692,0.249,1.703,1.635c0.023,2.733,0.04,5.467-0.007,8.2c-0.029,1.682-0.585,2.359-2.026,2.632
			c2.429-0.407,4.869-0.161,7.029-0.2c-0.594-0.183-0.998-0.859-1.192-1.679c-0.193-0.816-0.31-1.645-0.308-2.49
			c0.005-3.353,0.003-6.706,0.001-10.059c0-0.77,0.097-1.527,0.255-2.277c0.2-0.948,0.706-1.648,1.446-1.933
			c-2.086,0.094-4.366,0.056-6.527,0.022c1.205,0.927,1.811,3.075,1.228,4.601c-0.191,0.501-0.587,0.635-1.037,0.644
			c-3.17,0.06-6.341,0.054-9.511,0.003c-0.497-0.008-0.983-0.158-1.07-0.738c-0.185-1.239-0.226-2.477,0.423-3.619
			c0.301-0.528,0.741-0.895,1.376-0.942c-2.476,0.117-4.956,0.102-7.436,0.028c-0.264-0.008-0.494-0.113-0.694-0.285
			c0-23.17,0.004-46.34-0.017-69.51c-0.001-0.737,0.088-0.976,0.928-0.973C47.353,5.516,58.72,5.503,70.086,5.503
			c-0.039,0.567-0.538,0.547-0.884,0.612c-2.253,0.424-4.49,0.888-6.517,2.026c-0.411,0.231-0.729-0.169-1.154-0.085
			c-1.763,0.349-2.363,1.225-2.26,3.039c0.357,6.297,0.141,12.6,0.116,18.901c0,0.105-0.004,0.219-0.029,0.258
			c0.23-1.058,0.943-1.852,1.854-2.472c0.646-0.44,0.955-0.967,0.763-1.756c-0.078-0.318-0.07-0.653-0.025-0.98
			c0.103-0.748,0.4-1.348,1.258-1.404c0.868-0.057,1.347,0.447,1.588,1.219c0.159,0.507,0.076,1.01-0.09,1.503
			c-0.114,0.337-0.167,0.681,0.267,0.802c0.403,0.113,0.499-0.231,0.55-0.514c0.453-2.51,2.044-4.123,4.172-5.31
			c0.712-0.397,0.951-0.923,0.688-1.724c-0.27-0.825-0.168-1.658,0.164-2.459c0.423-1.019,1.036-1.459,1.974-1.42
			c1.069,0.045,1.874,0.664,2.206,1.649c0.31,0.919,0.177,1.819-0.161,2.673c-0.281,0.709-0.069,1.068,0.572,1.376
			c0.787,0.378,1.561,0.795,2.279,1.296c0.511,0.357,0.622,0.18,0.74-0.369c0.348-1.616,0-3.194-0.171-4.78
			c-0.122-1.13-0.195-2.263-0.012-3.378c0.239-1.456-0.018-2.825-0.492-4.181c-0.084-0.241-0.176-0.479-0.271-0.715
			c-0.244-0.604-0.281-1.715-0.623-1.762c-0.902-0.123-1.778-0.565-2.721-0.398c-1.465,0.26-2.283-0.721-3.125-1.648
			c6.71,0,13.42,0,20.131,0c-0.092,0.594-0.622,0.573-1.005,0.621c-1.821,0.229-3.519,0.867-5.189,1.56
			c-0.89,0.369-1.854,0.188-2.741,0.602c-0.661,0.309-0.966,0.696-1.001,1.381c-0.024,0.473-0.026,0.946-0.026,1.419
			c-0.002,8.99,0.003,17.981-0.004,26.971c0,0.582,0.033,1.165-0.061,1.742c-0.126,0.473-0.237,0.95-0.193,1.447
			c0.003,0.032,0.029,0.062,0.045,0.092c0.025-0.018,0.05-0.036,0.076-0.066c0.188-0.283,0.202-0.826,0.676-0.677
			c0.313,0.099,0.288,0.536,0.288,0.865c0,1.042,0.128,2.086-0.044,3.119c-0.003,0.055-0.005,0.086-0.005,0.086
			c-0.019,0.111-0.017,0.124,0.008,0.025c0.1-0.946,0.268-1.853,0.264-2.815c-0.004-0.971,0.491-1.972,0.786-3.124
			c0.235,0.362,2.132,1.337,2.36,1.386c0.659,0.14,0.954,0.607,1.068,1.228c-0.028,0.18-0.129,0.299-0.298,0.361
			c-2.611,0.119-2.611,0.119-2.398,2.648c0.009,0.109-0.005,0.218-0.027,0.324c-0.008,0.068-0.016,0.138-0.015,0.207
			c0.003,0.116,0.019,0.136,0.043,0.049c0.725-0.379,1.738-0.144,2.156,0.533c0.286,0.463,0.394,0.979,1.179,0.483
			c0.341-0.216,1.074,0.034,1.525,0.276c0.553,0.296,1.016,0.344,1.53,0.021c0.436-0.273,0.809-0.171,1.203,0.12
			c0.584,0.432,1.209,0.619,1.944,0.302c0.698-0.301,1.327,0.22,2.005,0.293c1.247,0.135,1.539,0.052,2.047-1.045
			c0.354-0.765,0.815-1.378,1.805-1.217c0.425,0.069,0.565-0.27,0.696-0.568c0.345-0.784,0.532-1.591,0.239-2.443
			c-0.023-0.116-0.033-0.23-0.038-0.347c-0.61-3.167,0.222-6.302,0.208-9.456c-0.01-2.225-0.582-4.412-0.438-6.631
			c0.199-3.055,0.336-6.097-0.21-9.131c-0.058-0.32-0.026-0.658,0.041-0.978c0.519-2.503-0.169-4.828-1.022-7.135
			c-0.257-0.695-0.843-0.884-1.451-0.96c-0.644-0.081-1.295-0.141-1.957-0.089c-1.011,0.08-1.658-0.41-2.1-1.479
			c6.637,0,13.274,0,19.912,0c-0.082,0.588-0.599,0.596-0.986,0.643c-1.896,0.23-3.645,0.933-5.396,1.625
			c-0.331,0.131-0.63,0.049-0.94,0.076c-1.419,0.123-2.555,0.428-2.599,2.24c-0.061,2.507-0.18,5.016,0.08,7.519
			c0.06,0.581,0.087,1.16,0.083,1.742c-0.036,6.181,0.02,12.362,0.014,18.544c0,0.35-0.24,0.789,0.203,1.064
			c0.14-0.052,0.261-0.131,0.385-0.209c2.168-1.377,4.504-2.214,7.097-2.243c0.853-0.01,1.668,0.177,2.458,0.465
			c1.046,0.381,1.192,0.748,0.695,1.722c-0.266,0.521-0.524,1.041-0.67,1.61c-0.166,0.646,0.077,0.99,0.746,1.005
			c2.445,0.055,4.765-0.529,7.026-1.396c0.449-0.172,0.682-0.509,0.644-1.024c-0.128-1.722,0.277-3.404,0.426-5.105
			c0.164-1.867-0.108-3.689-0.282-5.471c-0.331-0.148-0.456,0.025-0.569,0.146c-2.171,2.33-7.774,1.522-9.453-0.705
			c-2.031-2.693-2.541-6.317,0.052-9.082c0.93-0.992,1.964-1.816,3.182-2.453c2.23-1.167,4.283-0.833,6.321,0.584
			c0.298-0.465,0.12-0.928,0.158-1.351c-0.267-0.27-0.497,0.014-0.735-0.008c-0.733-0.068-0.976-0.393-0.72-1.096
			c0.25-0.686,0.614-1.323,1.024-1.927c0.4-0.589,0.474-1.204,0.241-1.871c-0.132-0.378-0.25-0.762-0.377-1.142
			c-0.719-2.162-1.399-2.612-3.697-2.448c-1.087,0.078-1.726-0.34-2.222-1.451c9.546,0,19.092,0.011,28.638-0.019
			c0.853-0.003,1.152,0.086,1.151,1.085c-0.037,29.403-0.03,58.806-0.03,88.209c-1.428,0.193-2.157-0.255-2.55-1.561
			c-0.16-0.531-0.175-1.077-0.176-1.625c-0.004-2.224,0-4.449-0.002-6.673c0-0.585-0.034-1.165-0.21-1.73
			c-0.446-1.438-1.474-2.183-2.969-2.317c-2.759-0.248-5.161,0.66-7.42,2.125c-0.447,0.289-0.91,0.841-1.45,0.586
			c-0.621-0.292-0.405-1.028-0.414-1.587c-0.026-1.714,0.006-3.428-0.015-5.142c-0.014-1.125-0.185-1.254-1.309-1.13
			c-1.149,0.127-2.297,0.269-3.493,0.384c1.28,0.542,1.5,1.614,1.505,2.785c0.015,3.792,0.006,7.585,0.004,11.377
			c0,0.838,0.054,1.68-0.048,2.514c-0.119,0.973-0.524,1.742-1.365,1.947c1.938-0.106,4.086-0.069,6.111-0.015
			c-0.838-0.243-1.213-1.027-1.296-1.89c-0.192-1.996-0.286-4.021,0.021-6c0.408-2.631,3.903-4.974,6.528-4.543
			c1.545,0.254,2.441,1.162,2.49,2.721c0.08,2.514,0.081,5.033-0.002,7.547c-0.047,1.413-0.603,2.021-1.726,2.263
			c2.515-0.18,5.157-0.35,7.785,0.182c0.137,0.545-0.256,0.436-0.547,0.436c-2.443,0.002-4.887,0.001-7.33,0.001
			c-5.689,0-11.378,0-17.067,0c-0.002-0.55,0.477-0.5,0.772-0.523c1.181-0.091,1.9-0.715,2.277-1.797
			c0.111-0.174,0.257-0.322,0.422-0.554c-0.23,0.252-0.407,0.446-0.641,0.578c-0.968,0.556-1.997,0.886-3.124,0.841
			c-1.461-0.058-2.289-0.725-2.667-2.125c-0.153-0.568-0.195-1.146-0.195-1.731c0-2.076-0.006-4.152,0.002-6.227
			c0.006-1.735,0.159-1.888,1.85-1.901c0.655-0.005,1.311-0.016,1.966,0.031c0.253,0.018,0.513,0.055,0.744-0.092
			c0.157-0.099,0.302-0.234,0.277-0.433c-0.032-0.253-0.26-0.217-0.429-0.212c-0.838,0.023-1.675,0.02-2.513,0.014
			c-1.743-0.011-1.882-0.148-1.896-1.849c-0.007-0.801-0.001-1.602-0.004-2.403c-0.002-0.567-0.213-0.776-0.813-0.64
			c-1.399,0.316-1.571,0.545-1.677,1.992c-0.118,1.604-0.892,2.821-2.37,3.546c1.711,0.157,1.762,0.209,1.767,1.978
			c0.006,2.476,0.043,4.954-0.014,7.429c-0.034,1.49,0.436,2.625,1.769,3.363C115.528,94.866,115.867,95.012,115.817,95.434z"/>
		<path fill="#BBBCBE" d="M114.942,5.503c0.35,0.313,0.72,0.607,1.044,0.944c0.284,0.296,0.543,0.354,0.963,0.26
			c0.948-0.213,1.841,0.127,2.77,0.308c0.852,0.166,0.8,0.672,1.02,1.148c0.061,0.131,0.074,0.284,0.138,0.414
			c0.888,1.804,1.171,3.549-0.32,5.231c-0.268,0.302-0.738,0.863-0.369,1.232c0.523,0.522,1.027-0.026,1.51-0.56
			c0,1.082,0,1.973,0,3.076c-1.334-1.201-2.737-1.841-4.429-1.765c-2.296,0.103-5.767,2.791-6.676,5.242
			c-0.829,2.237-0.008,5.317,1.891,7.086c2.104,1.96,6.547,1.953,8.656-0.015c0.207-0.194,0.417-0.385,0.715-0.661
			c0.625,2.931,0.582,5.76,0.229,8.597c-0.125,1.001-0.367,1.992-0.157,3.011c0.103,0.5-0.091,0.821-0.579,1.016
			c-2.453,0.982-4.98,1.583-7.638,1.563c-0.87-0.007-1.088-0.484-0.879-1.22c0.168-0.591,0.347-1.177,0.679-1.717
			c0.666-1.08,0.639-1.108-0.607-1.522c-2.555-0.849-4.953-0.203-7.303,0.794c-0.698,0.296-1.359,0.68-2.037,1.024
			c-0.203-0.357-0.063-0.747-0.105-1.119c-0.023-0.684,0.049-1.371-0.042-2.053c0.079,0.685,0.015,1.374,0.036,2.061
			c-0.05,0.439,0.112,0.895-0.108,1.32c-0.167,0.195-0.374,0.429-0.623,0.338c-0.268-0.097-0.056-0.382-0.056-0.577
			c-0.003-5.094,0.032-10.188,0.003-15.282c-0.024-4.278-0.122-8.556-0.178-12.834c-0.005-0.397,0.125-0.804,0.071-1.189
			c-0.201-1.428,1.113-1.584,1.875-2.119c0.146-0.103,0.749,0.101,0.915-0.649c0.328,0.738,0.396,0.819,1.087,0.533
			c0.854-0.354,1.715-0.836,2.654-1.061c1.219-0.292,2.506-0.299,3.663-0.854C113.483,5.503,114.213,5.503,114.942,5.503z"/>
		<path fill="#57595B" d="M81.497,44.878c0-1.365,0-2.73,0-4.095c-0.054-0.016-0.108-0.032-0.162-0.048
			c-0.183,0.425-0.367,0.85-0.55,1.275c-0.608-0.588-0.222-1.289-0.221-1.946c0.156-9.833-0.014-19.666-0.026-29.499
			c-0.001-0.399,0.005-0.802,0.063-1.195c0.156-1.063,1.005-1.712,2.147-1.657c0.102,0.005,0.176,0.064,0.244-0.061
			c0.592-1.087,0.629,0.228,1.031,0.223c0.141-1.088,1.181-0.421,1.656-0.808c1.116-0.911,2.498-0.797,3.751-1.168
			c0.479-0.142,1.023-0.047,1.443-0.394c0.656,0,1.313,0,1.969,0c0.02,0.031,0.039,0.062,0.06,0.092
			c1.013,1.412,2.608,0.909,3.96,1.194c0.819,0.172,1.5,0.258,1.89,1.298c0.905,2.409,1.204,4.811,1.009,7.376
			c-0.179,2.35,0.546,4.709,0.258,7.081c-0.378,3.105,0.203,6.177,0.265,9.265c0.037,1.827-0.089,3.642-0.388,5.442
			c-0.244,1.468,0.323,2.895,0.165,4.354c-0.238,0.116-0.462,0.012-0.589-0.149c-0.722-0.917-1.598-0.722-2.563-0.492
			c-1.187,0.283-2.333,0.835-3.606,0.682c-0.102-0.039-0.195-0.093-0.283-0.158c-0.228-0.225-0.401-0.499-0.643-0.713
			c-0.458-0.534-0.998-0.606-1.664-0.405c-1.176,0.355-2.344,0.744-3.536,1.044c-0.376,0.094-0.755,0.307-1.135,0.006
			c-0.634-1.124-0.634-1.124-3.001-0.291c-0.032-0.653-0.063-1.284-0.094-1.915c-0.093,0.947-0.559,1.817-0.569,2.768
			c-0.011,1.065-0.29,2.079-0.507,3.107C81.634,45.223,81.584,45.018,81.497,44.878z"/>
		<path fill="#BBBCBE" d="M70.742,5.503c0.658,0.363,1.365,0.652,1.843,1.279c0.251,0.329,0.559,0.173,0.89,0.107
			c0.923-0.184,1.786,0.203,2.672,0.324c0.973,0.133,0.9,0.785,1.12,1.329c0.828,2.041,1.387,4.108,0.956,6.362
			c-0.262,1.368,0.012,2.773,0.239,4.121c0.255,1.512-0.036,2.964-0.069,4.552c-1.489-0.808-2.906-1.576-4.322-2.346
			c-0.438-0.238-0.102-0.506,0.002-0.73c0.44-0.943,0.669-1.889,0.409-2.946c-0.263-1.068-0.992-1.464-1.973-1.558
			c-1.048-0.101-1.478,0.588-1.771,1.44c-0.27,0.786-0.325,1.587,0.003,2.35c0.379,0.882-0.005,1.352-0.738,1.748
			c-1.061,0.573-2.071,1.232-2.853,2.166c-0.966,1.154-1.313,2.564-1.49,3.994c-0.346,0.079-0.548-0.114-0.783-0.194
			c-0.569-0.195-0.983-0.405-0.502-1.122c0.259-0.386,0.314-0.902,0.188-1.377c-0.182-0.691-0.55-1.195-1.368-1.141
			c-0.835,0.056-1.127,0.725-0.963,1.304c0.469,1.652-0.25,2.616-1.549,3.454c-0.857,0.553-1.064,1.586-1.553,2.474
			c0-2.089,0.002-4.178,0-6.267c-0.004-4.082-0.017-8.163-0.012-12.245c0.001-1.08-0.173-2.137-0.03-3.248
			c0.167-1.296,1.349-0.967,1.899-1.567c0.303,0.356,0.469,0.154,0.618-0.147c0.031-0.063,0.091-0.113,0.137-0.168
			c0.78,1.013,1.537-0.068,2.192-0.195c0.843-0.163,1.666-0.709,2.596-0.905c1.19-0.251,2.444-0.263,3.556-0.847
			C70.305,5.503,70.524,5.503,70.742,5.503z"/>
		<path fill="#57595B" d="M83.623,84.899c0.014-0.255,0.014-0.511,0.044-0.764c0.091-0.759,0.086-1.552,0.316-2.267
			c0.368-1.14,1.227-0.06,1.905-0.29c2.921-0.988,5.957-1.322,9.05-1.052c3.196,0.279,4.452,1.619,4.466,4.86
			c0.009,2.078-0.017,4.157,0.009,6.235c0.021,1.689,0.642,2.58,2.01,3.008c1.334,0.418,2.532-0.281,2.784-1.644
			c0.079-0.428,0.131-0.868,0.132-1.303c0.01-4.12,0.032-8.24-0.005-12.36c-0.02-2.193-0.326-2.565-2.19-3.201
			c0.438-0.203,5.299-0.943,5.68-0.892c0.529,0.071,0.359,0.476,0.362,0.761c0.015,1.823,0.008,3.646,0.008,5.469
			c0,3.427-0.006,6.855,0.003,10.282c0.005,1.968,0.352,2.486,2.119,3.217c-0.122,0.052-0.206,0.118-0.29,0.118
			c-4.193,0.008-8.386,0.034-12.579,0c-1.4-0.012-1.433-1.316-1.963-2.335c-1.428,1.692-3.505,2.09-5.486,2.694
			c-0.219,0-0.438,0-0.656,0c-0.875-0.186-1.75-0.186-2.626,0c-0.146,0-0.292,0-0.438,0c-0.703-0.252-1.427-0.457-2.104-0.766
			c-2.383-1.087-2.777-3.491-0.875-5.304c1.05-1.001,2.363-1.552,3.708-2.02c2.415-0.84,4.932-1.24,7.439-1.668
			c0.64-0.109,0.843-0.322,0.818-0.965c-0.054-1.356-0.587-2.179-1.919-2.394c-3.805-0.614-7.152,0.208-9.681,3.341
			C83.49,85.414,83.524,85.158,83.623,84.899z"/>
		<path fill="#57595B" d="M35.076,75.96c2.963,0,5.926,0,9.073,0c-2.345,1.263-2.733,2.073-2.488,4.691
			c0.046,0.496,0.241,0.601,0.675,0.6c3.282-0.009,6.564-0.015,9.845,0.005c0.551,0.003,0.705-0.22,0.658-0.713
			c-0.021-0.217-0.007-0.437-0.002-0.656c0.039-1.744,0.038-3.463-2.342-3.685c0.175-0.351,0.377-0.272,0.533-0.273
			c2.793-0.006,5.586-0.004,8.409-0.004c-0.086,0.449-0.396,0.385-0.616,0.442c-1.053,0.274-1.591,0.965-1.666,2.032
			c-0.222,3.132-0.055,6.268-0.1,9.401c-0.018,1.276-0.013,2.553,0.007,3.829c0.025,1.621,0.44,2.98,2.342,3.363
			c-2.94,0-5.881,0-8.833,0c0.046-0.368,0.384-0.242,0.578-0.291c1.02-0.257,1.614-0.918,1.631-1.932
			c0.055-3.171,0.036-6.344,0.06-9.516c0.003-0.442-0.195-0.553-0.594-0.552c-3.318,0.008-6.637,0.01-9.955-0.002
			c-0.479-0.002-0.625,0.187-0.623,0.649c0.018,2.917-0.01,5.834,0.029,8.751c0.02,1.495,0.691,2.555,2.346,2.856
			c-3.042,0.086-6.003,0.244-8.967,0.039c0-0.073,0-0.146,0-0.219c0.211-0.205,0.449-0.367,0.718-0.488
			c0.944-0.423,1.343-1.198,1.35-2.186c0.031-4.333,0.033-8.665-0.001-12.998c-0.008-1.086-0.363-2.007-1.479-2.449
			c-0.244-0.096-0.411-0.296-0.588-0.478C35.076,76.106,35.076,76.033,35.076,75.96z"/>
		<path fill="#57595B" d="M144.7,94.997c-2.762,0.224-5.526,0.013-8.4,0.007c2.308-0.547,2.096-2.304,2.092-3.962
			c-0.005-1.859,0.021-3.719-0.008-5.578c-0.035-2.241-1.291-3.228-3.512-2.807c-3.457,0.655-5.017,2.529-5.016,6.025
			c0,0.948,0.012,1.896-0.003,2.844c-0.025,1.572,0.109,3.038,2.046,3.501c-2.701,0-5.401,0-8.102,0
			c2.302-0.482,2.128-2.258,2.125-3.958c-0.008-3.828-0.002-7.657-0.003-11.485c0-2.477-0.044-2.548-2.363-3.64
			c2.021-0.241,3.86-0.443,5.694-0.687c0.783-0.104,0.598,0.436,0.6,0.827c0.011,2.442,0.006,4.883,0.006,7.337
			c0.496,0.084,0.738-0.306,1.049-0.514c2.221-1.485,4.572-2.54,7.326-2.451c2.658,0.086,3.985,1.312,4.052,3.956
			c0.065,2.587,0.021,5.177,0.051,7.765c0.02,1.769,0.687,2.478,2.367,2.601C144.7,94.851,144.7,94.924,144.7,94.997z"/>
		<path fill="#57595B" d="M70.086,95.434c-0.847-0.516-1.854-0.513-2.76-0.86c-1.336-0.512-2.619-1.105-3.709-2.041
			c-2.987-2.565-2.975-6.852,0.009-9.471c3.549-3.115,9.992-3.53,13.905-0.9c0.987,0.663,1.768,1.51,2.322,2.563
			c0.256,0.486,0.331,0.764-0.422,0.918c-4.275,0.875-8.529,1.854-12.806,2.72c-0.886,0.179-0.843,0.495-0.575,1.155
			c1.311,3.232,5.742,5.172,9.514,4.124c1.693-0.47,3.167-1.285,4.17-2.797c0.131-0.197,0.207-0.496,0.713-0.382
			c-0.621,1.583-1.234,3.148-1.848,4.712c-1.157,0.132-2.337-0.043-3.481,0.259c-0.365,0-0.729,0-1.094,0
			c-0.365-0.178-0.729-0.178-1.094,0C71.982,95.434,71.034,95.434,70.086,95.434z"/>
		<path fill="#57595B" d="M123.073,93.096c-0.356,1.453-1.317,2.108-2.777,2.121c-0.196,0.002-0.445-0.061-0.541,0.217
			c-0.292,0-0.583,0-0.875,0c-0.875-0.186-1.75-0.186-2.626,0c-0.146,0-0.292,0-0.438,0c-0.37-0.488-1.03-0.459-1.472-0.846
			c-0.764-0.668-1.156-1.501-1.172-2.488c-0.044-2.803-0.115-5.608-0.045-8.409c0.029-1.146-0.289-1.583-1.424-1.395
			c-0.317,0.053-0.65,0.008-0.985,0.008c-0.038-0.575,0.444-0.449,0.684-0.554c1.77-0.775,2.6-2.2,2.282-4.1
			c-0.091-0.545-0.039-0.833,0.561-1.052c2.767-1.009,2.758-1.032,2.759,1.878c0,2.515,0,2.502,2.559,2.522
			c0.863,0.007,1.718-0.062,2.723-0.235c-0.271,0.556-0.486,0.97-0.676,1.394c-0.146,0.326-0.331,0.376-0.685,0.281
			c-1.069-0.289-2.172-0.057-3.257-0.14c-0.55-0.042-0.674,0.205-0.671,0.702c0.017,2.731-0.029,5.464,0.024,8.194
			c0.035,1.792,0.803,2.44,2.614,2.466c1.132,0.016,2.133-0.37,3.101-0.896C122.998,92.724,123.145,92.798,123.073,93.096z"/>
		<path fill="#FEFEFE" d="M35.076,76.179c2.021,0.621,2.405,1.141,2.406,3.285c0.002,4.185,0.008,8.369-0.003,12.554
			c-0.005,1.788-0.602,2.452-2.403,2.76C35.076,88.578,35.076,82.379,35.076,76.179z"/>
		<path fill="#E9E9EA" d="M75.119,95.434c1.13-0.494,2.301-0.444,3.481-0.259c0.007,0.086,0.013,0.172,0.02,0.259
			C77.453,95.434,76.286,95.434,75.119,95.434z"/>
		<path fill="#838486" d="M86.716,95.434c0.875-0.349,1.75-0.348,2.626,0C88.466,95.434,87.591,95.434,86.716,95.434z"/>
		<path fill="#828385" d="M116.255,95.434c0.875-0.351,1.75-0.347,2.626,0C118.005,95.434,117.13,95.434,116.255,95.434z"/>
		<path fill="#7D7E80" d="M72.931,95.434c0.365-0.314,0.729-0.333,1.094,0C73.66,95.434,73.295,95.434,72.931,95.434z"/>
		<path fill="#BBBCBE" d="M59.133,39.624c0-2.04,0-4.081,0-6.138c0.507-0.055,0.606,0.814,1.102,0.476
			c0.466-0.317,0.448-0.882,0.411-1.399c-0.062-0.874,0.061-1.686,0.814-2.252c0.372-0.279,0.635-0.395,0.767,0.302
			c0.495,2.601-0.16,5.134-0.365,7.69c-0.059,0.736-0.137,1.442,0.135,2.147c0.131,0.341,0.366,0.577,0.72,0.575
			c0.329-0.002,0.469-0.298,0.579-0.578c0.339-0.864,0.267-1.792,0.408-2.687c0.164-1.037,0.191-2.096,0.299-3.401
			c0.717,1.291,0.888,2.53,1.247,3.695c0.243,0.79,0.613,1.473,1.213,2.035c0.267,0.25,0.55,0.575,0.943,0.378
			c0.467-0.234,0.303-0.717,0.214-1.075c-0.149-0.597-0.387-1.174-0.608-1.752c-0.837-2.177-1.472-4.412-1.896-6.705
			c-0.063-0.338-0.233-0.826,0.119-1.003c0.38-0.192,0.585,0.307,0.841,0.536c0.161,0.144,0.29,0.326,0.423,0.499
			c0.322,0.419,0.736,1.236,1.135,0.9c0.396-0.334,0.956-0.985,0.729-1.81c-0.256-0.928-0.684-1.831-0.319-2.869
			c0.308-0.873,0.799-1.436,1.753-1.633c0.635,2.91-0.069,5.719-0.464,8.537c-0.191,1.364-0.502,2.712-0.739,4.07
			c-0.141,0.806-0.013,1.601,0.226,2.371c0.129,0.416,0.314,0.825,0.864,0.862c0.571,0.039,0.87-0.291,1.083-0.75
			c0.513-1.105,0.566-2.323,0.839-3.486c0.339-1.447,0.624-2.906,0.976-4.564c0.604,1.424,0.695,2.769,0.993,4.058
			c0.335,1.443,0.832,2.794,1.9,3.863c0.415,0.415,0.893,0.838,1.536,0.552c0.62-0.275,0.547-0.891,0.525-1.435
			c-0.068-1.701-0.803-3.236-1.253-4.839c-0.748-2.667-1.25-5.374-1.571-8.118c-0.142-1.214,0.168-1.351,1.337-1.018
			c1.944,0.555,2.518,1.822,2.627,3.742c0.149,2.628,0.137,5.219-0.253,7.821c-0.299,1.997,0.398,3.974,0.23,5.98
			c-0.05,0.595-0.125,1.152-0.501,1.638c-0.25,0.323-0.33,0.742-0.981,0.399c-0.411-0.217-1.032,0.13-1.272,0.686
			c-0.821,1.904-1.665,2.214-3.569,1.275c-0.247-0.122-0.445-0.429-0.764-0.145c-0.891,0.793-1.607,0.216-2.287-0.334
			c-0.182-0.148-0.275-0.313-0.524-0.177c-0.742,0.404-1.486,0.898-2.222-0.011c-0.595,0.522-0.843-0.07-1.158-0.426
			c-0.203,0.326-0.374,0.599-0.577,0.924c-0.459-0.226-0.528-0.711-0.814-1.005c-0.274-0.281-0.217-1.295-1.05-0.41
			c-0.27,0.287-0.297-0.481-0.628-0.559c-0.115,0.244-0.233,0.494-0.35,0.744c-0.068-0.002-0.136-0.003-0.204-0.005
			c0-0.514,0-1.028,0-1.543c-0.359-0.384-0.305-0.864-0.307-1.331c-0.001-0.505-0.025-1.011,0.007-1.514
			c0.03-0.471-0.183-0.923-0.088-1.396c-0.054,0.253-0.022,0.536-0.236,0.736c-0.207,1.7-0.401,3.402-1.161,5.011
			c0-1.745,0-3.49,0-5.509c-0.266,0.764-0.442,1.269-0.618,1.773C58.732,41.275,59.108,40.434,59.133,39.624z"/>
		<path fill="#57595B" d="M93.025,41.37c0.101,0.015,0.203,0.03,0.304,0.045c0.01,0.142-0.058,0.243-0.161,0.315
			c0.539,0.229,1.015-0.094,1.519-0.155c1.153-0.058,2.288-0.293,3.446-0.297c0.706-0.002,1.362,0.106,1.925,0.563
			c0.439,1.14,0.053,2.133-0.576,3.066c-0.116,0.172-0.214,0.426-0.593,0.264c-0.806-0.346-1.328,0.011-1.586,0.818
			c-0.43,1.346-0.881,1.413-2.258,1.286c-0.809-0.075-1.664-0.998-2.606-0.057c-0.167,0.167-1.248-0.084-1.615-0.714
			c-0.172-0.295-0.293-0.316-0.588-0.163c-0.68,0.353-1.388,1.006-2.079,0.002c-0.536,0.371-0.933,0.189-1.255-0.471
			c-0.239,0.397-0.411,0.683-0.594,0.987c-0.513-0.271-0.56-0.807-0.867-1.138c-0.231-0.249-0.252-1.243-0.946-0.291
			c-0.225,0.309-0.312-0.184-0.444-0.346c-0.506-0.619-0.3,0.102-0.414,0.224c-0.442,0.126-0.232-0.317-0.386-0.442
			c0.006-0.792-0.304-1.541-0.276-2.347c0.018-0.529,0.157-0.795,0.692-0.837c0.738-0.058,1.461-0.421,2.215-0.094
			c1.399,0.056,2.71-0.474,4.08-0.618c0.684-0.072,1.351-0.303,2.052-0.232C92.405,40.862,92.807,40.97,93.025,41.37z"/>
		<path fill="#BBBCBE" d="M105.081,40.296c1.783-1.177,3.914-1.674,6.418-1.472c-0.352,0.824-0.963,1.538-0.844,2.507
			c0.26,2.105,2.205,2.951,4.251,2.79c2.567-0.202,4.961-0.996,7.197-2.5c0.126,1.021,0.199,1.906-0.249,2.684
			c-0.246,0.426-0.35,1.318-1.325,0.731c-0.165-0.099-1.021,0.194-1.224,0.898c-0.406,1.407-0.844,1.411-2.246,1.325
			c-0.799-0.049-1.626-0.987-2.558-0.049c-0.262,0.264-1.203-0.103-1.535-0.543c-0.4-0.531-0.68-0.348-1.074-0.132
			c-0.568,0.311-1.14,0.561-1.655-0.096c-0.554,0.456-1.315-0.922-1.827,0.223c-0.13,0.29-0.382-0.009-0.491-0.169
			c-0.245-0.36-0.44-0.755-0.689-1.112c-0.096-0.138-0.221-0.542-0.445-0.25c-0.655,0.856-0.627-0.242-0.951-0.297
			c-0.132,0.32-0.263,0.64-0.482,1.172c-0.027-0.605-0.044-0.967-0.06-1.33C104.821,43.235,104.957,41.765,105.081,40.296z"/>
		<path fill="#BBBCBE" d="M120.639,19.938c0.578,0.925,1.168,1.871,1.298,2.963c0.28,2.357-1.262,4.092-3.713,4.281
			c-1.146,0.088-2.249-0.131-3.289-0.591c-1.834-0.811-2.719-2.305-2.631-4.33c0.075-1.716,1.382-3.395,2.957-4.076
			c1.815-0.786,3.311-0.321,4.705,0.894C120.418,19.187,120.531,19.56,120.639,19.938z"/>
		<path fill="#57595B" d="M55.332,64.669c0-2.004,0.019-4.008-0.011-6.012c-0.01-0.659,0.11-0.983,0.883-0.969
			c2.404,0.046,4.809,0.028,7.214,0.01c0.554-0.004,0.872,0.074,0.875,0.756c0.003,0.685-0.239,0.868-0.892,0.854
			c-1.675-0.038-3.352,0.011-5.028-0.025c-0.611-0.013-0.842,0.16-0.807,0.793c0.049,0.872,0.056,1.751-0.002,2.622
			c-0.049,0.742,0.161,1.025,0.954,0.993c1.528-0.062,3.06,0.003,4.59-0.029c0.587-0.012,0.84,0.121,0.838,0.778
			c-0.002,0.66-0.267,0.785-0.848,0.773c-1.53-0.031-3.061,0.017-4.59-0.023c-0.665-0.017-0.993,0.105-0.947,0.877
			c0.067,1.125,0.049,2.259,0.005,3.387c-0.025,0.636,0.209,0.805,0.817,0.794c1.821-0.034,3.644,0.009,5.465-0.024
			c0.596-0.011,0.827,0.134,0.825,0.779c-0.001,0.657-0.26,0.779-0.844,0.774c-2.55-0.025-5.101-0.033-7.651,0.004
			c-0.688,0.01-0.867-0.232-0.857-0.882C55.353,68.823,55.332,66.746,55.332,64.669z"/>
		<path fill="#57595B" d="M100.963,67.025c-1.092-0.001-2.186,0.042-3.274-0.016c-0.766-0.041-0.845,0.273-0.704,0.905
			c0.321,1.439,1.61,2.438,3.401,2.564c1.06,0.075,2.125,0.022,3.129-0.32c0.643-0.219,0.732,0.121,0.885,0.564
			c0.181,0.523-0.063,0.73-0.521,0.843c-1.787,0.44-3.587,0.635-5.392,0.158c-2.592-0.685-3.909-2.682-3.693-5.528
			c0.184-2.42,2.024-4.37,4.425-4.689c3.001-0.399,5.021,0.68,5.755,3.075c0.042,0.139,0.085,0.278,0.112,0.42
			c0.376,1.955,0.245,2.099-1.721,2.03C102.565,67.003,101.764,67.026,100.963,67.025z"/>
		<path fill="#57595B" d="M73.312,70.67c-1.503,1.192-3.124,1.653-4.944,1.144c-1.17-0.327-2.023-1.022-2.22-2.277
			c-0.207-1.314,0.287-2.346,1.43-3.055c1.378-0.856,2.919-1.038,4.492-1.122c1.177-0.063,1.411-0.556,0.756-1.552
			c-0.466-0.708-1.193-0.913-1.976-0.968c-0.996-0.07-1.964,0.101-2.875,0.495c-0.435,0.188-0.636,0.158-0.799-0.323
			c-0.14-0.415-0.305-0.754,0.256-0.953c1.934-0.685,3.896-0.943,5.853-0.172c1.408,0.555,1.98,1.741,2.065,3.194
			c0.121,2.069-0.135,4.147,0.153,6.212c0.043,0.31-0.053,0.534-0.393,0.464c-0.521-0.108-1.175,0.361-1.556-0.327
			C73.437,71.22,73.403,70.965,73.312,70.67z"/>
		<path fill="#57595B" d="M117.371,63.157c1.004-1.022,2.053-1.583,3.353-1.685c2.92-0.229,4.69,1.307,4.747,4.214
			c0.034,1.748-0.045,3.5,0.028,5.246c0.04,0.948-0.502,0.859-1.099,0.837c-0.557-0.02-1.166,0.178-1.129-0.812
			c0.065-1.746,0.04-3.498-0.021-5.244c-0.065-1.847-0.988-2.721-2.715-2.697c-1.705,0.023-2.926,1.17-2.959,2.841
			c-0.032,1.639-0.077,3.283,0.018,4.917c0.058,0.993-0.414,1.007-1.155,1.013c-0.728,0.007-1.105-0.058-1.085-0.972
			c0.061-2.767,0.015-5.537-0.007-8.305c-0.004-0.48-0.013-0.922,0.649-0.798c0.486,0.091,1.268-0.39,1.317,0.63
			C117.323,62.558,117.343,62.775,117.371,63.157z"/>
		<path fill="#57595B" d="M82.014,61.411c0.767,0.089,1.471,0.043,2.129,0.301c0.393,0.154,1.01,0.088,0.717,0.877
			c-0.231,0.622-0.443,0.848-1.149,0.536c-0.763-0.337-1.62-0.444-2.458-0.172c-0.547,0.177-1.004,0.489-1.081,1.107
			c-0.079,0.636,0.31,1.038,0.841,1.27c0.832,0.363,1.701,0.643,2.529,1.016c0.963,0.433,1.763,1.039,1.882,2.21
			c0.138,1.361-0.441,2.404-1.755,2.954c-1.801,0.754-3.624,0.613-5.445,0.016c-0.579-0.19-0.441-0.511-0.282-0.918
			c0.164-0.421,0.244-0.814,0.869-0.527c0.942,0.432,1.949,0.578,2.982,0.421c0.72-0.109,1.367-0.37,1.511-1.191
			c0.146-0.83-0.367-1.297-1.045-1.592c-0.7-0.304-1.441-0.513-2.134-0.831c-1.132-0.52-2.144-1.204-2.103-2.636
			c0.035-1.239,1.037-2.234,2.562-2.625C81.073,61.5,81.587,61.472,82.014,61.411z"/>
		<path fill="#57595B" d="M88.432,66.541c0-0.655-0.047-1.314,0.011-1.964c0.088-0.99,0.017-1.745-1.311-1.507
			c-0.563,0.101-0.496-0.371-0.508-0.729c-0.011-0.359,0.041-0.712,0.507-0.624c1.194,0.224,1.34-0.372,1.336-1.391
			c-0.005-1.046,1.066-0.792,1.664-0.925c0.652-0.145,0.372,0.549,0.384,0.866c0.054,1.437,0.035,1.437,1.488,1.438
			c0.364,0,0.728,0.01,1.092,0.002c0.577-0.013,0.481,0.404,0.497,0.756c0.018,0.372-0.06,0.654-0.523,0.622
			c-0.109-0.008-0.218-0.001-0.327,0.002c-2.212,0.063-2.216,0.063-2.211,2.337c0.002,1.091-0.034,2.187,0.047,3.272
			c0.105,1.403,0.664,1.84,2.067,1.739c0.388-0.028,0.794-0.249,0.833,0.445c0.031,0.567,0.025,0.902-0.694,1.044
			c-2.829,0.556-4.342-0.636-4.351-3.525C88.43,67.778,88.432,67.159,88.432,66.541z"/>
		<path fill="#57595B" d="M109.472,63.533c0.859-1.244,1.744-1.997,3.048-2.069c0.497-0.028,0.995-0.107,0.925,0.653
			c-0.048,0.519,0.254,1.138-0.771,1.146c-1.865,0.014-2.865,1.157-2.936,3.212c-0.051,1.457-0.079,2.921,0.01,4.374
			c0.059,0.977-0.467,0.914-1.13,0.933c-0.719,0.022-1.111-0.041-1.107-0.965c0.012-2.767,0.249-5.536,0.015-8.302
			c-0.05-0.595,0.059-0.901,0.729-0.819c0.561,0.069,1.347-0.247,1.221,0.83C109.448,62.766,109.472,63.01,109.472,63.533z"/>
		<path fill="#FBFBFB" d="M92.099,40.989c-1.589,0.117-3.137,0.485-4.702,0.757c-0.505,0.088-1.058,0.341-1.515-0.157
			c0.054-0.055,0.109-0.11,0.163-0.166c1.53-0.44,3.08-0.822,4.582-1.343c0.896-0.311,1.527-0.194,2.021,0.609
			C92.663,41.152,92.369,41.049,92.099,40.989z"/>
		<path fill="#F8F9F9" d="M93.075,41.62c0.085-0.068,0.169-0.137,0.254-0.205c1.359,0.043,2.61-0.476,3.885-0.812
			c0.971-0.256,1.737-0.29,2.35,0.615c0.112,0.166,0.33,0.261,0.499,0.388c-0.002,0.078-0.004,0.157-0.006,0.235
			c-1.889-0.602-3.773,0.032-5.66,0.023C93.948,41.827,93.413,42.254,93.075,41.62z"/>
		<path fill="#BFC0C2" d="M103.621,45.558c0.122-1.658-1.23-3.596,1.085-5.1C104.404,42.345,104.275,44.001,103.621,45.558z"/>
		<path fill="#E1E1E3" d="M61.129,40.75c-0.07-0.552,0.125-1.044,0.359-1.72c0.215,1.86-0.151,3.564,0.265,5.225
			c-0.105,0.135-0.21,0.271-0.353,0.455C61.155,43.372,61.615,42.024,61.129,40.75z"/>
		<path fill="#F0F0F0" d="M105.081,40.296c-0.017,1.464-0.022,2.927,0.211,4.379c-0.117-0.074-0.333-0.144-0.336-0.221
			C104.908,43.066,104.656,41.67,105.081,40.296z"/>
		<path fill="#EBEBEC" d="M120.639,19.938c-0.224-0.286-0.448-0.573-0.673-0.859c0.224-0.073,0.449-0.146,0.673-0.22
			c0.31,0.332,0.627,0.655,1.052,0.842c0.261,0.376,0.274,0.609-0.295,0.579C121.089,20.263,121.043,19.708,120.639,19.938z"/>
		<path fill="#C9C9CB" d="M119.58,42.316c-0.729,0.331-1.431,0.772-2.296,0.54C118.016,42.539,118.745,42.206,119.58,42.316z"/>
		<path fill="#D1D2D3" d="M59.133,39.624c0.142,0.795-0.226,1.635,0.218,2.402c-0.102,0.144-0.346,0.501-0.367,0.154
			C58.93,41.337,58.728,40.452,59.133,39.624z"/>
		<path fill="#CBCACC" d="M116.546,43.018c-0.512,0.409-1.062,0.347-1.623,0.188C115.464,43.143,116.005,43.081,116.546,43.018z"/>
		<path fill="#B6B6B9" d="M80.564,40.064c0.183,0.636-0.168,1.333,0.221,1.946c-0.176,0.294-0.374,0.24-0.366-0.059
			C80.435,41.322,80.231,40.669,80.564,40.064z"/>
		<path fill="#EEEEEE" d="M121.656,26.152c-0.208,0.407-0.595,0.702-1.109,0.868C120.926,26.724,121.304,26.427,121.656,26.152z"/>
		<path fill="#D3D3D4" d="M121.692,19.701c-0.615,0.049-0.967-0.23-1.052-0.842C121.194,18.885,121.438,19.298,121.692,19.701z"/>
		<path fill="#ACACAE" d="M83.251,44.867c0.153,0.126,0.112,0.422,0.386,0.442c0.024,0.226-0.093,0.563-0.244,0.482
			C83.029,45.599,83.202,45.197,83.251,44.867z"/>
		<path fill="#8F9091" d="M81.497,44.878c0.126,0.071,0.251,0.142,0.377,0.213c0.022,0.227-0.058,0.561-0.24,0.505
			C81.306,45.495,81.492,45.135,81.497,44.878z"/>
		<path fill="#E5E6E5" d="M120.894,41.673c0.149-0.371,0.416-0.35,0.822-0.633C121.478,41.568,121.262,41.659,120.894,41.673z"/>
		<path fill="#DDDDDE" d="M103.548,37.879c0.005,0.37,0.01,0.74,0.015,1.111c-0.073,0.07-0.147,0.139-0.22,0.208
			c0.001-0.437,0.003-0.875,0.004-1.312C103.411,37.788,103.478,37.79,103.548,37.879z"/>
		<path fill="#8C8D8D" d="M83.623,84.899c0.013,0.253,0.027,0.506,0.04,0.759c-0.024,0.113-0.08,0.358-0.184,0.147
			C83.344,85.531,83.413,85.177,83.623,84.899z"/>
		<path fill="#626364" d="M123.073,93.096c-0.112-0.11-0.224-0.22-0.336-0.33c0.163-0.182,0.378-0.521,0.575-0.346
			C123.564,92.643,123.231,92.888,123.073,93.096z"/>
		<path fill="#FDFDFD" d="M119.527,32.909c-0.506,0.689,0.311,1.741-0.602,2.373c-0.254,0.176-0.51,0.501-0.862,0.308
			c-0.351-0.193-0.306-0.581-0.192-0.884c0.32-0.847-0.083-1.654-0.079-2.48c0.003-0.546-0.199-1.163,0.733-1.265
			c0.961-0.106,0.731,0.547,0.817,1.036C119.393,32.282,119.457,32.565,119.527,32.909z"/>
		<path fill="#FDFDFD" d="M106.537,30.98c-0.821-1.531,0.071-2.102,1.124-2.613c0.556-0.27,1.081-0.604,1.63-0.888
			c0.241-0.125,0.529-0.369,0.76-0.004c0.174,0.275,0.133,0.614-0.103,0.807C108.815,29.206,107.656,30.1,106.537,30.98z"/>
		<path fill="#FCFCFC" d="M115.579,12.139c0.104-0.364,0.162-0.689,0.29-0.984c0.133-0.304,0.366-0.6,0.73-0.561
			c0.393,0.042,0.496,0.416,0.502,0.742c0.017,0.838,0.114,1.659,0.332,2.47c0.189,0.703-0.472,0.738-0.841,0.913
			c-0.577,0.274-0.498-0.295-0.621-0.594C115.703,13.475,115.951,12.738,115.579,12.139z"/>
		<path fill="#FCFDFC" d="M107.918,23.427c-0.849-0.14-1.736-0.286-2.622-0.434c-0.184-0.031-0.435-0.132-0.293-0.318
			c0.321-0.42,0.359-1.201,1.15-1.089c0.711,0.1,1.425,0.228,2.114,0.424c0.424,0.121,1.019,0.295,0.854,0.9
			C108.982,23.418,108.471,23.543,107.918,23.427z"/>
		<path fill="#FDFDFD" d="M110.226,18.29c-0.093,0.411-0.083,0.961-0.77,0.547c-0.743-0.447-1.492-0.883-2.233-1.333
			c-0.417-0.253-0.474-0.632-0.255-1.03c0.236-0.429,0.592-0.477,1.008-0.223c0.642,0.392,1.33,0.711,1.845,1.289
			C110.02,17.765,110.181,17.99,110.226,18.29z"/>
		<path fill="#FCFCFC" d="M114.034,30.678c-0.055,0.08-0.139,0.241-0.26,0.367c-0.611,0.633-1.029,1.393-1.425,2.165
			c-0.169,0.33-0.386,0.609-0.695,0.815c-0.227,0.151-0.487,0.21-0.71,0.05c-0.244-0.175-0.223-0.476-0.082-0.688
			c0.68-1.021,1.376-2.031,2.092-3.027c0.166-0.23,0.43-0.405,0.759-0.274C113.934,30.175,114.065,30.333,114.034,30.678z"/>
		<path fill="#FDFDFD" d="M111.76,12.526c0.4,0.051,0.575,0.291,0.723,0.54c0.332,0.559,0.558,1.174,1,1.678
			c0.228,0.259,0.211,0.63-0.076,0.885c-0.281,0.251-0.61,0.23-0.892-0.008c-0.677-0.571-1.222-1.266-1.518-2.092
			C110.752,12.846,111.378,12.725,111.76,12.526z"/>
		<path fill="#EDEEEE" d="M103.548,37.879c-0.067,0.005-0.134,0.007-0.201,0.007c0-0.648,0-1.295,0-1.943
			c0.067-0.002,0.134-0.005,0.201-0.007C103.548,36.584,103.548,37.232,103.548,37.879z"/>
		<path fill="#FEFEFE" d="M95.687,17.976c0,0.109,0,0.219,0,0.328c0,1.885,0.002,1.917-1.826,2.027
			c-0.626,0.038-0.598,0.313-0.524,0.762c0.82,4.953,1.629,9.908,2.443,14.862c0.153,0.933,0.288,1.871,0.489,2.794
			c0.122,0.559,0.014,0.91-0.569,1.057c-0.175,0.044-0.358,0.098-0.509,0.193c-1.014,0.638-1.814,0.456-2.395-0.602
			c-0.396-0.72-0.937-0.75-1.656-0.47c-0.776,0.302-1.6,0.483-2.407,0.704c-0.4,0.11-0.786,0.331-1.116-0.229
			c-0.287-0.487-0.733-0.067-1.078,0.028c-1.251,0.345-1.262,0.353-1.091-0.856c0.813-5.765,1.602-11.534,2.469-17.291
			c0.13-0.866-0.112-1.057-0.844-0.929c-1.09,0.19-1.385-0.277-1.288-1.309c0.091-0.975,0.022-1.966,0.019-2.95
			c-0.002-0.582,0.085-0.788,0.744-0.433c0.847,0.455,1.325,0.142,1.238-0.772c-0.071-0.746,0.53-1.734-0.669-2.197
			c-0.153-0.059-0.302-0.8,0.236-0.846c1.007-0.085,1.728-0.732,2.564-1.143c0.506-0.249,0.889-0.264,1.41-0.022
			c0.882,0.411,1.714,0.929,2.688,1.168c0.594,0.146,0.418,0.689,0.11,1.018c-0.758,0.812-0.337,1.771-0.285,2.631
			c0.027,0.449,0.749,0.324,1.11,0.119c0.667-0.379,0.746-0.053,0.739,0.498C95.68,16.737,95.687,17.356,95.687,17.976z"/>
		<path fill="#D1D2D3" d="M81.283,38.309c0-0.854,0-1.708,0-2.562c0.346,0.847,0.155,1.707,0.144,2.562
			C81.379,38.309,81.331,38.309,81.283,38.309z"/>
		<path fill="#EBECEC" d="M92.099,40.989c0.213-0.046,0.437-0.07,0.55-0.299c0.272,0.146,0.503,0.315,0.376,0.681
			C92.716,41.243,92.408,41.116,92.099,40.989z"/>
		<path fill="#ABADAF" d="M81.283,38.309c0.048,0.004,0.096,0.004,0.144,0c0,0.308,0,0.617,0,1.14
			C81.178,38.945,81.257,38.624,81.283,38.309z"/>
		<path fill="#FEFEFE" d="M95.277,88.174c-0.111,3.744-2.658,5.939-6.405,5.493c-1.019-0.121-1.974-0.503-2.298-1.559
			c-0.34-1.105,0.235-1.981,1.102-2.634c2.093-1.579,4.572-2.136,7.081-2.583C95.278,86.798,95.314,86.924,95.277,88.174z"/>
		<path fill="#FEFEFE" d="M65.52,86.678c0.093-2.276,1.768-4.147,4.129-4.652c2.379-0.509,4.698,0.495,5.701,2.443
			c0.211,0.41,0.255,0.608-0.306,0.726c-2.991,0.63-5.976,1.288-8.958,1.963C65.559,87.277,65.423,87.121,65.52,86.678z"/>
		<path fill="#ECEEEE" d="M59.998,36.788c0,0.577,0,1.153,0,1.73c-0.063,0.001-0.127,0.002-0.19,0.003c0-0.577,0-1.153,0-1.73
			C59.87,36.697,59.933,36.691,59.998,36.788z"/>
		<path fill="#F7F8F9" d="M59.998,36.788c-0.063,0.003-0.127,0.004-0.19,0.004c0-0.354,0-0.707,0-1.061
			c0.063-0.002,0.127-0.003,0.19-0.005C59.998,36.08,59.998,36.434,59.998,36.788z"/>
		<path fill="#ABACAE" d="M93.075,41.62c0.384,0.385,0.903,0.047,1.322,0.245c-0.657,0.229-1.331,0.153-2.095,0.166
			C92.53,41.683,92.771,41.592,93.075,41.62z"/>
		<path fill="#FDFDFD" d="M99.945,65.676c-0.8,0-1.601-0.01-2.401,0.004c-0.386,0.007-0.617-0.039-0.523-0.536
			c0.238-1.267,1.584-2.322,3.056-2.348c1.588-0.028,2.634,0.775,2.95,2.19c0.124,0.554-0.031,0.715-0.571,0.696
			C101.62,65.655,100.782,65.676,99.945,65.676z"/>
		<path fill="#FDFDFD" d="M73.161,67.75c0.435,2.128-2.201,3.334-3.876,2.652c-1.091-0.444-1.368-1.908-0.477-2.717
			c1.139-1.034,2.597-1.092,4.015-0.995C73.52,66.739,73.026,67.479,73.161,67.75z"/>
		<path fill="#585A5C" d="M92.877,15.473c0,0.546,0.017,1.092-0.006,1.637c-0.016,0.389,0.196,0.957-0.555,0.896
			c-0.447-0.036-1.105,0.247-1.014-0.652c0.047-0.472-0.319-0.357-0.591-0.392c-0.336-0.043-0.489,0.093-0.455,0.416
			c0.085,0.807-0.497,0.595-0.933,0.634c-0.604,0.054-0.613-0.325-0.608-0.762c0.012-1.164,0.036-2.33-0.008-3.493
			c-0.024-0.641,0.221-0.819,0.823-0.79c0.872,0.041,1.748,0.041,2.619,0c0.588-0.028,0.768,0.205,0.735,0.76
			C92.85,14.307,92.877,14.891,92.877,15.473z"/>
		<path fill="#5B5D5F" d="M87.106,16.496c0.724-0.139,0.692,0.302,0.717,0.775c0.03,0.553-0.124,0.766-0.721,0.762
			c-0.602-0.003-0.634-0.303-0.613-0.751C86.51,16.838,86.403,16.317,87.106,16.496z"/>
		<path fill="#626365" d="M93.761,17.27c-0.078-0.555,0.013-0.861,0.646-0.851c0.595,0.009,0.613,0.322,0.6,0.755
			c-0.013,0.432,0.077,0.86-0.614,0.857C93.76,18.03,93.666,17.721,93.761,17.27z"/>
		<path fill="#727475" d="M88.508,23.931c-0.024,1.158,0.104,2.339-0.411,3.423c-0.097-0.01-0.193-0.02-0.29-0.031
			c0.16-1.356,0.32-2.713,0.48-4.069C88.8,23.337,88.499,23.685,88.508,23.931z"/>
		<path fill="#868687" d="M86.973,33.968c0.07-0.739,0.139-1.478,0.209-2.217c0.128-0.121,0.256-0.12,0.384,0.001
			c-0.238,0.874-0.023,1.814-0.387,2.67C86.985,34.328,87.092,34.097,86.973,33.968z"/>
		<path fill="#9A9A9C" d="M88.508,23.931c-0.078-0.224,0.006-0.501-0.221-0.677c-0.083-0.477,0.155-0.889,0.311-1.329
			C88.682,22.601,88.793,23.271,88.508,23.931z"/>
		<path fill="#838485" d="M87.582,29.571c-0.011-0.549-0.059-1.104,0.245-1.871c0.24,0.812-0.079,1.334-0.062,1.87
			C87.705,29.638,87.644,29.636,87.582,29.571z"/>
		<path fill="#656667" d="M87.112,35.255c-0.073,0.432-0.145,0.864-0.218,1.295c-0.052,0.087-0.114,0.092-0.187,0.025
			c0.001-0.536-0.047-1.077,0.198-1.583C87.041,35.028,87.054,35.16,87.112,35.255z"/>
		<path fill="#5F6163" d="M87.566,31.752c-0.128,0-0.256-0.001-0.384-0.001c0.076-0.43,0.152-0.86,0.228-1.291
			c0.062-0.078,0.129-0.078,0.2-0.012C87.595,30.883,87.581,31.318,87.566,31.752z"/>
		<path fill="#89898B" d="M87.61,30.449c-0.066,0.011-0.133,0.015-0.2,0.012c-0.039-0.315-0.064-0.628,0.172-0.89
			c0.061-0.001,0.122-0.002,0.183-0.001C87.749,29.869,87.88,30.194,87.61,30.449z"/>
		<path fill="#A6A6A6" d="M86.708,36.575c0.061-0.019,0.123-0.028,0.187-0.025c-0.072,0.31-0.144,0.621-0.238,1.023
			C86.427,37.15,86.423,36.85,86.708,36.575z"/>
		<path fill="#606163" d="M87.112,35.255c-0.069-0.087-0.137-0.175-0.206-0.262c0.022-0.341,0.044-0.683,0.067-1.024
			c0.069,0.151,0.138,0.303,0.207,0.454C87.157,34.7,87.135,34.977,87.112,35.255z"/>
		<path fill="#FBFBFB" d="M90.758,14.375c0.681,0.048,1.092,0.372,1.09,1.011c-0.002,0.684-0.416,1.076-1.104,1.042
			c-0.624-0.031-0.998-0.408-0.983-1.053C89.775,14.718,90.207,14.443,90.758,14.375z"/>
	</g>
</g>
<g id="Layer_4" display="none">
	<g display="inline" opacity="0.8">
		<defs>
			<rect id="SVGID_1_" x="6.531" y="25.67" opacity="0.8" width="165.969" height="56.225"/>
		</defs>
		<clipPath id="SVGID_2_">
			<use xlink:href="#SVGID_1_"  overflow="visible"/>
		</clipPath>
		<path clip-path="url(#SVGID_2_)" fill="#231F20" d="M128.41,43.157c0,0.379-0.307,0.686-0.686,0.686
			c-0.379,0-0.685-0.307-0.685-0.686s0.307-0.686,0.685-0.686C128.103,42.471,128.41,42.779,128.41,43.157"/>
		<circle clip-path="url(#SVGID_2_)" fill="none" stroke="#231F20" stroke-width="0.176" cx="127.724" cy="43.157" r="0.686"/>
		<polyline clip-path="url(#SVGID_2_)" fill-rule="evenodd" clip-rule="evenodd" fill="#231F20" points="30.872,65.981 
			30.872,50.384 19.404,29.836 8.701,29.836 19.404,50.06 19.404,65.981 		"/>
		<path clip-path="url(#SVGID_2_)" fill="none" stroke="#231F20" stroke-width="0.328" stroke-miterlimit="2.613" d="M33.142,66.659
			c0.826,0,1.503-0.649,1.503-1.475c0-0.825-0.677-1.503-1.503-1.503c-0.826,0-1.503,0.678-1.503,1.503
			C31.639,66.01,32.317,66.659,33.142,66.659"/>
		<path clip-path="url(#SVGID_2_)" fill-rule="evenodd" clip-rule="evenodd" fill="#231F20" d="M32.906,64.477
			c0-0.237,0-0.266,0.236-0.266c0.236,0,0.412,0.178,0.412,0.443c0,0.147-0.029,0.236-0.147,0.324
			c-0.088,0.059-0.206,0.088-0.325,0.088c-0.088,0-0.177,0.03-0.177-0.059 M32.7,65.745c0,0.206,0,0.265-0.206,0.265
			c-0.03,0-0.059,0-0.059,0.03s0,0.03,0.029,0.03c0.118,0,0.236,0,0.354,0c0.088,0,0.176,0,0.324,0c0.029,0,0.029,0,0.029-0.03
			s-0.029-0.03-0.059-0.03c-0.206,0-0.206-0.059-0.206-0.265v-0.471c0-0.03,0-0.089,0.03-0.118c0,0,0.029,0,0.059,0
			c0.207,0,0.207,0.029,0.325,0.207l0.295,0.619c0,0.029,0.029,0.089,0.088,0.089h0.295c0.029,0,0.059,0,0.059-0.03
			s-0.059-0.03-0.059-0.03c-0.118,0-0.206-0.147-0.236-0.236l-0.236-0.471c-0.029-0.059-0.059-0.206-0.177-0.206
			c0.236-0.03,0.442-0.177,0.442-0.472c0-0.324-0.265-0.471-0.531-0.471c-0.148,0-0.324,0.03-0.502,0.03
			c-0.088,0-0.206-0.03-0.295-0.03c-0.029,0-0.029,0.03-0.029,0.058c0,0.029,0.029,0.029,0.059,0.029
			c0.206,0,0.206,0.06,0.206,0.267V65.745z"/>
		<path clip-path="url(#SVGID_2_)" fill-rule="evenodd" clip-rule="evenodd" fill="#231F20" d="M21.172,29.829l10.525,18.957
			l11.646-18.957 M28.278,34.051h7.4l-3.744,6.752L28.278,34.051z"/>
		<path clip-path="url(#SVGID_2_)" fill="#6D6E70" d="M52.751,29.838l3.138,5.578h-6.012l3.14,5.577h-6.013l14.088,25.022
			l1.452-3.465c0,0-8.871-15.754-10.469-18.593c0.64,0,1.543,0,2.61,0l9.281,16.48l1.451-3.465c0,0-8.871-15.754-10.469-18.592
			c0.641,0,1.542,0,2.61,0l9.281,16.48l1.451-3.463c0,0-8.872-15.755-10.469-18.594c3.561,0,15.172,0,18.841,0
			C75.13,35.349,68.7,46.028,68.7,46.028l1.376,3.461l11.83-19.652"/>
		<polyline clip-path="url(#SVGID_2_)" fill="#231F20" points="85.224,38.694 86.777,38.694 89.319,43.369 91.82,38.694 
			93.295,38.694 90.003,44.792 90.003,47.649 88.595,47.649 88.595,44.804 		"/>
		<polygon clip-path="url(#SVGID_2_)" fill="none" stroke="#231F20" stroke-width="0.176" points="85.224,38.694 86.777,38.694 
			89.319,43.369 91.82,38.694 93.295,38.694 90.003,44.792 90.003,47.649 88.595,47.649 88.595,44.804 		"/>
		<polyline clip-path="url(#SVGID_2_)" fill="#231F20" points="94.534,38.51 94.599,38.51 98.971,43.553 103.29,38.51 
			103.357,38.51 103.357,47.649 102.026,47.649 102.026,41.841 98.971,45.489 98.905,45.489 95.863,41.841 95.863,47.649 
			94.534,47.649 		"/>
		<polygon clip-path="url(#SVGID_2_)" fill="none" stroke="#231F20" stroke-width="0.176" points="94.534,38.51 94.599,38.51 
			98.971,43.553 103.29,38.51 103.357,38.51 103.357,47.649 102.026,47.649 102.026,41.841 98.971,45.489 98.905,45.489 
			95.863,41.841 95.863,47.649 94.534,47.649 		"/>
		<path clip-path="url(#SVGID_2_)" fill="#231F20" d="M104.87,43.172c0-2.647,2.015-4.595,4.569-4.595
			c1.659,0,2.805,0.645,3.582,1.738l-1.08,0.764c-0.593-0.803-1.357-1.225-2.542-1.225c-1.779,0-3.068,1.422-3.068,3.319
			c0,1.936,1.317,3.319,3.12,3.319c1.159,0,2.016-0.434,2.687-1.303l1.093,0.75c-0.922,1.225-2.094,1.83-3.832,1.83
			C106.846,47.767,104.87,45.819,104.87,43.172"/>
		<path clip-path="url(#SVGID_2_)" fill="none" stroke="#231F20" stroke-width="0.176" d="M104.87,43.172
			c0-2.647,2.015-4.595,4.569-4.595c1.659,0,2.805,0.645,3.582,1.738l-1.08,0.764c-0.593-0.803-1.357-1.225-2.542-1.225
			c-1.779,0-3.068,1.422-3.068,3.319c0,1.936,1.317,3.319,3.12,3.319c1.159,0,2.016-0.434,2.687-1.303l1.093,0.75
			c-0.922,1.225-2.094,1.83-3.832,1.83C106.846,47.767,104.87,45.819,104.87,43.172z"/>
		<path clip-path="url(#SVGID_2_)" fill="#231F20" d="M115.247,47.649h-1.422l3.924-9.139h0.079l3.937,9.139h-1.488l-0.514-1.251
			c0,0-3.991,0-4.004,0 M117.776,41.604l-1.488,3.542h2.949C119.251,45.147,117.776,41.604,117.776,41.604z"/>
		<path clip-path="url(#SVGID_2_)" fill="none" stroke="#231F20" stroke-width="0.176" d="M115.247,47.649h-1.422l3.924-9.139h0.079
			l3.937,9.139h-1.488l-0.514-1.251c0,0-3.991,0-4.004,0L115.247,47.649z M117.776,41.604l-1.488,3.542h2.949
			C119.251,45.147,117.776,41.604,117.776,41.604z"/>
		<polyline clip-path="url(#SVGID_2_)" fill="#6D6E70" points="132.911,38.693 134.454,38.693 136.977,43.336 139.461,38.693 
			140.926,38.693 137.656,44.749 137.656,47.585 136.258,47.585 136.258,44.76 		"/>
		<polygon clip-path="url(#SVGID_2_)" fill="none" stroke="#6D6E70" stroke-width="0.173" points="132.911,38.693 134.454,38.693 
			136.977,43.336 139.461,38.693 140.926,38.693 137.656,44.749 137.656,47.585 136.258,47.585 136.258,44.76 		"/>
		<polyline clip-path="url(#SVGID_2_)" fill="#231F20" points="141.448,38.693 142.926,38.693 144.834,44.369 147.346,38.511 
			147.423,38.511 149.947,44.369 151.817,38.693 153.203,38.693 150.09,47.702 150.012,47.702 147.383,41.505 144.691,47.702 
			144.625,47.702 		"/>
		<polygon clip-path="url(#SVGID_2_)" fill="none" stroke="#231F20" stroke-width="0.176" points="141.448,38.693 142.926,38.693 
			144.834,44.369 147.346,38.511 147.423,38.511 149.947,44.369 151.817,38.693 153.203,38.693 150.09,47.702 150.012,47.702 
			147.383,41.505 144.691,47.702 144.625,47.702 		"/>
		<path clip-path="url(#SVGID_2_)" fill="#6D6E70" d="M153.555,43.14c0-2.629,2.001-4.564,4.537-4.564
			c1.648,0,2.785,0.64,3.556,1.726l-1.073,0.758c-0.587-0.797-1.346-1.216-2.523-1.216c-1.767,0-3.047,1.411-3.047,3.295
			c0,1.922,1.308,3.294,3.099,3.294c1.15,0,2-0.433,2.667-1.294l1.086,0.746c-0.917,1.215-2.08,1.817-3.805,1.817
			C155.516,47.702,153.555,45.768,153.555,43.14"/>
		<path clip-path="url(#SVGID_2_)" fill="none" stroke="#6D6E70" stroke-width="0.173" d="M153.555,43.14
			c0-2.629,2.001-4.564,4.537-4.564c1.648,0,2.785,0.64,3.556,1.726l-1.073,0.758c-0.587-0.797-1.346-1.216-2.523-1.216
			c-1.767,0-3.047,1.411-3.047,3.295c0,1.922,1.308,3.294,3.099,3.294c1.15,0,2-0.433,2.667-1.294l1.086,0.746
			c-0.917,1.215-2.08,1.816-3.805,1.816C155.516,47.702,153.555,45.768,153.555,43.14z"/>
		<path clip-path="url(#SVGID_2_)" fill="#6D6E70" d="M163.857,47.585h-1.412l3.897-9.073h0.079l3.908,9.073h-1.477l-0.511-1.242
			c0,0-3.961,0-3.974,0 M166.368,41.583L164.89,45.1h2.929C167.833,45.1,166.368,41.583,166.368,41.583z"/>
		<path clip-path="url(#SVGID_2_)" fill="none" stroke="#6D6E70" stroke-width="0.173" d="M163.857,47.585h-1.412l3.897-9.073h0.079
			l3.908,9.073h-1.477l-0.511-1.242c0,0-3.961,0-3.974,0L163.857,47.585z M166.368,41.583L164.89,45.1h2.929
			C167.833,45.1,166.368,41.583,166.368,41.583z"/>
		<polyline clip-path="url(#SVGID_2_)" fill="#231F20" points="88.185,56.965 88.185,59.02 87.725,59.02 87.725,55.848 
			87.762,55.848 89.766,57.949 89.766,55.894 90.226,55.894 90.226,59.065 90.189,59.065 		"/>
		<polygon clip-path="url(#SVGID_2_)" fill="none" stroke="#231F20" stroke-width="0.24" points="88.185,56.965 88.185,59.02 
			87.725,59.02 87.725,55.848 87.762,55.848 89.766,57.949 89.766,55.894 90.226,55.894 90.226,59.065 90.189,59.065 		"/>
		<path clip-path="url(#SVGID_2_)" fill="#231F20" d="M92.303,59.019h-0.496l1.37-3.19h0.028l1.374,3.19h-0.519l-0.179-0.437
			c0,0-1.393,0-1.397,0 M93.186,56.91l-0.52,1.236h1.029C93.7,58.146,93.186,56.91,93.186,56.91z"/>
		<path clip-path="url(#SVGID_2_)" fill="none" stroke="#231F20" stroke-width="0.24" d="M92.303,59.019h-0.496l1.37-3.19h0.028
			l1.374,3.19h-0.519l-0.179-0.437c0,0-1.393,0-1.397,0L92.303,59.019z M93.186,56.91l-0.52,1.236h1.029
			C93.7,58.146,93.186,56.91,93.186,56.91z"/>
		<polyline clip-path="url(#SVGID_2_)" fill="#231F20" points="96.448,56.331 95.52,56.331 95.52,55.894 97.868,55.894 
			97.868,56.331 96.94,56.331 96.94,59.019 96.448,59.019 		"/>
		<polygon clip-path="url(#SVGID_2_)" fill="none" stroke="#231F20" stroke-width="0.24" points="96.448,56.331 95.52,56.331 
			95.52,55.894 97.868,55.894 97.868,56.331 96.94,56.331 96.94,59.019 96.448,59.019 		"/>
		<rect x="99.481" y="55.893" clip-path="url(#SVGID_2_)" fill="#231F20" width="0.492" height="3.126"/>
		
			<rect x="99.481" y="55.893" clip-path="url(#SVGID_2_)" fill="none" stroke="#231F20" stroke-width="0.24" width="0.492" height="3.126"/>
		<path clip-path="url(#SVGID_2_)" fill="#231F20" d="M101.664,57.457c0-0.924,0.718-1.604,1.613-1.604
			c0.897,0,1.614,0.68,1.614,1.604c0,0.924-0.718,1.604-1.614,1.604C102.382,59.061,101.664,58.381,101.664,57.457 M104.381,57.457
			c0-0.662-0.455-1.158-1.103-1.158c-0.648,0-1.102,0.496-1.102,1.158c0,0.661,0.454,1.158,1.102,1.158
			C103.926,58.614,104.381,58.118,104.381,57.457z"/>
		<path clip-path="url(#SVGID_2_)" fill="none" stroke="#231F20" stroke-width="0.24" d="M101.664,57.457
			c0-0.924,0.718-1.604,1.613-1.604c0.897,0,1.614,0.68,1.614,1.604c0,0.924-0.718,1.604-1.614,1.604
			C102.382,59.061,101.664,58.381,101.664,57.457z M104.381,57.457c0-0.662-0.455-1.158-1.103-1.158
			c-0.648,0-1.102,0.496-1.102,1.158c0,0.661,0.454,1.158,1.102,1.158C103.926,58.614,104.381,58.118,104.381,57.457z"/>
		<polyline clip-path="url(#SVGID_2_)" fill="#231F20" points="107.028,56.965 107.028,59.02 106.568,59.02 106.568,55.848 
			106.605,55.848 108.609,57.949 108.609,55.894 109.069,55.894 109.069,59.065 109.032,59.065 		"/>
		<polygon clip-path="url(#SVGID_2_)" fill="none" stroke="#231F20" stroke-width="0.24" points="107.028,56.965 107.028,59.02 
			106.568,59.02 106.568,55.848 106.605,55.848 108.609,57.949 108.609,55.894 109.069,55.894 109.069,59.065 109.032,59.065 		"/>
		<path clip-path="url(#SVGID_2_)" fill="#231F20" d="M111.146,59.019h-0.496l1.37-3.19h0.027l1.374,3.19h-0.519l-0.179-0.437
			c0,0-1.393,0-1.398,0 M112.029,56.91l-0.52,1.236h1.029C112.543,58.146,112.029,56.91,112.029,56.91z"/>
		<path clip-path="url(#SVGID_2_)" fill="none" stroke="#231F20" stroke-width="0.24" d="M111.146,59.019h-0.496l1.37-3.19h0.027
			l1.374,3.19h-0.519l-0.179-0.437c0,0-1.393,0-1.398,0L111.146,59.019z M112.029,56.91l-0.52,1.236h1.029
			C112.543,58.146,112.029,56.91,112.029,56.91z"/>
		<polyline clip-path="url(#SVGID_2_)" fill="#231F20" points="115.007,55.894 115.498,55.894 115.498,58.582 116.877,58.582 
			116.877,59.02 115.007,59.02 		"/>
		<polygon clip-path="url(#SVGID_2_)" fill="none" stroke="#231F20" stroke-width="0.24" points="115.007,55.894 115.498,55.894 
			115.498,58.582 116.877,58.582 116.877,59.02 115.007,59.02 		"/>
		<path clip-path="url(#SVGID_2_)" fill="#231F20" d="M120.356,57.457c0-0.924,0.704-1.604,1.595-1.604
			c0.579,0,0.978,0.225,1.249,0.607l-0.376,0.267c-0.207-0.28-0.474-0.427-0.888-0.427c-0.62,0-1.071,0.496-1.071,1.158
			c0,0.676,0.46,1.158,1.09,1.158c0.404,0,0.703-0.152,0.938-0.455l0.381,0.262c-0.322,0.427-0.731,0.639-1.338,0.639
			C121.045,59.061,120.356,58.381,120.356,57.457"/>
		<path clip-path="url(#SVGID_2_)" fill="none" stroke="#231F20" stroke-width="0.24" d="M120.356,57.457
			c0-0.924,0.704-1.604,1.595-1.604c0.579,0,0.978,0.225,1.249,0.607l-0.376,0.267c-0.207-0.28-0.474-0.427-0.888-0.427
			c-0.62,0-1.071,0.496-1.071,1.158c0,0.676,0.46,1.158,1.09,1.158c0.404,0,0.703-0.152,0.938-0.455l0.381,0.262
			c-0.322,0.427-0.731,0.639-1.338,0.639C121.045,59.061,120.356,58.381,120.356,57.457z"/>
		<path clip-path="url(#SVGID_2_)" fill="#231F20" d="M125.127,59.019h-0.496l1.368-3.19h0.028l1.374,3.19h-0.52l-0.178-0.437
			c0,0-1.393,0-1.398,0 M126.009,56.91l-0.52,1.236h1.029C126.523,58.146,126.009,56.91,126.009,56.91z"/>
		<path clip-path="url(#SVGID_2_)" fill="none" stroke="#231F20" stroke-width="0.24" d="M125.127,59.019h-0.496l1.368-3.19h0.028
			l1.374,3.19h-0.52l-0.178-0.437c0,0-1.393,0-1.398,0L125.127,59.019z M126.009,56.91l-0.52,1.236h1.029
			C126.523,58.146,126.009,56.91,126.009,56.91z"/>
		<path clip-path="url(#SVGID_2_)" fill="#231F20" d="M129.478,59.019h-0.492v-3.126h0.8c0.86,0,1.333,0.475,1.333,1.195
			c0,0.718-0.477,1.19-1.333,1.19h-0.308 M129.768,57.843c0.601,0,0.846-0.285,0.846-0.754c0-0.473-0.249-0.757-0.846-0.757h-0.29
			v1.511H129.768z"/>
		<path clip-path="url(#SVGID_2_)" fill="none" stroke="#231F20" stroke-width="0.24" d="M129.478,59.019h-0.492v-3.126h0.8
			c0.86,0,1.333,0.475,1.333,1.195c0,0.718-0.477,1.19-1.333,1.19h-0.308V59.019z M129.768,57.843c0.601,0,0.846-0.285,0.846-0.754
			c0-0.473-0.249-0.757-0.846-0.757h-0.29v1.511H129.768z"/>
		<rect x="132.801" y="55.893" clip-path="url(#SVGID_2_)" fill="#231F20" width="0.492" height="3.126"/>
		
			<rect x="132.801" y="55.893" clip-path="url(#SVGID_2_)" fill="none" stroke="#231F20" stroke-width="0.24" width="0.492" height="3.126"/>
		<polyline clip-path="url(#SVGID_2_)" fill="#231F20" points="135.835,56.331 134.906,56.331 134.906,55.894 137.255,55.894 
			137.255,56.331 136.326,56.331 136.326,59.019 135.835,59.019 		"/>
		<polygon clip-path="url(#SVGID_2_)" fill="none" stroke="#231F20" stroke-width="0.24" points="135.835,56.331 134.906,56.331 
			134.906,55.894 137.255,55.894 137.255,56.331 136.326,56.331 136.326,59.019 135.835,59.019 		"/>
		<path clip-path="url(#SVGID_2_)" fill="#231F20" d="M138.693,59.019h-0.496l1.369-3.19h0.028l1.375,3.19h-0.52l-0.179-0.437
			c0,0-1.393,0-1.398,0 M139.576,56.91l-0.52,1.236h1.03C140.09,58.146,139.576,56.91,139.576,56.91z"/>
		<path clip-path="url(#SVGID_2_)" fill="none" stroke="#231F20" stroke-width="0.24" d="M138.693,59.019h-0.496l1.369-3.19h0.028
			l1.375,3.19h-0.52l-0.179-0.437c0,0-1.393,0-1.398,0L138.693,59.019z M139.576,56.91l-0.52,1.236h1.03
			C140.09,58.146,139.576,56.91,139.576,56.91z"/>
		<polyline clip-path="url(#SVGID_2_)" fill="#231F20" points="142.553,55.894 143.045,55.894 143.045,58.582 144.424,58.582 
			144.424,59.02 142.553,59.02 		"/>
		<polygon clip-path="url(#SVGID_2_)" fill="none" stroke="#231F20" stroke-width="0.24" points="142.553,55.894 143.045,55.894 
			143.045,58.582 144.424,58.582 144.424,59.02 142.553,59.02 		"/>
		<path clip-path="url(#SVGID_2_)" fill="#231F20" d="M150.197,59.02h-0.584l-0.533-0.758c-0.069,0.009-0.147,0.013-0.225,0.013
			h-0.308v0.745h-0.492v-3.126h0.8c0.859,0,1.333,0.475,1.333,1.195c0,0.483-0.217,0.855-0.626,1.044 M148.836,57.852
			c0.602,0,0.846-0.284,0.846-0.763c0-0.473-0.248-0.757-0.846-0.757h-0.289v1.52H148.836z"/>
		<path clip-path="url(#SVGID_2_)" fill="none" stroke="#231F20" stroke-width="0.24" d="M150.197,59.02h-0.584l-0.533-0.758
			c-0.069,0.009-0.147,0.013-0.225,0.013h-0.308v0.745h-0.492v-3.126h0.8c0.859,0,1.333,0.475,1.333,1.195
			c0,0.483-0.217,0.855-0.626,1.044L150.197,59.02z M148.836,57.852c0.602,0,0.846-0.284,0.846-0.763
			c0-0.473-0.248-0.757-0.846-0.757h-0.289v1.52H148.836z"/>
		<polyline clip-path="url(#SVGID_2_)" fill="#231F20" points="151.897,55.894 153.887,55.894 153.887,56.332 152.388,56.332 
			152.388,57.626 153.717,57.626 153.717,58.055 152.388,58.055 152.388,58.582 153.951,58.582 153.951,59.02 151.897,59.02 		"/>
		<polygon clip-path="url(#SVGID_2_)" fill="none" stroke="#231F20" stroke-width="0.24" points="151.897,55.894 153.887,55.894 
			153.887,56.332 152.388,56.332 152.388,57.626 153.717,57.626 153.717,58.055 152.388,58.055 152.388,58.582 153.951,58.582 
			153.951,59.02 151.897,59.02 		"/>
		<path clip-path="url(#SVGID_2_)" fill="#231F20" d="M155.477,57.457c0-0.924,0.707-1.604,1.604-1.604
			c0.579,0,0.928,0.206,1.186,0.496l-0.34,0.321c-0.188-0.206-0.405-0.372-0.86-0.372c-0.634,0-1.08,0.496-1.08,1.158
			c0,0.661,0.451,1.158,1.163,1.158c0.34,0,0.58-0.078,0.758-0.197v-0.354h-0.836v-0.437h1.291v1.025
			c-0.262,0.217-0.624,0.41-1.213,0.41C156.189,59.061,155.477,58.381,155.477,57.457"/>
		<path clip-path="url(#SVGID_2_)" fill="none" stroke="#231F20" stroke-width="0.24" d="M155.477,57.457
			c0-0.924,0.707-1.604,1.604-1.604c0.579,0,0.928,0.206,1.186,0.496l-0.34,0.321c-0.188-0.206-0.405-0.372-0.86-0.372
			c-0.634,0-1.08,0.496-1.08,1.158c0,0.661,0.451,1.158,1.163,1.158c0.34,0,0.58-0.078,0.758-0.197v-0.354h-0.836v-0.437h1.291
			v1.025c-0.262,0.217-0.624,0.41-1.213,0.41C156.189,59.061,155.477,58.381,155.477,57.457z"/>
		<rect x="160.114" y="55.893" clip-path="url(#SVGID_2_)" fill="#231F20" width="0.492" height="3.126"/>
		
			<rect x="160.114" y="55.893" clip-path="url(#SVGID_2_)" fill="none" stroke="#231F20" stroke-width="0.24" width="0.492" height="3.126"/>
		<path clip-path="url(#SVGID_2_)" fill="#231F20" d="M162.297,57.457c0-0.924,0.716-1.604,1.613-1.604
			c0.896,0,1.613,0.68,1.613,1.604c0,0.924-0.717,1.604-1.613,1.604C163.013,59.061,162.297,58.381,162.297,57.457 M165.014,57.457
			c0-0.662-0.455-1.158-1.103-1.158c-0.649,0-1.104,0.496-1.104,1.158c0,0.661,0.455,1.158,1.104,1.158
			C164.559,58.614,165.014,58.118,165.014,57.457z"/>
		<path clip-path="url(#SVGID_2_)" fill="none" stroke="#231F20" stroke-width="0.24" d="M162.297,57.457
			c0-0.924,0.716-1.604,1.613-1.604c0.896,0,1.613,0.68,1.613,1.604c0,0.924-0.717,1.604-1.613,1.604
			C163.013,59.061,162.297,58.381,162.297,57.457z M165.014,57.457c0-0.662-0.455-1.158-1.103-1.158
			c-0.649,0-1.104,0.496-1.104,1.158c0,0.661,0.455,1.158,1.104,1.158C164.559,58.614,165.014,58.118,165.014,57.457z"/>
		<polyline clip-path="url(#SVGID_2_)" fill="#231F20" points="167.661,56.965 167.661,59.02 167.201,59.02 167.201,55.848 
			167.238,55.848 169.241,57.949 169.241,55.894 169.701,55.894 169.701,59.065 169.664,59.065 		"/>
		<polygon clip-path="url(#SVGID_2_)" fill="none" stroke="#231F20" stroke-width="0.24" points="167.661,56.965 167.661,59.02 
			167.201,59.02 167.201,55.848 167.238,55.848 169.241,57.949 169.241,55.894 169.701,55.894 169.701,59.065 169.664,59.065 		"/>
	</g>
</g>
</svg>
