<?xml version="1.0" encoding="utf-8"?>
<!-- Generator: Adobe Illustrator 17.1.0, SVG Export Plug-In . SVG Version: 6.00 Build 0)  -->
<!DOCTYPE svg PUBLIC "-//W3C//DTD SVG 1.1//EN" "http://www.w3.org/Graphics/SVG/1.1/DTD/svg11.dtd">
<svg version="1.1" id="Layer_1" xmlns="http://www.w3.org/2000/svg" xmlns:xlink="http://www.w3.org/1999/xlink" x="0px" y="0px"
	 viewBox="0 0 180.435 97.652" enable-background="new 0 0 180.435 97.652" xml:space="preserve">
<g opacity="0.8">
	<path fill="#6E6E6E" d="M45.981,64.664c0.277-0.046,0.64-0.086,1.102-0.086c0.567,0,0.983,0.132,1.247,0.369
		c0.244,0.211,0.389,0.534,0.389,0.93c0,0.402-0.119,0.719-0.343,0.95c-0.304,0.323-0.798,0.488-1.359,0.488
		c-0.171,0-0.33-0.006-0.462-0.039v1.781h-0.574V64.664z M46.555,66.808c0.125,0.033,0.284,0.046,0.475,0.046
		c0.693,0,1.115-0.336,1.115-0.95c0-0.587-0.416-0.871-1.049-0.871c-0.251,0-0.442,0.02-0.541,0.046V66.808z"/>
	<path fill="#6E6E6E" d="M50.559,64.611v2.632c0,0.996,0.442,1.418,1.036,1.418c0.66,0,1.082-0.435,1.082-1.418v-2.632h0.58v2.592
		c0,1.365-0.719,1.926-1.682,1.926c-0.91,0-1.596-0.521-1.596-1.9v-2.619H50.559z"/>
	<path fill="#6E6E6E" d="M54.748,64.67c0.251-0.053,0.646-0.092,1.049-0.092c0.574,0,0.943,0.099,1.22,0.323
		c0.231,0.172,0.369,0.435,0.369,0.785c0,0.429-0.284,0.805-0.752,0.976v0.013c0.422,0.105,0.917,0.455,0.917,1.115
		c0,0.383-0.152,0.673-0.376,0.891c-0.31,0.283-0.811,0.415-1.537,0.415c-0.396,0-0.699-0.026-0.891-0.053V64.67z M55.322,66.491
		h0.521c0.607,0,0.963-0.317,0.963-0.745c0-0.521-0.396-0.726-0.976-0.726c-0.264,0-0.416,0.02-0.508,0.039V66.491z M55.322,68.622
		c0.112,0.02,0.277,0.027,0.482,0.027c0.594,0,1.141-0.218,1.141-0.864c0-0.607-0.521-0.858-1.148-0.858h-0.475V68.622z"/>
	<path fill="#6E6E6E" d="M58.818,64.611h0.574v3.965h1.9v0.481h-2.474V64.611z"/>
	<path fill="#6E6E6E" d="M63,64.611v4.446h-0.574v-4.446H63z"/>
	<path fill="#6E6E6E" d="M67.605,68.912c-0.211,0.106-0.633,0.211-1.174,0.211c-1.253,0-2.197-0.792-2.197-2.25
		c0-1.392,0.943-2.335,2.322-2.335c0.554,0,0.904,0.119,1.055,0.198l-0.138,0.468c-0.218-0.105-0.528-0.185-0.897-0.185
		c-1.042,0-1.735,0.666-1.735,1.834c0,1.088,0.627,1.788,1.708,1.788c0.35,0,0.706-0.073,0.937-0.185L67.605,68.912z"/>
	<path fill="#6E6E6E" d="M73.014,66.973h-1.728v1.603h1.926v0.481h-2.5v-4.446h2.401v0.481h-1.827v1.405h1.728V66.973z"/>
	<path fill="#6E6E6E" d="M74.452,64.67c0.35-0.053,0.765-0.092,1.22-0.092c0.824,0,1.412,0.191,1.801,0.554
		c0.396,0.363,0.627,0.877,0.627,1.596c0,0.726-0.224,1.319-0.64,1.728c-0.416,0.416-1.102,0.64-1.966,0.64
		c-0.409,0-0.752-0.02-1.042-0.053V64.67z M75.026,68.602c0.145,0.027,0.356,0.033,0.58,0.033c1.227,0,1.893-0.686,1.893-1.887
		c0.006-1.049-0.587-1.715-1.801-1.715c-0.297,0-0.521,0.026-0.673,0.059V68.602z"/>
	<path fill="#6E6E6E" d="M79.914,64.611v2.632c0,0.996,0.442,1.418,1.036,1.418c0.66,0,1.082-0.435,1.082-1.418v-2.632h0.58v2.592
		c0,1.365-0.719,1.926-1.682,1.926c-0.91,0-1.596-0.521-1.596-1.9v-2.619H79.914z"/>
	<path fill="#6E6E6E" d="M87.21,68.912c-0.211,0.106-0.633,0.211-1.174,0.211c-1.253,0-2.197-0.792-2.197-2.25
		c0-1.392,0.943-2.335,2.322-2.335c0.554,0,0.904,0.119,1.055,0.198l-0.139,0.468c-0.218-0.105-0.528-0.185-0.897-0.185
		c-1.042,0-1.735,0.666-1.735,1.834c0,1.088,0.627,1.788,1.708,1.788c0.35,0,0.706-0.073,0.937-0.185L87.21,68.912z"/>
	<path fill="#6E6E6E" d="M89.169,67.659l-0.462,1.398h-0.594l1.511-4.446h0.693l1.517,4.446h-0.614l-0.475-1.398H89.169z
		 M90.627,67.21l-0.435-1.28c-0.099-0.29-0.165-0.554-0.231-0.811h-0.013c-0.066,0.264-0.138,0.534-0.224,0.805l-0.435,1.286H90.627
		z"/>
	<path fill="#6E6E6E" d="M93.319,65.099h-1.352v-0.488h3.292v0.488h-1.359v3.958h-0.58V65.099z"/>
	<path fill="#6E6E6E" d="M96.822,64.611v4.446h-0.574v-4.446H96.822z"/>
	<path fill="#6E6E6E" d="M102.119,66.788c0,1.53-0.93,2.342-2.065,2.342c-1.174,0-1.999-0.91-1.999-2.256
		c0-1.412,0.877-2.335,2.065-2.335C101.334,64.538,102.119,65.468,102.119,66.788z M98.669,66.86c0,0.95,0.515,1.801,1.418,1.801
		c0.91,0,1.425-0.837,1.425-1.847c0-0.884-0.462-1.807-1.418-1.807C99.144,65.007,98.669,65.884,98.669,66.86z"/>
	<path fill="#6E6E6E" d="M103.359,69.057v-4.446h0.627l1.425,2.249c0.33,0.521,0.587,0.989,0.798,1.445l0.013-0.006
		c-0.052-0.594-0.066-1.135-0.066-1.827v-1.86h0.541v4.446h-0.581l-1.411-2.256c-0.31-0.495-0.607-1.003-0.831-1.484l-0.02,0.007
		c0.033,0.561,0.046,1.095,0.046,1.834v1.9H103.359z"/>
	<path fill="#6E6E6E" d="M108.036,68.714c0-0.244,0.165-0.415,0.396-0.415c0.231,0,0.39,0.171,0.39,0.415
		c0,0.237-0.152,0.416-0.396,0.416C108.194,69.13,108.036,68.951,108.036,68.714z"/>
	<path fill="#6E6E6E" d="M116.948,68.912c-0.211,0.106-0.633,0.211-1.174,0.211c-1.253,0-2.196-0.792-2.196-2.25
		c0-1.392,0.943-2.335,2.322-2.335c0.554,0,0.904,0.119,1.056,0.198l-0.138,0.468c-0.218-0.105-0.528-0.185-0.898-0.185
		c-1.042,0-1.735,0.666-1.735,1.834c0,1.088,0.627,1.788,1.708,1.788c0.35,0,0.706-0.073,0.937-0.185L116.948,68.912z"/>
	<path fill="#6E6E6E" d="M118.907,67.659l-0.462,1.398h-0.594l1.511-4.446h0.692l1.517,4.446h-0.613l-0.475-1.398H118.907z
		 M120.365,67.21l-0.435-1.28c-0.099-0.29-0.165-0.554-0.231-0.811h-0.013c-0.066,0.264-0.138,0.534-0.224,0.805l-0.435,1.286
		H120.365z"/>
	<path fill="#6E6E6E" d="M122.72,69.057v-4.446h0.627l1.425,2.249c0.33,0.521,0.587,0.989,0.798,1.445l0.013-0.006
		c-0.052-0.594-0.066-1.135-0.066-1.827v-1.86h0.541v4.446h-0.581l-1.411-2.256c-0.31-0.495-0.607-1.003-0.831-1.484l-0.02,0.007
		c0.033,0.561,0.046,1.095,0.046,1.834v1.9H122.72z"/>
	<path fill="#6E6E6E" d="M128.275,67.659l-0.462,1.398h-0.594l1.511-4.446h0.693l1.517,4.446h-0.613l-0.475-1.398H128.275z
		 M129.733,67.21l-0.436-1.28c-0.099-0.29-0.165-0.554-0.231-0.811h-0.013c-0.066,0.264-0.139,0.534-0.225,0.805l-0.435,1.286
		H129.733z"/>
	<path fill="#6E6E6E" d="M132.088,64.67c0.349-0.053,0.765-0.092,1.22-0.092c0.825,0,1.412,0.191,1.801,0.554
		c0.396,0.363,0.627,0.877,0.627,1.596c0,0.726-0.224,1.319-0.64,1.728c-0.415,0.416-1.102,0.64-1.966,0.64
		c-0.409,0-0.752-0.02-1.042-0.053V64.67z M132.662,68.602c0.145,0.027,0.356,0.033,0.58,0.033c1.227,0,1.893-0.686,1.893-1.887
		c0.007-1.049-0.587-1.715-1.801-1.715c-0.297,0-0.521,0.026-0.673,0.059V68.602z"/>
	<path fill="#6E6E6E" d="M137.602,67.659l-0.462,1.398h-0.594l1.51-4.446h0.693l1.517,4.446h-0.614l-0.475-1.398H137.602z
		 M139.06,67.21l-0.436-1.28c-0.099-0.29-0.165-0.554-0.231-0.811h-0.013c-0.066,0.264-0.139,0.534-0.224,0.805l-0.436,1.286H139.06
		z"/>
	<path fill="#6E6E6E" d="M141.436,64.538l-0.113,1.583h-0.356l-0.106-1.583H141.436z"/>
	<path fill="#6E6E6E" d="M142.682,68.358c0.257,0.159,0.633,0.29,1.029,0.29c0.587,0,0.93-0.31,0.93-0.759
		c0-0.415-0.237-0.653-0.838-0.884c-0.725-0.257-1.174-0.633-1.174-1.26c0-0.693,0.574-1.207,1.438-1.207
		c0.455,0,0.785,0.105,0.983,0.218l-0.158,0.468c-0.145-0.079-0.442-0.211-0.844-0.211c-0.607,0-0.837,0.363-0.837,0.666
		c0,0.416,0.27,0.62,0.884,0.857c0.752,0.29,1.135,0.653,1.135,1.306c0,0.686-0.508,1.28-1.557,1.28
		c-0.429,0-0.897-0.125-1.135-0.284L142.682,68.358z"/>
	<path fill="#6E6E6E" d="M148.402,64.611h2.395v0.481h-1.821v1.478h1.682v0.475h-1.682v2.012h-0.574V64.611z"/>
	<path fill="#6E6E6E" d="M152.683,64.611v2.632c0,0.996,0.442,1.418,1.035,1.418c0.66,0,1.082-0.435,1.082-1.418v-2.632h0.581v2.592
		c0,1.365-0.719,1.926-1.682,1.926c-0.91,0-1.596-0.521-1.596-1.9v-2.619H152.683z"/>
	<path fill="#6E6E6E" d="M157.716,65.099h-1.352v-0.488h3.292v0.488h-1.359v3.958h-0.581V65.099z"/>
	<path fill="#6E6E6E" d="M161.22,64.611v2.632c0,0.996,0.442,1.418,1.035,1.418c0.66,0,1.082-0.435,1.082-1.418v-2.632h0.581v2.592
		c0,1.365-0.719,1.926-1.682,1.926c-0.911,0-1.596-0.521-1.596-1.9v-2.619H161.22z"/>
	<path fill="#6E6E6E" d="M165.408,64.67c0.29-0.059,0.706-0.092,1.102-0.092c0.614,0,1.009,0.112,1.286,0.363
		c0.225,0.198,0.35,0.501,0.35,0.844c0,0.587-0.369,0.976-0.837,1.134v0.02c0.343,0.119,0.548,0.435,0.653,0.897
		c0.145,0.62,0.251,1.049,0.343,1.22h-0.594c-0.073-0.125-0.172-0.508-0.297-1.062c-0.132-0.613-0.37-0.844-0.891-0.864h-0.541
		v1.926h-0.574V64.67z M165.983,66.696h0.587c0.613,0,1.002-0.337,1.002-0.844c0-0.574-0.415-0.825-1.023-0.831
		c-0.277,0-0.475,0.026-0.567,0.053V66.696z"/>
	<path fill="#6E6E6E" d="M171.755,66.973h-1.728v1.603h1.926v0.481h-2.5v-4.446h2.401v0.481h-1.827v1.405h1.728V66.973z"/>
	<path fill="#6E6E6E" d="M173.008,68.714c0-0.244,0.165-0.415,0.396-0.415c0.231,0,0.389,0.171,0.389,0.415
		c0,0.237-0.152,0.416-0.396,0.416C173.167,69.13,173.008,68.951,173.008,68.714z"/>
</g>
<g opacity="0.8">
	<g>
		<path fill="#848484" d="M47.615,31.067h-4.112v-1.484h10.009v1.484H49.38v12.035h-1.765V31.067z"/>
		<path fill="#848484" d="M54.817,28.861h1.765v6.057h0.04c0.281-0.501,0.722-0.943,1.264-1.244
			c0.521-0.301,1.143-0.501,1.805-0.501c1.304,0,3.39,0.802,3.39,4.152v5.777h-1.765v-5.576c0-1.565-0.582-2.888-2.246-2.888
			c-1.143,0-2.046,0.802-2.367,1.765c-0.1,0.241-0.121,0.501-0.121,0.842v5.857h-1.765V28.861z"/>
		<path fill="#848484" d="M66.933,38.569c0.04,2.387,1.564,3.37,3.33,3.37c1.264,0,2.026-0.221,2.688-0.501l0.301,1.264
			c-0.622,0.281-1.685,0.602-3.23,0.602c-2.989,0-4.774-1.966-4.774-4.894s1.725-5.235,4.553-5.235c3.169,0,4.012,2.788,4.012,4.573
			c0,0.361-0.04,0.642-0.06,0.822H66.933z M72.108,37.305c0.02-1.123-0.461-2.868-2.447-2.868c-1.785,0-2.567,1.645-2.708,2.868
			H72.108z"/>
		<path fill="#B2B2B2" d="M80.313,29.583h1.745v12.055h5.777v1.464h-7.522V29.583z"/>
		<path fill="#B2B2B2" d="M90.423,38.569c0.04,2.387,1.564,3.37,3.33,3.37c1.264,0,2.026-0.221,2.688-0.501l0.301,1.264
			c-0.622,0.281-1.685,0.602-3.23,0.602c-2.989,0-4.774-1.966-4.774-4.894s1.725-5.235,4.553-5.235c3.169,0,4.012,2.788,4.012,4.573
			c0,0.361-0.04,0.642-0.06,0.822H90.423z M95.598,37.305c0.02-1.123-0.461-2.868-2.447-2.868c-1.785,0-2.567,1.645-2.708,2.868
			H95.598z"/>
		<path fill="#B2B2B2" d="M104.865,43.102l-0.14-1.224h-0.06c-0.542,0.762-1.585,1.444-2.969,1.444
			c-1.966,0-2.969-1.384-2.969-2.788c0-2.347,2.086-3.631,5.837-3.61v-0.201c0-0.802-0.221-2.247-2.206-2.247
			c-0.903,0-1.845,0.281-2.528,0.722l-0.401-1.163c0.802-0.521,1.966-0.862,3.189-0.862c2.969,0,3.691,2.026,3.691,3.971v3.631
			c0,0.842,0.04,1.665,0.16,2.327H104.865z M104.605,38.148c-1.926-0.04-4.112,0.301-4.112,2.186c0,1.143,0.762,1.685,1.665,1.685
			c1.264,0,2.066-0.802,2.347-1.625c0.06-0.181,0.101-0.381,0.101-0.562V38.148z"/>
		<path fill="#B2B2B2" d="M109.159,36.423c0-1.143-0.02-2.126-0.08-3.029h1.544l0.06,1.906h0.08
			c0.441-1.304,1.504-2.126,2.688-2.126c0.2,0,0.341,0.02,0.501,0.06v1.665c-0.181-0.04-0.361-0.06-0.602-0.06
			c-1.244,0-2.126,0.943-2.367,2.267c-0.04,0.24-0.08,0.521-0.08,0.822v5.175h-1.745V36.423z"/>
		<path fill="#B2B2B2" d="M115.798,36.021c0-1.003-0.02-1.825-0.08-2.628h1.564l0.101,1.605h0.04
			c0.481-0.923,1.605-1.825,3.209-1.825c1.344,0,3.43,0.802,3.43,4.132v5.797h-1.765v-5.596c0-1.565-0.582-2.868-2.246-2.868
			c-1.164,0-2.066,0.822-2.367,1.805c-0.08,0.221-0.12,0.522-0.12,0.822v5.837h-1.765V36.021z"/>
		<path fill="#B2B2B2" d="M128.897,30.666c0.02,0.602-0.421,1.083-1.124,1.083c-0.622,0-1.063-0.481-1.063-1.083
			c0-0.622,0.462-1.103,1.103-1.103C128.476,29.563,128.897,30.044,128.897,30.666z M126.931,43.102v-9.708h1.765v9.708H126.931z"/>
		<path fill="#B2B2B2" d="M131.625,36.021c0-1.003-0.02-1.825-0.08-2.628h1.565l0.1,1.605h0.04c0.481-0.923,1.605-1.825,3.209-1.825
			c1.344,0,3.43,0.802,3.43,4.132v5.797h-1.765v-5.596c0-1.565-0.582-2.868-2.247-2.868c-1.163,0-2.066,0.822-2.367,1.805
			c-0.08,0.221-0.12,0.522-0.12,0.822v5.837h-1.765V36.021z"/>
		<path fill="#B2B2B2" d="M151.122,33.394c-0.04,0.702-0.08,1.484-0.08,2.668v5.637c0,2.226-0.442,3.59-1.384,4.433
			c-0.943,0.883-2.307,1.163-3.53,1.163c-1.163,0-2.447-0.281-3.229-0.802l0.442-1.344c0.642,0.401,1.645,0.762,2.848,0.762
			c1.805,0,3.129-0.943,3.129-3.39v-1.083h-0.04c-0.542,0.903-1.585,1.625-3.089,1.625c-2.407,0-4.132-2.046-4.132-4.734
			c0-3.289,2.146-5.155,4.373-5.155c1.685,0,2.607,0.883,3.029,1.685h0.04l0.08-1.464H151.122z M149.297,37.225
			c0-0.301-0.02-0.562-0.1-0.802c-0.321-1.023-1.183-1.865-2.467-1.865c-1.685,0-2.889,1.424-2.889,3.671
			c0,1.906,0.963,3.49,2.868,3.49c1.083,0,2.066-0.682,2.447-1.805c0.1-0.301,0.14-0.642,0.14-0.943V37.225z"/>
	</g>
</g>
<g opacity="0.8">
	<path fill="#848484" d="M46.362,45.934c0.813-0.136,1.877-0.252,3.232-0.252c1.664,0,2.884,0.387,3.658,1.084
		c0.716,0.619,1.142,1.568,1.142,2.729c0,1.18-0.348,2.109-1.006,2.787c-0.89,0.948-2.342,1.432-3.987,1.432
		c-0.503,0-0.968-0.019-1.355-0.116v5.226h-1.684V45.934z M48.046,52.224c0.368,0.097,0.832,0.135,1.393,0.135
		c2.032,0,3.271-0.987,3.271-2.787c0-1.722-1.219-2.555-3.077-2.555c-0.736,0-1.297,0.058-1.587,0.135V52.224z"/>
	<path fill="#848484" d="M61.282,58.824l-0.135-1.181h-0.058c-0.522,0.735-1.529,1.393-2.864,1.393c-1.897,0-2.864-1.335-2.864-2.69
		c0-2.264,2.013-3.503,5.632-3.484v-0.193c0-0.774-0.213-2.168-2.129-2.168c-0.871,0-1.78,0.271-2.439,0.697l-0.387-1.123
		c0.774-0.503,1.897-0.832,3.077-0.832c2.864,0,3.561,1.955,3.561,3.832v3.503c0,0.813,0.039,1.606,0.155,2.245H61.282z
		 M61.03,54.043c-1.858-0.039-3.968,0.29-3.968,2.11c0,1.103,0.736,1.626,1.606,1.626c1.219,0,1.993-0.774,2.264-1.568
		c0.058-0.174,0.097-0.368,0.097-0.542V54.043z"/>
	<path fill="#848484" d="M65.422,52.379c0-1.103-0.019-2.051-0.077-2.922h1.49l0.058,1.839h0.077
		c0.426-1.258,1.451-2.051,2.593-2.051c0.193,0,0.329,0.019,0.484,0.058v1.606c-0.174-0.039-0.348-0.058-0.581-0.058
		c-1.2,0-2.051,0.909-2.284,2.187c-0.039,0.232-0.077,0.503-0.077,0.793v4.993h-1.684V52.379z"/>
	<path fill="#848484" d="M74.266,46.766v2.69h2.439v1.297h-2.439v5.051c0,1.161,0.329,1.819,1.278,1.819
		c0.445,0,0.774-0.058,0.987-0.116l0.078,1.277c-0.329,0.136-0.852,0.232-1.51,0.232c-0.793,0-1.432-0.251-1.839-0.716
		c-0.484-0.503-0.658-1.335-0.658-2.439v-5.109H71.15v-1.297h1.452v-2.245L74.266,46.766z"/>
	<path fill="#848484" d="M78.619,51.992c0-0.968-0.019-1.761-0.077-2.535h1.509l0.097,1.548h0.039
		c0.464-0.89,1.548-1.761,3.097-1.761c1.297,0,3.31,0.774,3.31,3.987v5.593H84.89v-5.4c0-1.51-0.561-2.768-2.168-2.768
		c-1.123,0-1.993,0.793-2.284,1.742c-0.078,0.213-0.116,0.503-0.116,0.793v5.632h-1.703V51.992z"/>
	<path fill="#848484" d="M90.307,54.45c0.039,2.303,1.51,3.251,3.213,3.251c1.219,0,1.955-0.213,2.593-0.484l0.29,1.219
		c-0.6,0.271-1.626,0.581-3.116,0.581c-2.884,0-4.606-1.897-4.606-4.722s1.664-5.051,4.393-5.051c3.058,0,3.871,2.69,3.871,4.413
		c0,0.348-0.039,0.619-0.058,0.793H90.307z M95.3,53.23c0.019-1.084-0.445-2.768-2.361-2.768c-1.722,0-2.477,1.587-2.613,2.768H95.3
		z"/>
	<path fill="#848484" d="M99.053,52.379c0-1.103-0.019-2.051-0.077-2.922h1.49l0.058,1.839h0.077
		c0.426-1.258,1.452-2.051,2.594-2.051c0.193,0,0.329,0.019,0.484,0.058v1.606c-0.174-0.039-0.348-0.058-0.581-0.058
		c-1.2,0-2.051,0.909-2.284,2.187c-0.039,0.232-0.078,0.503-0.078,0.793v4.993h-1.684V52.379z"/>
	<path fill="#848484" d="M105.148,57.082c0.503,0.329,1.394,0.677,2.245,0.677c1.239,0,1.819-0.619,1.819-1.393
		c0-0.813-0.484-1.258-1.742-1.722c-1.684-0.6-2.477-1.529-2.477-2.651c0-1.51,1.219-2.748,3.232-2.748
		c0.949,0,1.781,0.271,2.303,0.581l-0.426,1.239c-0.368-0.232-1.045-0.542-1.916-0.542c-1.006,0-1.568,0.581-1.568,1.278
		c0,0.774,0.561,1.122,1.781,1.587c1.626,0.619,2.458,1.432,2.458,2.826c0,1.645-1.277,2.806-3.503,2.806
		c-1.026,0-1.974-0.251-2.632-0.639L105.148,57.082z"/>
	<path fill="#848484" d="M113.044,45.082h1.703v5.845h0.039c0.271-0.484,0.697-0.91,1.22-1.2c0.503-0.29,1.103-0.484,1.742-0.484
		c1.258,0,3.271,0.774,3.271,4.006v5.574h-1.703v-5.38c0-1.51-0.562-2.787-2.168-2.787c-1.103,0-1.974,0.774-2.284,1.703
		c-0.097,0.232-0.116,0.484-0.116,0.813v5.651h-1.703V45.082z"/>
	<path fill="#848484" d="M125.679,46.824c0.02,0.58-0.406,1.045-1.084,1.045c-0.6,0-1.026-0.464-1.026-1.045
		c0-0.6,0.445-1.064,1.065-1.064C125.273,45.76,125.679,46.224,125.679,46.824z M123.783,58.824v-9.367h1.703v9.367H123.783z"/>
	<path fill="#848484" d="M128.311,52.514c0-1.2-0.039-2.168-0.077-3.058h1.529l0.078,1.607h0.039c0.697-1.142,1.8-1.819,3.329-1.819
		c2.265,0,3.968,1.916,3.968,4.761c0,3.368-2.051,5.032-4.258,5.032c-1.239,0-2.322-0.542-2.884-1.471h-0.039v5.09h-1.684V52.514z
		 M129.995,55.011c0,0.252,0.039,0.484,0.077,0.697c0.31,1.18,1.336,1.993,2.555,1.993c1.8,0,2.845-1.471,2.845-3.619
		c0-1.877-0.987-3.484-2.787-3.484c-1.161,0-2.245,0.832-2.574,2.11c-0.058,0.213-0.116,0.464-0.116,0.697V55.011z"/>
</g>
<rect x="18.129" y="29.399" opacity="0.8" fill="#848484" width="22.149" height="22.149"/>
<rect x="10.264" y="52.845" opacity="0.8" fill="#848484" width="6.581" height="6.581"/>
<rect x="18.482" y="53.166" opacity="0.8" fill="#B2B2B2" width="11.236" height="11.236"/>
<rect x="5.32" y="39.362" opacity="0.8" fill="#B2B2B2" width="11.525" height="11.525"/>
<g opacity="0.8">
	<path fill="#FFFFFF" stroke="#FFFFFF" stroke-width="2" stroke-miterlimit="10" d="M26.098,48.509c0-0.395,0.114-0.726,0.344-0.991
		c0.229-0.265,0.51-0.398,0.842-0.398c0.278,0,0.501,0.088,0.667,0.263c0.166,0.176,0.249,0.403,0.249,0.681
		c0,0.386-0.113,0.708-0.337,0.964c-0.225,0.256-0.508,0.385-0.849,0.385c-0.288,0-0.512-0.081-0.674-0.243
		C26.179,49.008,26.098,48.788,26.098,48.509z M27.675,44.141c-0.072,0-0.121-0.015-0.148-0.047
		c-0.027-0.031-0.041-0.096-0.041-0.195v-0.122c0-0.791,0.092-1.986,0.277-3.586c0.184-1.599,0.438-3.217,0.761-4.853
		c0.341-1.744,0.687-2.966,1.038-3.667c0.35-0.701,0.782-1.051,1.294-1.051c0.242,0,0.436,0.068,0.58,0.202
		c0.143,0.135,0.216,0.315,0.216,0.539c0,0.288-0.29,1.052-0.869,2.292c-0.58,1.24-1.027,2.354-1.341,3.343
		c-0.449,1.384-0.811,2.745-1.085,4.084c-0.274,1.339-0.411,2.238-0.411,2.696c0,0.108-0.027,0.196-0.081,0.263
		C27.81,44.108,27.747,44.141,27.675,44.141z"/>
</g>
</svg>
