<?xml version="1.0" encoding="utf-8"?>
<!-- Generator: Adobe Illustrator 17.1.0, SVG Export Plug-In . SVG Version: 6.00 Build 0)  -->
<!DOCTYPE svg PUBLIC "-//W3C//DTD SVG 1.1//EN" "http://www.w3.org/Graphics/SVG/1.1/DTD/svg11.dtd">
<svg version="1.1" id="Layer_1" xmlns="http://www.w3.org/2000/svg" xmlns:xlink="http://www.w3.org/1999/xlink" x="0px" y="0px"
	 viewBox="0 0 179.339 100.5" enable-background="new 0 0 179.339 100.5" xml:space="preserve">
<g opacity="0.8">
	<path fill="#231F20" d="M78.309,19.169c-1.917,0-3.411-1.54-3.411-3.411c0-1.871,1.511-3.429,3.43-3.429
		c1.917,0,3.411,1.54,3.411,3.411C81.739,17.609,80.227,19.169,78.309,19.169z M78.328,12.592c-1.796,0-3.147,1.427-3.147,3.166
		c0,1.738,1.341,3.146,3.128,3.146c1.794,0,3.146-1.427,3.146-3.164C81.455,14.001,80.113,12.592,78.328,12.592z M78.885,15.928
		l1.153,1.454h-0.529l-1.094-1.387h-1.001v1.387h-0.407v-3.456h1.549c0.735,0,1.276,0.386,1.276,1.001
		C79.83,15.493,79.442,15.824,78.885,15.928z M78.534,14.312h-1.122v1.303h1.074c0.522,0,0.918-0.225,0.918-0.67
		C79.404,14.549,79.075,14.312,78.534,14.312z"/>
</g>
<g opacity="0.8">
	<path fill="#231F20" d="M166.89,19.169c-1.918,0-3.411-1.54-3.411-3.411c0-1.871,1.512-3.429,3.43-3.429
		c1.917,0,3.411,1.54,3.411,3.411C170.32,17.609,168.808,19.169,166.89,19.169z M166.909,12.592c-1.796,0-3.147,1.427-3.147,3.166
		c0,1.738,1.342,3.146,3.128,3.146c1.794,0,3.147-1.427,3.147-3.164C170.037,14.001,168.694,12.592,166.909,12.592z M167.466,15.928
		l1.153,1.454h-0.529l-1.095-1.387h-1v1.387h-0.407v-3.456h1.548c0.735,0,1.277,0.386,1.277,1.001
		C168.412,15.493,168.023,15.824,167.466,15.928z M167.115,14.312h-1.121v1.303h1.074c0.521,0,0.916-0.225,0.916-0.67
		C167.985,14.549,167.656,14.312,167.115,14.312z"/>
</g>
<g opacity="0.8">
	<path fill="#929497" d="M15.639,79.597c0,2.755-1.58,4.187-3.948,4.187c-2.335,0-3.93-1.432-3.93-4.104V74.18h1.067v5.431
		c0,2.04,1.081,3.19,2.891,3.19c1.743,0,2.852-1.057,2.852-3.121V74.18h1.068V79.597z"/>
	<path fill="#929497" d="M24.047,74.18h1.039v9.459h-0.852l-6.105-7.756v7.756h-1.04V74.18h1l5.959,7.579V74.18z"/>
	<path fill="#929497" d="M29.967,83.639h-3.284V74.18h3.284c2.972,0,5.027,2.041,5.027,4.716
		C34.994,81.571,32.939,83.639,29.967,83.639z M29.967,75.167h-2.217v7.484h2.217c2.39,0,3.917-1.623,3.917-3.73
		C33.885,76.816,32.357,75.167,29.967,75.167z"/>
	<path fill="#929497" d="M43.007,75.152h-5.766v3.231h5.16v0.972h-5.16v3.31h5.836v0.973h-6.903V74.18h6.833V75.152z"/>
	<path fill="#929497" d="M50.658,83.639l-2.743-3.677h-2.701v3.677h-1.067V74.18h4.067c2.082,0,3.419,1.121,3.419,2.824
		c0,1.582-1.083,2.5-2.57,2.771l2.907,3.864H50.658z M48.133,75.167h-2.918v3.836h2.905c1.418,0,2.431-0.729,2.431-1.957
		C50.551,75.869,49.661,75.167,48.133,75.167z"/>
	<path fill="#929497" d="M59.057,76.627l-0.784-0.569c0.851-1.271,1.742-2.013,3.404-2.013c1.717,0,2.933,1.135,2.933,2.689
		c0,1.39-0.729,2.242-2.393,3.686l-2.525,2.245h5.011v0.973h-6.605v-0.824l3.43-3.027c1.446-1.297,1.972-2.028,1.972-2.973
		c0-1.109-0.877-1.81-1.904-1.81C60.516,75.006,59.815,75.572,59.057,76.627z"/>
	<path fill="#929497" d="M69.286,83.798c-2.445,0-3.985-2.214-3.985-4.877c0-2.661,1.568-4.903,4.012-4.903
		c2.433,0,3.973,2.216,3.973,4.878C73.287,81.557,71.719,83.798,69.286,83.798z M69.286,74.992c-1.769,0-2.876,1.81-2.876,3.904
		c0,2.094,1.133,3.929,2.904,3.929c1.771,0,2.865-1.821,2.865-3.904C72.179,76.842,71.056,74.992,69.286,74.992z"/>
</g>
<path opacity="0.8" fill="#231F20" d="M59.658,36.007v-5.587h3.413c6.18,0,10.695-3.091,10.695-8.954v-0.073
	c0-5.507-4.05-8.739-10.341-8.739h-10.66v8.261c-1.709-5.107-6.559-8.761-12.689-8.761c-4.215,0-7.845,1.756-10.267,4.517v-4.016
	H7.991v6.04h7.463v18.833h0.22c-2.824,1.258-5.131,3.176-7.449,5.705l7.693,5.403c3.231-3.121,5.405-4.461,8.164-4.461
	c2.761,0,4.581,1.34,4.581,3.519c0,2.082-1.468,3.718-5.285,6.245L7.991,63.851v7.235h32.533v-6.206
	c3.246,4.18,8.508,6.9,15.289,6.9c11.745,0,19.087-8.226,19.087-18.04V53.64C74.899,44.92,69.139,37.545,59.658,36.007z
	 M59.658,18.445h3.235c2.488,0,3.98,1.135,3.98,3.268v0.072c0,1.953-1.492,3.232-3.945,3.232h-3.269V18.445z M23.554,63.255
	l7.047-4.163c2.602-1.584,4.709-3.016,6.276-4.566c0.111,3.183,0.986,6.165,2.536,8.729H23.554z M39.662,43.955
	c-1.555-4.937-7.115-8.157-14.699-8.157c-0.92,0-1.787,0.039-2.616,0.108V18.694h6.01c-1.091,1.888-1.712,4.068-1.712,6.396v0.071
	c0,6.861,5.252,12.394,12.47,12.821v-6.275l-4.874,0.458l0.906-1.735l-5.286-3.881l1.409-0.787l-1.364-3.708l2.893,0.705
	l1.071-1.491l3.68,3.673l-1.948-7.058l2.306,1.319l2.115-3.802l2.1,3.802l2.35-1.319l-1.978,7.058l3.709-3.673l1.078,1.491
	l2.852-0.705l-1.368,3.708l1.457,0.787L44.89,30.43l0.951,1.735l-4.876-0.458v6.271c5.688-0.365,10.17-3.945,11.799-8.81v6.765
	C46.894,36.738,42.359,39.751,39.662,43.955z M63.448,53.838c0,5.501-2.937,9.417-7.518,9.417c-4.581,0-7.635-3.966-7.635-9.515
	V53.64c0-5.552,2.995-9.416,7.516-9.416c4.521,0,7.636,4.014,7.636,9.515V53.838z"/>
<line opacity="0.8" fill="#929497" x1="85.949" y1="11.785" x2="85.949" y2="83.542"/>
<g opacity="0.8">
	<path fill="#231F20" d="M146.434,13.014c-8.07,0-14.256,3.608-17.702,8.972c-1.696-5.365-7.743-8.864-15.99-8.864
		c-8.686,0-13.416,2.859-18.208,8.086l8.368,5.877c3.515-3.395,5.881-4.852,8.881-4.852c3.005,0,4.984,1.458,4.984,3.828
		c0,2.264-1.597,4.045-5.749,6.793L94.281,43.64v7.871h35.392V44.78c3.532,4.539,9.262,7.486,16.632,7.486
		c12.777,0,20.763-8.949,20.763-19.625v-0.109C167.068,21.858,159.147,13.014,146.434,13.014z M111.21,42.991l7.668-4.529
		c2.821-1.717,5.106-3.27,6.809-4.95c0.123,3.455,1.075,6.695,2.754,9.479H111.21z M154.613,32.748
		c0,5.985-3.195,10.244-8.178,10.244c-4.985,0-8.306-4.314-8.306-10.351v-0.109c0-6.04,3.257-10.243,8.177-10.243
		c4.918,0,8.307,4.366,8.307,10.352V32.748z"/>
	<path fill="#231F20" d="M140.615,52.893c-4.492,0-8.094,2.676-9.428,6.406c-1.239-3.588-4.69-5.939-9.863-5.939h-7.095v16.912
		l-7.204-17.043h-4.915l-7.83,18.526h5.361l1.314-3.285h7.095l1.34,3.285h4.84h0.626h6.364c5.188,0,8.672-2.426,9.942-6.028
		c1.24,3.553,4.537,6.132,8.738,6.381V67.44l-3.626,0.341l0.674-1.291l-3.934-2.887l1.049-0.586l-1.014-2.759l2.151,0.525
		l0.797-1.109l2.738,2.732l-1.449-5.25l1.718,0.98l1.571-2.828l1.562,2.828l1.749-0.98l-1.472,5.25l2.76-2.732l0.802,1.109
		l2.119-0.525l-1.017,2.759l1.086,0.586l-3.969,2.887l0.71,1.291l-3.63-0.341v4.666c5.348-0.344,9.279-4.501,9.279-9.588v-0.054
		C150.554,57.15,146.325,52.893,140.615,52.893z M102.454,64.502l2.075-5.229l2.05,5.229H102.454z M126.475,62.584
		c0,2.969-2.023,4.651-5.071,4.651h-2.076V57.88h2.076c3.047,0,5.071,1.708,5.071,4.65V62.584z"/>
	<path fill="#231F20" d="M159.752,60.298c-2.548-0.579-3.179-0.947-3.179-1.787v-0.054c0-0.656,0.606-1.182,1.84-1.182
		c1.629,0,3.469,0.63,5.15,1.813l2.55-3.6c-1.997-1.603-4.441-2.443-7.568-2.443c-4.416,0-7.121,2.47-7.121,5.886v0.052
		c0,3.785,3.021,4.888,6.937,5.781c2.495,0.577,3.1,0.999,3.1,1.761v0.052c0,0.789-0.736,1.262-2.101,1.262
		c-2.129,0-4.152-0.762-5.966-2.207l-2.838,3.39c2.26,2.023,5.361,3.047,8.619,3.047c4.466,0,7.436-2.233,7.436-5.991v-0.053
		C166.611,62.584,163.984,61.217,159.752,60.298z"/>
</g>
<path opacity="0.8" fill="#929497" d="M102.669,84.214h-1.094l-1.055-2.379h-4.902l-1.069,2.379h-1.042l4.102-9.069h0.954
	L102.669,84.214z M98.075,76.329l-2.058,4.592h4.104L98.075,76.329z"/>
<path opacity="0.8" fill="#929497" d="M109.931,75.209h1.095l-3.873,9.069h-0.901l-3.872-9.069h1.133l3.202,7.757L109.931,75.209z"
	/>
<path opacity="0.8" fill="#929497" d="M119.307,76.136h-5.495v3.075h4.916v0.926h-4.916v3.151h5.558v0.926h-6.572v-9.005h6.509
	V76.136z"/>
<path opacity="0.8" fill="#929497" d="M125.531,84.369c-2.598,0-4.515-2.046-4.515-4.644c0-2.573,1.904-4.67,4.553-4.67
	c1.636,0,2.613,0.578,3.513,1.428l-0.696,0.747c-0.758-0.721-1.608-1.235-2.83-1.235c-1.994,0-3.487,1.608-3.487,3.705
	c0,2.096,1.505,3.73,3.487,3.73c1.235,0,2.045-0.476,2.908-1.299l0.669,0.656C128.194,83.74,127.165,84.369,125.531,84.369z"/>
<path opacity="0.8" fill="#929497" d="M141.531,77.461c0,1.184-0.721,1.788-1.429,2.097c1.067,0.322,1.931,0.938,1.931,2.187
	c0,1.556-1.301,2.47-3.269,2.47h-4v-9.005h3.833C140.373,75.209,141.531,76.084,141.531,77.461z M140.502,77.602
	c0-0.9-0.709-1.48-1.994-1.48h-2.74v3.101h2.663C139.652,79.223,140.502,78.67,140.502,77.602z M141.002,81.68
	c0-0.99-0.822-1.556-2.392-1.556h-2.843v3.177h3.023C140.154,83.301,141.002,82.697,141.002,81.68z"/>
<path opacity="0.8" fill="#929497" d="M150.249,84.214l-2.61-3.499h-2.573v3.499h-1.017v-9.005h3.872
	c1.982,0,3.256,1.068,3.256,2.689c0,1.505-1.03,2.38-2.445,2.637l2.765,3.679H150.249z M147.844,76.149h-2.779v3.654h2.765
	c1.351,0,2.316-0.696,2.316-1.866C150.146,76.818,149.298,76.149,147.844,76.149z"/>
<path opacity="0.8" fill="#929497" d="M154.454,75.209v9.005h-1.016v-9.005H154.454z"/>
<path opacity="0.8" fill="#929497" d="M161.27,84.369c-2.74,0-4.581-2.149-4.581-4.644c0-2.495,1.866-4.67,4.606-4.67
	c2.74,0,4.58,2.147,4.58,4.645C165.875,82.195,164.011,84.369,161.27,84.369z M161.27,75.995c-2.057,0-3.524,1.647-3.524,3.705
	c0,2.058,1.491,3.73,3.55,3.73c2.058,0,3.525-1.646,3.525-3.705C164.82,77.667,163.328,75.995,161.27,75.995z"/>
</svg>
