<?xml version="1.0" encoding="UTF-8" standalone="no"?>
<svg width="200px" height="79px" viewBox="0 0 200 79" version="1.1" xmlns="http://www.w3.org/2000/svg" xmlns:xlink="http://www.w3.org/1999/xlink" xmlns:sketch="http://www.bohemiancoding.com/sketch/ns">
    <!-- Generator: Sketch 3.0.1 (7597) - http://www.bohemiancoding.com/sketch -->
    <title>logo-cleaned</title>
    <description>Created with Sketch.</description>
    <defs></defs>
    <g id="Page-1" stroke="none" stroke-width="1" fill="none" fill-rule="evenodd" sketch:type="MSPage">
        <g id="Infinitus-logo" sketch:type="MSLayerGroup" transform="translate(0.000000, 30.000000)" fill="#FFFFFF">
            <path d="M0,0.606944444 L8.61118404,0.606944444 L8.61118404,37.4194444 L0,37.4194444 L0,0.606944444 Z M13.7568916,0.606944444 L22.4468364,0.606944444 L26.6211604,12.2708333 C27.8638375,15.7365914 28.8177091,18.7360984 29.4828039,21.2694444 L29.9291153,21.2694444 L29.7190864,15.0416667 L29.7190864,0.606944444 L37.9102127,0.606944444 L37.9102127,37.4194444 L29.2465214,37.4194444 L25.0721974,25.7555556 C23.8295203,22.2897975 22.8756487,19.2814942 22.210554,16.7305556 L21.737989,16.7305556 L21.9480179,22.9583333 L21.9480179,37.4194444 L13.7568916,37.4194444 L13.7568916,0.606944444 Z M43.0559202,0.606944444 L63.4549751,0.606944444 L63.4549751,8.02222222 L51.5883434,8.02222222 L51.5883434,15.675 L62.5623523,15.675 L62.5623523,22.8527778 L51.5883434,22.8527778 L51.5883434,37.4194444 L43.0559202,37.4194444 L43.0559202,0.606944444 Z M67.1829877,0.606944444 L75.7941717,0.606944444 L75.7941717,37.4194444 L67.1829877,37.4194444 L67.1829877,0.606944444 Z M80.9398792,0.606944444 L89.6298241,0.606944444 L93.8041481,12.2708333 C95.0468252,15.7365914 96.0006968,18.7360984 96.6657915,21.2694444 L97.1121029,21.2694444 L96.902074,15.0416667 L96.902074,0.606944444 L105.0932,0.606944444 L105.0932,37.4194444 L96.4295091,37.4194444 L92.2551851,25.7555556 C91.012508,22.2897975 90.0586364,19.2814942 89.3935416,16.7305556 L88.9209766,16.7305556 L89.1310055,22.9583333 L89.1310055,37.4194444 L80.9398792,37.4194444 L80.9398792,0.606944444 Z M110.291415,0.606944444 L118.902599,0.606944444 L118.902599,37.4194444 L110.291415,37.4194444 L110.291415,0.606944444 Z M122.893148,0.606944444 L146.022578,0.606944444 L146.022578,8.075 L138.592807,8.075 L138.592807,37.4194444 L130.060383,37.4194444 L130.060383,8.075 L122.893148,8.075 L122.893148,0.606944444 Z M149.540562,0.606944444 L158.046731,0.606944444 L158.046731,24.9902778 C158.046731,26.9254726 158.31364,28.3812451 158.847467,29.3576389 C159.381293,30.3340327 160.18202,30.8222222 161.249672,30.8222222 C162.369831,30.8222222 163.205563,30.3780137 163.756892,29.4895833 C164.30822,28.601153 164.58388,27.2685274 164.58388,25.4916667 L164.58388,0.606944444 L173.142557,0.606944444 L173.142557,25.9666667 C173.142557,29.801871 172.096799,32.7661932 170.005251,34.8597222 C167.913703,36.9532512 164.968952,38 161.170911,38 C157.495387,38 154.638148,36.988436 152.599107,34.9652778 C150.560067,32.9421195 149.540562,29.9426125 149.540562,25.9666667 L149.540562,0.606944444 Z M177.080599,26.4152778 C179.8985,29.0541799 182.558839,30.3736111 185.061696,30.3736111 C186.339378,30.3736111 187.433268,29.9601893 188.343397,29.1333333 C189.253527,28.3064773 189.708585,27.3037096 189.708585,26.125 C189.708585,25.1749953 189.384794,24.3305593 188.737201,23.5916667 C188.072107,22.8527741 186.829448,22.0259305 185.009189,21.1111111 C182.436322,19.8444381 180.476072,18.4282486 179.12838,16.8625 C177.763186,15.2967514 177.080599,13.3088083 177.080599,10.8986111 C177.080599,7.83748469 178.148235,5.25579755 180.283539,3.15347222 C182.418843,1.0511469 185.245454,6.13271061e-15 188.763455,0 C191.178799,6.13271061e-15 193.690369,0.650919417 196.298241,1.95277778 L196.298241,10.7402778 C193.987912,8.50600735 191.773879,7.38888889 189.656078,7.38888889 C188.605928,7.38888889 187.695812,7.70555239 186.925702,8.33888889 C186.155593,8.97222539 185.770543,9.73749551 185.770543,10.6347222 C185.770543,11.5143562 186.085584,12.2708302 186.715673,12.9041667 C187.328261,13.5375032 188.465906,14.2236074 190.128643,14.9625 C192.876534,16.1939876 194.9593,17.601381 196.377002,19.1847222 C197.794704,20.7856562 198.503544,22.9407272 198.503544,25.65 C198.503544,29.06298 197.282764,31.974525 194.841166,34.3847222 C192.399568,36.7949195 189.419813,38 185.901811,38 C183.171422,38 180.231048,37.1731564 177.080599,35.5194444 L177.080599,26.4152778 Z" id="INFINITUS" sketch:type="MSShapeGroup"></path>
        </g>
        <path d="M75.4161935,0 C90.6377501,0 98.372936,17.1197847 108.119095,17.1197847 C111.654123,17.1197847 116.480945,14.8220405 116.480945,12.0012053 C116.480945,9.18085213 111.654123,5.43677307 108.119095,5.43677307 C107.081959,5.43677307 106.101305,5.63492095 105.233616,5.98493401 C102.334991,7.15598321 100.771496,7.02774151 104.127338,5.67252566 C105.328566,5.18655712 106.684146,4.91223559 108.119095,4.91223559 C113.012138,4.91223559 117,8.09610092 117,12.0012053 C117,15.9048633 113.012138,19.0877644 108.119095,19.0877644 C97.1064612,19.0877644 87.5448443,2.28906611 75.4161935,2.28906611 C68.7123008,2.28906611 63.2461546,6.65169442 63.2461546,12.0012053 C63.2461546,17.350234 68.7123008,21.7123802 75.4161935,21.7123802 C77.9958873,21.7123802 80.3939605,21.0653864 82.3659801,19.9642434 C87.5906146,17.0484321 90.3567982,15.3446496 86.3202445,19.3442478 C83.3777965,21.344529 79.5686338,24 75.4161935,24 C66.1345547,24 61,19.4069223 61,12.0012053 C61,4.59355979 66.1345547,0 75.4161935,0" id="Fill-5" fill="#FFFFFF" sketch:type="MSShapeGroup"></path>
        <path d="M122,12.2462434 C122,19.8027921 116.867969,24 107.584544,24 C92.3651999,24 84.6291746,6.03628462 74.8812374,6.03628462 C71.3467581,6.03628462 67.0074167,9.36807364 67.0074167,12.2462434 C67.0074167,15.1239212 71.3467581,18.9447531 74.8812374,18.9447531 C75.9183556,18.9447531 76.9014268,19.234046 77.7681265,18.8758738 C80.6676753,17.6803264 82.23163,17.3196941 78.8758467,18.7056436 C77.6726922,19.1981304 76.316648,19.4790595 74.8812374,19.4790595 C69.9907139,19.4790595 66,16.2323856 66,12.2462434 C66,8.26010127 69.9907139,5.01293536 74.8812374,5.01293536 C85.8946536,5.01293536 95.4556173,22.1540354 107.584544,22.1540354 C114.28832,22.1540354 119.755832,17.7049261 119.755832,12.2462434 C119.755832,6.78706874 114.28832,2.33451549 107.584544,2.33451549 C105.004895,2.33451549 102.607351,2.99674053 100.636826,4.11848876 C95.4103347,7.09456551 92.0214414,7.98556815 96.6836042,4.74922613 C99.6250272,2.70892356 103.432663,0 107.584544,0 C116.867969,0 122,4.6852668 122,12.2462434" id="Fill-6" fill="#FFFFFF" sketch:type="MSShapeGroup"></path>
        <path d="M6.475,79 L6.475,73.17 L3.885,77.68 L3.475,77.68 L0.875,73.17 L0.875,79 L0.185,79 L0.185,71.9 L0.895,71.9 L3.675,76.76 L6.455,71.9 L7.165,71.9 L7.165,79 L6.475,79 Z M11.215,79 L14.185,71.9 L14.755,71.9 L17.725,79 L16.975,79 L16.055,76.78 L12.865,76.78 L11.955,79 L11.215,79 Z M14.475,72.72 L13.015,76.23 L15.895,76.23 L14.475,72.72 Z M21.755,79 L21.755,71.9 L24.745,71.9 C25.0516682,71.9 25.3349987,71.9649993 25.595,72.095 C25.8550013,72.2250006 26.0783324,72.394999 26.265,72.605 C26.4516676,72.815001 26.5966662,73.053332 26.7,73.32 C26.8033339,73.586668 26.855,73.8566653 26.855,74.13 C26.855,74.3900013 26.8166671,74.6383321 26.74,74.875 C26.6633329,75.1116679 26.5550007,75.324999 26.415,75.515 C26.2749993,75.7050009 26.1083343,75.8649994 25.915,75.995 C25.7216657,76.1250007 25.5050012,76.2133331 25.265,76.26 L27.015,79 L26.225,79 L24.545,76.38 L22.445,76.38 L22.445,79 L21.755,79 Z M22.445,75.76 L24.775,75.76 C24.9816677,75.76 25.1699991,75.7150004 25.34,75.625 C25.5100008,75.5349996 25.6549994,75.4133341 25.775,75.26 C25.8950006,75.1066659 25.988333,74.9333343 26.055,74.74 C26.121667,74.5466657 26.155,74.3433344 26.155,74.13 C26.155,73.9166656 26.116667,73.7116676 26.04,73.515 C25.9633329,73.3183323 25.8600006,73.1466674 25.73,73 C25.5999993,72.8533326 25.4466676,72.7366671 25.27,72.65 C25.0933324,72.5633329 24.9083343,72.52 24.715,72.52 L22.445,72.52 L22.445,75.76 Z M31.355,79 L31.355,71.91 L32.045,71.91 L32.045,76.03 L35.955,71.9 L36.725,71.9 L33.825,75.02 L36.885,79 L36.115,79 L33.395,75.43 L32.045,76.82 L32.045,79 L31.355,79 Z M45.535,78.38 L45.535,79 L40.765,79 L40.765,71.9 L45.445,71.9 L45.445,72.52 L41.455,72.52 L41.455,75.08 L44.935,75.08 L44.935,75.67 L41.455,75.67 L41.455,78.38 L45.535,78.38 Z M54.945,72.52 L52.415,72.52 L52.415,79 L51.715,79 L51.715,72.52 L49.185,72.52 L49.185,71.9 L54.945,71.9 L54.945,72.52 Z M59.035,79 L59.035,71.91 L59.725,71.91 L59.725,79 L59.035,79 Z M65.215,73.2 L65.215,79 L64.525,79 L64.525,71.9 L65.065,71.9 L69.765,77.81 L69.765,71.91 L70.455,71.91 L70.455,79 L69.855,79 L65.215,73.2 Z M80.395,77.97 C79.7349967,78.6900036 78.9783376,79.05 78.125,79.05 C77.6449976,79.05 77.2033353,78.9466677 76.8,78.74 C76.3966646,78.5333323 76.0466681,78.2600017 75.75,77.92 C75.4533318,77.5799983 75.2216675,77.1950021 75.055,76.765 C74.8883325,76.3349978 74.805,75.8933356 74.805,75.44 C74.805,74.9666643 74.8866658,74.5133355 75.05,74.08 C75.2133341,73.6466645 75.4399985,73.2650016 75.73,72.935 C76.0200014,72.6049984 76.3666646,72.3416676 76.77,72.145 C77.1733354,71.9483323 77.6116643,71.85 78.085,71.85 C78.4316684,71.85 78.7466652,71.888333 79.03,71.965 C79.3133347,72.0416671 79.5666655,72.1483326 79.79,72.285 C80.0133345,72.4216674 80.2083325,72.5849991 80.375,72.775 C80.5416675,72.9650009 80.6816661,73.1733322 80.795,73.4 L80.255,73.76 C80.0216655,73.3199978 79.7183352,72.9966677 79.345,72.79 C78.9716648,72.5833323 78.5483357,72.48 78.075,72.48 C77.6816647,72.48 77.3266682,72.5633325 77.01,72.73 C76.6933317,72.8966675 76.4233344,73.118332 76.2,73.395 C75.9766656,73.671668 75.8050006,73.9883315 75.685,74.345 C75.5649994,74.7016684 75.505,75.0699981 75.505,75.45 C75.505,75.850002 75.5733326,76.2299982 75.71,76.59 C75.8466673,76.9500018 76.0349988,77.2649986 76.275,77.535 C76.5150012,77.8050013 76.7966651,78.0199992 77.12,78.18 C77.4433349,78.3400008 77.7949981,78.42 78.175,78.42 C78.5816687,78.42 78.9683315,78.325001 79.335,78.135 C79.7016685,77.944999 80.0549983,77.6466687 80.395,77.24 L80.395,76.05 L78.825,76.05 L78.825,75.51 L80.995,75.51 L80.995,79 L80.395,79 L80.395,77.97 Z M108.555,72.52 L106.025,72.52 L106.025,79 L105.325,79 L105.325,72.52 L102.795,72.52 L102.795,71.9 L108.555,71.9 L108.555,72.52 Z M117.415,78.38 L117.415,79 L112.645,79 L112.645,71.9 L117.325,71.9 L117.325,72.52 L113.335,72.52 L113.335,75.08 L116.815,75.08 L116.815,75.67 L113.335,75.67 L113.335,78.38 L117.415,78.38 Z M121.315,75.4 C121.315,74.9733312 121.389999,74.5483355 121.54,74.125 C121.690001,73.7016645 121.908332,73.323335 122.195,72.99 C122.481668,72.656665 122.834998,72.3850011 123.255,72.175 C123.675002,71.9649989 124.151664,71.86 124.685,71.86 C125.318336,71.86 125.858331,72.0033319 126.305,72.29 C126.751669,72.5766681 127.084999,72.9499977 127.305,73.41 L126.745,73.75 C126.631666,73.5166655 126.495001,73.3200008 126.335,73.16 C126.174999,72.9999992 126.001668,72.8700005 125.815,72.77 C125.628332,72.6699995 125.435001,72.5983336 125.235,72.555 C125.034999,72.5116665 124.838334,72.49 124.645,72.49 C124.218331,72.49 123.841668,72.5766658 123.515,72.75 C123.188332,72.9233342 122.913334,73.1499986 122.69,73.43 C122.466666,73.7100014 122.298334,74.0249983 122.185,74.375 C122.071666,74.7250017 122.015,75.0799982 122.015,75.44 C122.015,75.8333353 122.083333,76.2099982 122.22,76.57 C122.356667,76.9300018 122.543332,77.248332 122.78,77.525 C123.016668,77.801668 123.296665,78.0216658 123.62,78.185 C123.943335,78.3483342 124.294998,78.43 124.675,78.43 C124.875001,78.43 125.079999,78.4050003 125.29,78.355 C125.500001,78.3049997 125.703332,78.2250006 125.9,78.115 C126.096668,78.0049995 126.278332,77.8683342 126.445,77.705 C126.611667,77.5416659 126.751666,77.3433345 126.865,77.11 L127.445,77.41 C127.331666,77.676668 127.171668,77.9116656 126.965,78.115 C126.758332,78.3183343 126.528335,78.4899993 126.275,78.63 C126.021665,78.7700007 125.753335,78.8766663 125.47,78.95 C125.186665,79.0233337 124.908335,79.06 124.635,79.06 C124.148331,79.06 123.701669,78.9533344 123.295,78.74 C122.888331,78.5266656 122.538335,78.248335 122.245,77.905 C121.951665,77.561665 121.723334,77.1716689 121.56,76.735 C121.396666,76.2983312 121.315,75.8533356 121.315,75.4 L121.315,75.4 Z M137.265,71.9 L137.265,79 L136.565,79 L136.565,75.68 L132.355,75.68 L132.355,79 L131.665,79 L131.665,71.9 L132.355,71.9 L132.355,75.06 L136.565,75.06 L136.565,71.9 L137.265,71.9 Z M142.745,73.2 L142.745,79 L142.055,79 L142.055,71.9 L142.595,71.9 L147.295,77.81 L147.295,71.91 L147.985,71.91 L147.985,79 L147.385,79 L142.745,73.2 Z M155.665,79.05 C155.171664,79.05 154.720002,78.9483343 154.31,78.745 C153.899998,78.5416657 153.548335,78.2716684 153.255,77.935 C152.961665,77.5983316 152.735001,77.2133355 152.575,76.78 C152.414999,76.3466645 152.335,75.9033356 152.335,75.45 C152.335,74.9766643 152.419999,74.5233355 152.59,74.09 C152.760001,73.6566645 152.994998,73.273335 153.295,72.94 C153.595001,72.606665 153.948331,72.3416676 154.355,72.145 C154.761669,71.9483323 155.201664,71.85 155.675,71.85 C156.168336,71.85 156.619998,71.954999 157.03,72.165 C157.440002,72.375001 157.789999,72.6499983 158.08,72.99 C158.370001,73.3300017 158.594999,73.7149978 158.755,74.145 C158.915001,74.5750021 158.995,75.0133311 158.995,75.46 C158.995,75.9333357 158.910001,76.3866645 158.74,76.82 C158.569999,77.2533355 158.336668,77.6349983 158.04,77.965 C157.743332,78.2950017 157.391669,78.5583324 156.985,78.755 C156.578331,78.9516676 156.138336,79.05 155.665,79.05 L155.665,79.05 Z M153.035,75.45 C153.035,75.8366686 153.098333,76.2083316 153.225,76.565 C153.351667,76.9216685 153.531665,77.2383319 153.765,77.515 C153.998334,77.791668 154.274998,78.0116658 154.595,78.175 C154.915002,78.3383341 155.271665,78.42 155.665,78.42 C156.065002,78.42 156.428332,78.3333342 156.755,78.16 C157.081668,77.9866658 157.358332,77.7600014 157.585,77.48 C157.811668,77.1999986 157.986666,76.8833351 158.11,76.53 C158.233334,76.1766649 158.295,75.8166685 158.295,75.45 C158.295,75.0633314 158.230001,74.6916685 158.1,74.335 C157.969999,73.9783316 157.788334,73.6633347 157.555,73.39 C157.321665,73.1166653 157.045002,72.8983341 156.725,72.735 C156.404998,72.5716658 156.051669,72.49 155.665,72.49 C155.264998,72.49 154.901668,72.5749991 154.575,72.745 C154.248332,72.9150009 153.971668,73.1399986 153.745,73.42 C153.518332,73.7000014 153.343334,74.0166649 153.22,74.37 C153.096666,74.7233351 153.035,75.0833315 153.035,75.45 L153.035,75.45 Z M163.345,79 L163.345,71.9 L164.035,71.9 L164.035,78.38 L168.145,78.38 L168.145,79 L163.345,79 Z M174.675,79.05 C174.181664,79.05 173.730002,78.9483343 173.32,78.745 C172.909998,78.5416657 172.558335,78.2716684 172.265,77.935 C171.971665,77.5983316 171.745001,77.2133355 171.585,76.78 C171.424999,76.3466645 171.345,75.9033356 171.345,75.45 C171.345,74.9766643 171.429999,74.5233355 171.6,74.09 C171.770001,73.6566645 172.004998,73.273335 172.305,72.94 C172.605001,72.606665 172.958331,72.3416676 173.365,72.145 C173.771669,71.9483323 174.211664,71.85 174.685,71.85 C175.178336,71.85 175.629998,71.954999 176.04,72.165 C176.450002,72.375001 176.799999,72.6499983 177.09,72.99 C177.380001,73.3300017 177.604999,73.7149978 177.765,74.145 C177.925001,74.5750021 178.005,75.0133311 178.005,75.46 C178.005,75.9333357 177.920001,76.3866645 177.75,76.82 C177.579999,77.2533355 177.346668,77.6349983 177.05,77.965 C176.753332,78.2950017 176.401669,78.5583324 175.995,78.755 C175.588331,78.9516676 175.148336,79.05 174.675,79.05 L174.675,79.05 Z M172.045,75.45 C172.045,75.8366686 172.108333,76.2083316 172.235,76.565 C172.361667,76.9216685 172.541665,77.2383319 172.775,77.515 C173.008334,77.791668 173.284998,78.0116658 173.605,78.175 C173.925002,78.3383341 174.281665,78.42 174.675,78.42 C175.075002,78.42 175.438332,78.3333342 175.765,78.16 C176.091668,77.9866658 176.368332,77.7600014 176.595,77.48 C176.821668,77.1999986 176.996666,76.8833351 177.12,76.53 C177.243334,76.1766649 177.305,75.8166685 177.305,75.45 C177.305,75.0633314 177.240001,74.6916685 177.11,74.335 C176.979999,73.9783316 176.798334,73.6633347 176.565,73.39 C176.331665,73.1166653 176.055002,72.8983341 175.735,72.735 C175.414998,72.5716658 175.061669,72.49 174.675,72.49 C174.274998,72.49 173.911668,72.5749991 173.585,72.745 C173.258332,72.9150009 172.981668,73.1399986 172.755,73.42 C172.528332,73.7000014 172.353334,74.0166649 172.23,74.37 C172.106666,74.7233351 172.045,75.0833315 172.045,75.45 L172.045,75.45 Z M187.495,77.97 C186.834997,78.6900036 186.078338,79.05 185.225,79.05 C184.744998,79.05 184.303335,78.9466677 183.9,78.74 C183.496665,78.5333323 183.146668,78.2600017 182.85,77.92 C182.553332,77.5799983 182.321667,77.1950021 182.155,76.765 C181.988332,76.3349978 181.905,75.8933356 181.905,75.44 C181.905,74.9666643 181.986666,74.5133355 182.15,74.08 C182.313334,73.6466645 182.539999,73.2650016 182.83,72.935 C183.120001,72.6049984 183.466665,72.3416676 183.87,72.145 C184.273335,71.9483323 184.711664,71.85 185.185,71.85 C185.531668,71.85 185.846665,71.888333 186.13,71.965 C186.413335,72.0416671 186.666666,72.1483326 186.89,72.285 C187.113334,72.4216674 187.308333,72.5849991 187.475,72.775 C187.641667,72.9650009 187.781666,73.1733322 187.895,73.4 L187.355,73.76 C187.121665,73.3199978 186.818335,72.9966677 186.445,72.79 C186.071665,72.5833323 185.648336,72.48 185.175,72.48 C184.781665,72.48 184.426668,72.5633325 184.11,72.73 C183.793332,72.8966675 183.523334,73.118332 183.3,73.395 C183.076666,73.671668 182.905001,73.9883315 182.785,74.345 C182.664999,74.7016684 182.605,75.0699981 182.605,75.45 C182.605,75.850002 182.673333,76.2299982 182.81,76.59 C182.946667,76.9500018 183.134999,77.2649986 183.375,77.535 C183.615001,77.8050013 183.896665,78.0199992 184.22,78.18 C184.543335,78.3400008 184.894998,78.42 185.275,78.42 C185.681669,78.42 186.068331,78.325001 186.435,78.135 C186.801668,77.944999 187.154998,77.6466687 187.495,77.24 L187.495,76.05 L185.925,76.05 L185.925,75.51 L188.095,75.51 L188.095,79 L187.495,79 L187.495,77.97 Z M192.215,71.9 L194.545,75.72 L196.885,71.9 L197.645,71.9 L194.885,76.36 L194.885,79 L194.195,79 L194.195,76.34 L191.455,71.9 L192.215,71.9 Z" id="MARKETING-+-TECHNOLO" fill="#E7E7E7" sketch:type="MSShapeGroup"></path>
        <path d="M94,75.0794479 L94,75.6205521 L92.7980769,75.6205521 L92.7980769,76.925 L92.2019231,76.925 L92.2019231,75.6205521 L91,75.6205521 L91,75.0794479 L92.2019231,75.0794479 L92.2019231,73.775 L92.7980769,73.775 L92.7980769,75.0794479 L94,75.0794479 Z" id="Path-2" fill="#E46A3F" sketch:type="MSShapeGroup"></path>
    </g>
</svg>