<?xml version="1.0" encoding="UTF-8" standalone="no"?>
<svg width="125px" height="49px" viewBox="0 0 125 49" version="1.1" xmlns="http://www.w3.org/2000/svg" xmlns:xlink="http://www.w3.org/1999/xlink" xmlns:sketch="http://www.bohemiancoding.com/sketch/ns">
    <!-- Generator: Sketch 3.0.1 (7597) - http://www.bohemiancoding.com/sketch -->
    <title>Untitled</title>
    <description>Created with Sketch.</description>
    <defs></defs>
    <g id="Page-1" stroke="none" stroke-width="1" fill="none" fill-rule="evenodd" sketch:type="MSPage">
        <g id="infinitus-icon" sketch:type="MSLayerGroup" fill="#E46A3F">
            <g id="Page-1" sketch:type="MSShapeGroup">
                <g id="infinitus-icon">
                    <path d="M29.6046831,0 C60.8632368,0 76.7479936,34.9528937 96.7624273,34.9528937 C104.021859,34.9528937 113.934083,30.2616661 113.934083,24.5024608 C113.934083,18.7442398 104.021859,11.1000783 96.7624273,11.1000783 C94.632594,11.1000783 92.6187516,11.5046303 90.836891,12.2192403 C84.8843569,14.6101324 81.6736082,14.3483056 88.5650688,11.5814066 C91.0318758,10.5892208 93.8156579,10.0291477 96.7624273,10.0291477 C106.810641,10.0291477 115,16.5295394 115,24.5024608 C115,32.4724292 106.810641,38.9708523 96.7624273,38.9708523 C74.1471972,38.9708523 54.5117339,4.67350997 29.6046831,4.67350997 C15.8377605,4.67350997 4.61263901,13.5805428 4.61263901,24.5024608 C4.61263901,35.4233945 15.8377605,44.329443 29.6046831,44.329443 C34.9022685,44.329443 39.8268831,43.0084972 43.8765662,40.7603302 C54.6057265,34.8072156 60.2862819,31.3286595 51.9969307,39.4945059 C45.9544036,43.5784135 38.1320158,49 29.6046831,49 C10.5441748,49 0,39.6224664 0,24.5024608 C0,9.37851791 10.5441748,0 29.6046831,0" id="Fill-8"></path>
                    <path d="M125,25.002747 C125,40.4307005 114.461008,49 95.3968316,49 C64.1428211,49 48.2563407,12.3240811 28.2382555,12.3240811 C20.9799497,12.3240811 12.0688021,19.1264837 12.0688021,25.002747 C12.0688021,30.8780058 20.9799497,38.6788709 28.2382555,38.6788709 C30.3680518,38.6788709 32.3868586,39.2695107 34.1666884,38.5382423 C40.1211188,36.097333 43.3328116,35.3610422 36.4414708,38.190689 C33.9707071,39.1961829 31.1859735,39.7697464 28.2382555,39.7697464 C18.1952161,39.7697464 10,33.1411205 10,25.002747 C10,16.8643734 18.1952161,10.234743 28.2382555,10.234743 C50.8550921,10.234743 70.4892141,45.2311556 95.3968316,45.2311556 C109.163515,45.2311556 120.391441,36.1475575 120.391441,25.002747 C120.391441,13.856932 109.163515,4.76630245 95.3968316,4.76630245 C90.0993383,4.76630245 85.1758093,6.11834526 81.1291963,8.40858121 C70.396223,14.4847379 63.4368886,16.3038683 73.0109729,9.69633669 C79.0513951,5.53071893 86.8706472,0 95.3968316,0 C114.461008,0 125,9.56575306 125,25.002747" id="Fill-7"></path>
                </g>
            </g>
        </g>
    </g>
</svg>