<?xml version="1.0" encoding="UTF-8" standalone="no"?>
<svg width="199px" height="38px" viewBox="0 0 199 38" version="1.1" xmlns="http://www.w3.org/2000/svg" xmlns:xlink="http://www.w3.org/1999/xlink" xmlns:sketch="http://www.bohemiancoding.com/sketch/ns">
    <!-- Generator: Sketch 3.0.1 (7597) - http://www.bohemiancoding.com/sketch -->
    <title>Infinitus-logo 2</title>
    <description>Created with Sketch.</description>
    <defs></defs>
    <g id="Page-1" stroke="none" stroke-width="1" fill="none" fill-rule="evenodd" sketch:type="MSPage">
        <g id="Infinitus-logo-2" sketch:type="MSLayerGroup" fill="#FFFFFF">
            <path d="M0,0.606944444 L8.61118404,0.606944444 L8.61118404,37.4194444 L0,37.4194444 L0,0.606944444 Z M13.7568916,0.606944444 L22.4468364,0.606944444 L26.6211604,12.2708333 C27.8638375,15.7365914 28.8177091,18.7360984 29.4828039,21.2694444 L29.9291153,21.2694444 L29.7190864,15.0416667 L29.7190864,0.606944444 L37.9102127,0.606944444 L37.9102127,37.4194444 L29.2465214,37.4194444 L25.0721974,25.7555556 C23.8295203,22.2897975 22.8756487,19.2814942 22.210554,16.7305556 L21.737989,16.7305556 L21.9480179,22.9583333 L21.9480179,37.4194444 L13.7568916,37.4194444 L13.7568916,0.606944444 Z M43.0559202,0.606944444 L63.4549751,0.606944444 L63.4549751,8.02222222 L51.5883434,8.02222222 L51.5883434,15.675 L62.5623523,15.675 L62.5623523,22.8527778 L51.5883434,22.8527778 L51.5883434,37.4194444 L43.0559202,37.4194444 L43.0559202,0.606944444 Z M67.1829877,0.606944444 L75.7941717,0.606944444 L75.7941717,37.4194444 L67.1829877,37.4194444 L67.1829877,0.606944444 Z M80.9398792,0.606944444 L89.6298241,0.606944444 L93.8041481,12.2708333 C95.0468252,15.7365914 96.0006968,18.7360984 96.6657915,21.2694444 L97.1121029,21.2694444 L96.902074,15.0416667 L96.902074,0.606944444 L105.0932,0.606944444 L105.0932,37.4194444 L96.4295091,37.4194444 L92.2551851,25.7555556 C91.012508,22.2897975 90.0586364,19.2814942 89.3935416,16.7305556 L88.9209766,16.7305556 L89.1310055,22.9583333 L89.1310055,37.4194444 L80.9398792,37.4194444 L80.9398792,0.606944444 Z M110.291415,0.606944444 L118.902599,0.606944444 L118.902599,37.4194444 L110.291415,37.4194444 L110.291415,0.606944444 Z M122.893148,0.606944444 L146.022578,0.606944444 L146.022578,8.075 L138.592807,8.075 L138.592807,37.4194444 L130.060383,37.4194444 L130.060383,8.075 L122.893148,8.075 L122.893148,0.606944444 Z M149.540562,0.606944444 L158.046731,0.606944444 L158.046731,24.9902778 C158.046731,26.9254726 158.31364,28.3812451 158.847467,29.3576389 C159.381293,30.3340327 160.18202,30.8222222 161.249672,30.8222222 C162.369831,30.8222222 163.205563,30.3780137 163.756892,29.4895833 C164.30822,28.601153 164.58388,27.2685274 164.58388,25.4916667 L164.58388,0.606944444 L173.142557,0.606944444 L173.142557,25.9666667 C173.142557,29.801871 172.096799,32.7661932 170.005251,34.8597222 C167.913703,36.9532512 164.968952,38 161.170911,38 C157.495387,38 154.638148,36.988436 152.599107,34.9652778 C150.560067,32.9421195 149.540562,29.9426125 149.540562,25.9666667 L149.540562,0.606944444 Z M177.080599,26.4152778 C179.8985,29.0541799 182.558839,30.3736111 185.061696,30.3736111 C186.339378,30.3736111 187.433268,29.9601893 188.343397,29.1333333 C189.253527,28.3064773 189.708585,27.3037096 189.708585,26.125 C189.708585,25.1749953 189.384794,24.3305593 188.737201,23.5916667 C188.072107,22.8527741 186.829448,22.0259305 185.009189,21.1111111 C182.436322,19.8444381 180.476072,18.4282486 179.12838,16.8625 C177.763186,15.2967514 177.080599,13.3088083 177.080599,10.8986111 C177.080599,7.83748469 178.148235,5.25579755 180.283539,3.15347222 C182.418843,1.0511469 185.245454,6.13271061e-15 188.763455,0 C191.178799,6.13271061e-15 193.690369,0.650919417 196.298241,1.95277778 L196.298241,10.7402778 C193.987912,8.50600735 191.773879,7.38888889 189.656078,7.38888889 C188.605928,7.38888889 187.695812,7.70555239 186.925702,8.33888889 C186.155593,8.97222539 185.770543,9.73749551 185.770543,10.6347222 C185.770543,11.5143562 186.085584,12.2708302 186.715673,12.9041667 C187.328261,13.5375032 188.465906,14.2236074 190.128643,14.9625 C192.876534,16.1939876 194.9593,17.601381 196.377002,19.1847222 C197.794704,20.7856562 198.503544,22.9407272 198.503544,25.65 C198.503544,29.06298 197.282764,31.974525 194.841166,34.3847222 C192.399568,36.7949195 189.419813,38 185.901811,38 C183.171422,38 180.231048,37.1731564 177.080599,35.5194444 L177.080599,26.4152778 Z" id="INFINITUS" sketch:type="MSShapeGroup"></path>
        </g>
    </g>
</svg>